AsbirMonoItalic-ItalicThin.ufo
<glyph name="exclam" format="2">
  <advance width="600"/>
  <unicode hex="0021"/>
  <outline>
    <contour>
      <point x="275" y="205" type="curve"/>
      <point x="297" y="205" type="line"/>
      <point x="318" y="295"/>
      <point x="339" y="378"/>
      <point x="356" y="460" type="curve" smooth="yes"/>
      <point x="409" y="710" type="line"/>
      <point x="377" y="710" type="line"/>
      <point x="324" y="460" type="line" smooth="yes"/>
      <point x="307" y="378"/>
      <point x="292" y="295"/>
    </contour>
    <component base="period"/>
  </outline>
</glyph>
<glyph name="quotedbl" format="2">
  <advance width="600"/>
  <unicode hex="0022"/>
  <outline>
    <contour>
      <point x="357" y="353" type="line"/>
      <point x="385" y="353" type="line"/>
      <point x="470" y="640" type="line"/>
      <point x="485" y="710" type="line"/>
      <point x="443" y="710" type="line"/>
    </contour>
    <contour>
      <point x="229" y="353" type="line"/>
      <point x="257" y="353" type="line"/>
      <point x="347" y="710" type="line"/>
      <point x="305" y="710" type="line"/>
      <point x="290" y="641" type="line"/>
    </contour>
  </outline>
</glyph>
<glyph name="numbersign" format="2">
  <advance width="600"/>
  <unicode hex="0023"/>
  <outline>
    <contour>
      <point x="260" y="0" type="line"/>
      <point x="292" y="0" type="line"/>
      <point x="575" y="710" type="line"/>
      <point x="543" y="710" type="line"/>
    </contour>
    <contour>
      <point x="40" y="216" type="line"/>
      <point x="492" y="216" type="line"/>
      <point x="506" y="246" type="line"/>
      <point x="54" y="246" type="line"/>
    </contour>
    <contour>
      <point x="64" y="0" type="line"/>
      <point x="96" y="0" type="line"/>
      <point x="379" y="710" type="line"/>
      <point x="347" y="710" type="line"/>
    </contour>
    <contour>
      <point x="132" y="461" type="line"/>
      <point x="584" y="461" type="line"/>
      <point x="598" y="491" type="line"/>
      <point x="146" y="491" type="line"/>
    </contour>
  </outline>
</glyph>
<glyph name="dollar" format="2">
  <advance width="600"/>
  <unicode hex="0024"/>
  <outline>
    <contour>
      <point x="208" y="-91" type="line"/>
      <point x="238" y="-91" type="line"/>
      <point x="428" y="800" type="line"/>
      <point x="398" y="800" type="line"/>
    </contour>
    <contour>
      <point x="246" y="-16" type="curve" smooth="yes"/>
      <point x="419" y="-16"/>
      <point x="522" y="68"/>
      <point x="522" y="204" type="curve" smooth="yes"/>
      <point x="522" y="286"/>
      <point x="484" y="328"/>
      <point x="310" y="376" type="curve" smooth="yes"/>
      <point x="190" y="409"/>
      <point x="162" y="436"/>
      <point x="162" y="498" type="curve" smooth="yes"/>
      <point x="162" y="600"/>
      <point x="236" y="678"/>
      <point x="374" y="678" type="curve" smooth="yes"/>
      <point x="492" y="678"/>
      <point x="539" y="622"/>
      <point x="539" y="538" type="curve" smooth="yes"/>
      <point x="539" y="520"/>
      <point x="537" y="504"/>
      <point x="534" y="489" type="curve"/>
      <point x="569" y="492" type="line"/>
      <point x="572" y="507"/>
      <point x="573" y="523"/>
      <point x="573" y="540" type="curve" smooth="yes"/>
      <point x="573" y="648"/>
      <point x="500" y="710"/>
      <point x="380" y="710" type="curve" smooth="yes"/>
      <point x="212" y="710"/>
      <point x="129" y="611"/>
      <point x="129" y="495" type="curve" smooth="yes"/>
      <point x="129" y="407"/>
      <point x="180" y="382"/>
      <point x="298" y="346" type="curve" smooth="yes"/>
      <point x="463" y="296"/>
      <point x="489" y="271"/>
      <point x="489" y="202" type="curve" smooth="yes"/>
      <point x="489" y="82"/>
      <point x="396" y="16"/>
      <point x="250" y="16" type="curve" smooth="yes"/>
      <point x="124" y="16"/>
      <point x="78" y="80"/>
      <point x="78" y="168" type="curve" smooth="yes"/>
      <point x="78" y="188"/>
      <point x="81" y="212"/>
      <point x="84" y="222" type="curve"/>
      <point x="50" y="219" type="line"/>
      <point x="46" y="205"/>
      <point x="44" y="183"/>
      <point x="44" y="164" type="curve" smooth="yes"/>
      <point x="44" y="56"/>
      <point x="113" y="-16"/>
    </contour>
  </outline>
</glyph>
<glyph name="percent" format="2">
  <advance width="600"/>
  <unicode hex="0025"/>
  <outline>
    <contour>
      <point x="173" y="398" type="curve" smooth="yes"/>
      <point x="263" y="398"/>
      <point x="337" y="494"/>
      <point x="337" y="610" type="curve" smooth="yes"/>
      <point x="337" y="678"/>
      <point x="301" y="718"/>
      <point x="241" y="718" type="curve" smooth="yes"/>
      <point x="151" y="718"/>
      <point x="77" y="622"/>
      <point x="77" y="506" type="curve" smooth="yes"/>
      <point x="77" y="438"/>
      <point x="113" y="398"/>
    </contour>
    <contour>
      <point x="179" y="426" type="curve" smooth="yes"/>
      <point x="132" y="426"/>
      <point x="107" y="450"/>
      <point x="107" y="508" type="curve" smooth="yes"/>
      <point x="107" y="606"/>
      <point x="161" y="690"/>
      <point x="235" y="690" type="curve" smooth="yes"/>
      <point x="282" y="690"/>
      <point x="307" y="666"/>
      <point x="307" y="608" type="curve" smooth="yes"/>
      <point x="307" y="510"/>
      <point x="253" y="426"/>
    </contour>
    <contour>
      <point x="4" y="0" type="line"/>
      <point x="36" y="0" type="line"/>
      <point x="634" y="710" type="line"/>
      <point x="602" y="710" type="line"/>
    </contour>
    <contour>
      <point x="397" y="-8" type="curve" smooth="yes"/>
      <point x="487" y="-8"/>
      <point x="561" y="88"/>
      <point x="561" y="204" type="curve" smooth="yes"/>
      <point x="561" y="272"/>
      <point x="525" y="312"/>
      <point x="465" y="312" type="curve" smooth="yes"/>
      <point x="375" y="312"/>
      <point x="301" y="216"/>
      <point x="301" y="100" type="curve" smooth="yes"/>
      <point x="301" y="32"/>
      <point x="337" y="-8"/>
    </contour>
    <contour>
      <point x="403" y="20" type="curve" smooth="yes"/>
      <point x="356" y="20"/>
      <point x="331" y="44"/>
      <point x="331" y="102" type="curve" smooth="yes"/>
      <point x="331" y="200"/>
      <point x="385" y="284"/>
      <point x="459" y="284" type="curve" smooth="yes"/>
      <point x="506" y="284"/>
      <point x="531" y="260"/>
      <point x="531" y="202" type="curve" smooth="yes"/>
      <point x="531" y="104"/>
      <point x="477" y="20"/>
    </contour>
  </outline>
</glyph>
<glyph name="ampersand" format="2">
  <advance width="600"/>
  <unicode hex="0026"/>
  <outline>
    <contour>
      <point x="200" y="-16" type="curve" smooth="yes"/>
      <point x="288" y="-16"/>
      <point x="360" y="18"/>
      <point x="416" y="72" type="curve"/>
      <point x="456" y="0" type="line"/>
      <point x="496" y="0" type="line"/>
      <point x="440" y="95" type="line"/>
      <point x="478" y="132"/>
      <point x="516" y="188"/>
      <point x="535" y="242" type="curve"/>
      <point x="502" y="246" type="line"/>
      <point x="486" y="198"/>
      <point x="458" y="156"/>
      <point x="425" y="120" type="curve"/>
      <point x="275" y="384" type="line"/>
      <point x="415" y="454"/>
      <point x="480" y="499"/>
      <point x="480" y="600" type="curve" smooth="yes"/>
      <point x="480" y="684"/>
      <point x="431" y="726"/>
      <point x="352" y="726" type="curve" smooth="yes"/>
      <point x="252" y="726"/>
      <point x="177" y="664"/>
      <point x="177" y="564" type="curve" smooth="yes"/>
      <point x="177" y="500"/>
      <point x="196" y="464"/>
      <point x="236" y="395" type="curve"/>
      <point x="83" y="318"/>
      <point x="27" y="250"/>
      <point x="27" y="138" type="curve" smooth="yes"/>
      <point x="27" y="32"/>
      <point x="93" y="-16"/>
    </contour>
    <contour>
      <point x="205" y="16" type="curve" smooth="yes"/>
      <point x="119" y="16"/>
      <point x="61" y="54"/>
      <point x="61" y="142" type="curve" smooth="yes"/>
      <point x="61" y="242"/>
      <point x="121" y="304"/>
      <point x="248" y="370" type="curve"/>
      <point x="401" y="98" type="line"/>
      <point x="352" y="47"/>
      <point x="280" y="16"/>
    </contour>
    <contour>
      <point x="263" y="408" type="curve"/>
      <point x="227" y="468"/>
      <point x="211" y="510"/>
      <point x="211" y="560" type="curve" smooth="yes"/>
      <point x="211" y="636"/>
      <point x="263" y="694"/>
      <point x="348" y="694" type="curve" smooth="yes"/>
      <point x="410" y="694"/>
      <point x="446" y="665"/>
      <point x="446" y="598" type="curve" smooth="yes"/>
      <point x="446" y="516"/>
      <point x="405" y="476"/>
    </contour>
  </outline>
</glyph>
<glyph name="quotesingle" format="2">
  <advance width="600"/>
  <unicode hex="0027"/>
  <outline>
    <contour>
      <point x="299" y="353" type="line"/>
      <point x="329" y="353" type="line"/>
      <point x="400" y="622" type="line"/>
      <point x="419" y="710" type="line"/>
      <point x="371" y="710" type="line"/>
      <point x="352" y="622" type="line"/>
    </contour>
  </outline>
</glyph>
<glyph name="parenleft" format="2">
  <advance width="600"/>
  <unicode hex="0028"/>
  <outline>
    <contour>
      <point x="336" y="-110" type="curve"/>
      <point x="368" y="-110" type="line"/>
      <point x="248" y="-24"/>
      <point x="191" y="90"/>
      <point x="191" y="238" type="curve" smooth="yes"/>
      <point x="191" y="450"/>
      <point x="301" y="620"/>
      <point x="551" y="750" type="curve"/>
      <point x="519" y="750" type="line"/>
      <point x="277" y="644"/>
      <point x="159" y="454"/>
      <point x="159" y="238" type="curve" smooth="yes"/>
      <point x="159" y="74"/>
      <point x="230" y="-40"/>
    </contour>
  </outline>
</glyph>
<glyph name="asterisk" format="2">
  <advance width="600"/>
  <unicode hex="002A"/>
  <outline>
    <contour>
      <point x="193" y="294" type="line"/>
      <point x="346" y="477" type="line"/>
      <point x="427" y="294" type="line"/>
      <point x="455" y="314" type="line"/>
      <point x="375" y="487" type="line"/>
      <point x="567" y="487" type="line"/>
      <point x="573" y="517" type="line"/>
      <point x="383" y="517" type="line"/>
      <point x="535" y="690" type="line"/>
      <point x="508" y="710" type="line"/>
      <point x="355" y="527" type="line"/>
      <point x="274" y="710" type="line"/>
      <point x="245" y="690" type="line"/>
      <point x="325" y="517" type="line"/>
      <point x="134" y="517" type="line"/>
      <point x="128" y="487" type="line"/>
      <point x="317" y="487" type="line"/>
      <point x="165" y="314" type="line"/>
    </contour>
  </outline>
</glyph>
<glyph name="plus" format="2">
  <advance width="600"/>
  <unicode hex="002B"/>
  <outline>
    <contour>
      <point x="238" y="46" type="line"/>
      <point x="268" y="46" type="line"/>
      <point x="370" y="524" type="line"/>
      <point x="340" y="524" type="line"/>
    </contour>
    <contour>
      <point x="61" y="271" type="line"/>
      <point x="541" y="271" type="line"/>
      <point x="547" y="299" type="line"/>
      <point x="67" y="299" type="line"/>
    </contour>
  </outline>
</glyph>
<glyph name="comma" format="2">
  <advance width="600"/>
  <unicode hex="002C"/>
  <outline>
    <contour>
      <point x="178" y="-162" type="line"/>
      <point x="206" y="-162" type="line"/>
      <point x="285" y="8" type="line"/>
      <point x="301" y="80" type="line"/>
      <point x="221" y="80" type="line"/>
      <point x="204" y="0" type="line"/>
      <point x="244" y="0" type="line"/>
    </contour>
  </outline>
</glyph>
<glyph name="period" format="2">
  <advance width="600"/>
  <unicode hex="002E"/>
  <outline>
    <contour>
      <point x="204" y="0" type="line"/>
      <point x="284" y="0" type="line"/>
      <point x="301" y="80" type="line"/>
      <point x="221" y="80" type="line"/>
    </contour>
  </outline>
</glyph>
<glyph name="zero" format="2">
  <advance width="600"/>
  <unicode hex="0030"/>
  <outline>
    <contour>
      <point x="148.2" y="90" type="line"/>
      <point x="175.12" y="84" type="line"/>
      <point x="579.6" y="620" type="line"/>
      <point x="552.68" y="626" type="line"/>
    </contour>
    <component base="zero.ss09" yxScale="0.18"/>
  </outline>
</glyph>
<glyph name="one" format="2">
  <advance width="600"/>
  <unicode hex="0031"/>
  <outline>
    <contour>
      <point x="24" y="0" type="line"/>
      <point x="464" y="0" type="line"/>
      <point x="470" y="28" type="line"/>
      <point x="266" y="28" type="line"/>
      <point x="277" y="14" type="line"/>
      <point x="425" y="710" type="line"/>
      <point x="399" y="710" type="line"/>
      <point x="378" y="610"/>
      <point x="344" y="590"/>
      <point x="269" y="590" type="curve" smooth="yes"/>
      <point x="206" y="590" type="line"/>
      <point x="201" y="564" type="line"/>
      <point x="362" y="564" type="line"/>
      <point x="245" y="14" type="line"/>
      <point x="262" y="28" type="line"/>
      <point x="30" y="28" type="line"/>
    </contour>
  </outline>
</glyph>
<glyph name="two" format="2">
  <advance width="600"/>
  <unicode hex="0032"/>
  <outline>
    <contour>
      <point x="13" y="0" type="curve"/>
      <point x="480" y="0" type="line"/>
      <point x="486" y="30" type="line"/>
      <point x="55" y="30" type="line"/>
      <point x="81" y="122"/>
      <point x="168" y="215"/>
      <point x="338" y="288" type="curve" smooth="yes"/>
      <point x="524" y="368"/>
      <point x="596" y="448"/>
      <point x="596" y="568" type="curve" smooth="yes"/>
      <point x="596" y="660"/>
      <point x="533" y="726"/>
      <point x="412" y="726" type="curve" smooth="yes"/>
      <point x="258" y="726"/>
      <point x="159" y="640"/>
      <point x="111" y="496" type="curve"/>
      <point x="145" y="493" type="line"/>
      <point x="193" y="627"/>
      <point x="282" y="694"/>
      <point x="404" y="694" type="curve" smooth="yes"/>
      <point x="509" y="694"/>
      <point x="562" y="643"/>
      <point x="562" y="562" type="curve" smooth="yes"/>
      <point x="562" y="459"/>
      <point x="501" y="391"/>
      <point x="326" y="315" type="curve" smooth="yes"/>
      <point x="126" y="228"/>
      <point x="40" y="130"/>
    </contour>
  </outline>
</glyph>
<glyph name="three" format="2">
  <advance width="600"/>
  <unicode hex="0033"/>
  <outline>
    <contour>
      <point x="237" y="-16" type="curve" smooth="yes"/>
      <point x="407" y="-16"/>
      <point x="526" y="76"/>
      <point x="526" y="228" type="curve" smooth="yes"/>
      <point x="526" y="313"/>
      <point x="463" y="376"/>
      <point x="354" y="392" type="curve"/>
      <point x="350" y="376" type="line"/>
      <point x="475" y="389"/>
      <point x="576" y="450"/>
      <point x="576" y="578" type="curve" smooth="yes"/>
      <point x="576" y="673"/>
      <point x="513" y="726"/>
      <point x="393" y="726" type="curve" smooth="yes"/>
      <point x="263" y="726"/>
      <point x="180" y="663"/>
      <point x="140" y="564" type="curve"/>
      <point x="174" y="561" type="line"/>
      <point x="207" y="643"/>
      <point x="284" y="694"/>
      <point x="386" y="694" type="curve" smooth="yes"/>
      <point x="498" y="694"/>
      <point x="542" y="650"/>
      <point x="542" y="570" type="curve" smooth="yes"/>
      <point x="542" y="459"/>
      <point x="438" y="397"/>
      <point x="313" y="397" type="curve" smooth="yes"/>
      <point x="246" y="397" type="line"/>
      <point x="240" y="367" type="line"/>
      <point x="307" y="367" type="line" smooth="yes"/>
      <point x="423" y="367"/>
      <point x="492" y="311"/>
      <point x="492" y="225" type="curve" smooth="yes"/>
      <point x="492" y="85"/>
      <point x="378" y="16"/>
      <point x="240" y="16" type="curve" smooth="yes"/>
      <point x="120" y="16"/>
      <point x="72" y="64"/>
      <point x="72" y="177" type="curve"/>
      <point x="41" y="174" type="line"/>
      <point x="41" y="43"/>
      <point x="107" y="-16"/>
    </contour>
  </outline>
</glyph>
<glyph name="four" format="2">
  <advance width="600"/>
  <unicode hex="0034"/>
  <outline>
    <contour>
      <point x="372" y="0" type="line"/>
      <point x="404" y="0" type="line"/>
      <point x="441" y="175" type="line"/>
      <point x="531" y="175" type="line"/>
      <point x="537" y="205" type="line"/>
      <point x="447" y="205" type="line"/>
      <point x="554" y="710" type="line"/>
      <point x="522" y="710" type="line"/>
      <point x="36" y="201" type="line"/>
      <point x="31" y="175" type="line"/>
      <point x="409" y="175" type="line"/>
    </contour>
    <contour>
      <point x="76" y="205" type="line"/>
      <point x="512" y="659" type="line"/>
      <point x="415" y="205" type="line"/>
    </contour>
  </outline>
</glyph>
<glyph name="five" format="2">
  <advance width="600"/>
  <unicode hex="0035"/>
  <outline>
    <contour>
      <point x="243" y="-16" type="curve" smooth="yes"/>
      <point x="425" y="-16"/>
      <point x="531" y="120"/>
      <point x="531" y="290" type="curve" smooth="yes"/>
      <point x="531" y="395"/>
      <point x="473" y="471"/>
      <point x="346" y="471" type="curve" smooth="yes"/>
      <point x="246" y="471"/>
      <point x="158" y="420"/>
      <point x="116" y="344" type="curve"/>
      <point x="123" y="336" type="line"/>
      <point x="236" y="680" type="line"/>
      <point x="582" y="680" type="line"/>
      <point x="588" y="710" type="line"/>
      <point x="214" y="710" type="line"/>
      <point x="89" y="327" type="line"/>
      <point x="128" y="327" type="line"/>
      <point x="174" y="395"/>
      <point x="258" y="439"/>
      <point x="340" y="439" type="curve" smooth="yes"/>
      <point x="456" y="439"/>
      <point x="497" y="376"/>
      <point x="497" y="286" type="curve" smooth="yes"/>
      <point x="497" y="132"/>
      <point x="399" y="16"/>
      <point x="247" y="16" type="curve" smooth="yes"/>
      <point x="127" y="16"/>
      <point x="79" y="60"/>
      <point x="79" y="176" type="curve"/>
      <point x="46" y="173" type="line"/>
      <point x="46" y="43"/>
      <point x="107" y="-16"/>
    </contour>
  </outline>
</glyph>
<glyph name="six" format="2">
  <advance width="600"/>
  <unicode hex="0036"/>
  <outline>
    <contour>
      <point x="255" y="-16" type="curve" smooth="yes"/>
      <point x="429" y="-16"/>
      <point x="536" y="105"/>
      <point x="536" y="296" type="curve" smooth="yes"/>
      <point x="536" y="403"/>
      <point x="475" y="472"/>
      <point x="359" y="472" type="curve" smooth="yes"/>
      <point x="231" y="472"/>
      <point x="142" y="404"/>
      <point x="98" y="302" type="curve"/>
      <point x="107" y="298" type="line"/>
      <point x="136" y="556"/>
      <point x="273" y="694"/>
      <point x="419" y="694" type="curve" smooth="yes"/>
      <point x="527" y="694"/>
      <point x="558" y="637"/>
      <point x="564" y="559" type="curve"/>
      <point x="598" y="563" type="line"/>
      <point x="590" y="661"/>
      <point x="541" y="726"/>
      <point x="427" y="726" type="curve" smooth="yes"/>
      <point x="223" y="726"/>
      <point x="65" y="518"/>
      <point x="65" y="194" type="curve" smooth="yes"/>
      <point x="65" y="48"/>
      <point x="140" y="-16"/>
    </contour>
    <contour>
      <point x="261" y="16" type="curve" smooth="yes"/>
      <point x="155" y="16"/>
      <point x="99" y="66"/>
      <point x="99" y="194" type="curve" smooth="yes"/>
      <point x="99" y="331"/>
      <point x="211" y="441"/>
      <point x="353" y="441" type="curve" smooth="yes"/>
      <point x="451" y="441"/>
      <point x="502" y="382"/>
      <point x="502" y="290" type="curve" smooth="yes"/>
      <point x="502" y="122"/>
      <point x="411" y="16"/>
    </contour>
  </outline>
</glyph>
<glyph name="seven" format="2">
  <advance width="600"/>
  <unicode hex="0037"/>
  <outline>
    <contour>
      <point x="178" y="0" type="curve"/>
      <point x="212" y="0" type="line"/>
      <point x="267" y="258"/>
      <point x="434" y="508"/>
      <point x="619" y="682" type="curve"/>
      <point x="625" y="710" type="line"/>
      <point x="165" y="710" type="line"/>
      <point x="159" y="680" type="line"/>
      <point x="580" y="680" type="line"/>
      <point x="388" y="500"/>
      <point x="229" y="240"/>
    </contour>
  </outline>
</glyph>
<glyph name="eight" format="2">
  <advance width="600"/>
  <unicode hex="0038"/>
  <outline>
    <contour>
      <point x="240" y="-16" type="curve" smooth="yes"/>
      <point x="424" y="-16"/>
      <point x="528" y="71"/>
      <point x="528" y="223" type="curve" smooth="yes"/>
      <point x="528" y="316"/>
      <point x="471" y="377"/>
      <point x="382" y="392" type="curve"/>
      <point x="377" y="378" type="line"/>
      <point x="481" y="400"/>
      <point x="563" y="457"/>
      <point x="563" y="584" type="curve" smooth="yes"/>
      <point x="563" y="670"/>
      <point x="501" y="726"/>
      <point x="392" y="726" type="curve" smooth="yes"/>
      <point x="234" y="726"/>
      <point x="133" y="648"/>
      <point x="133" y="512" type="curve" smooth="yes"/>
      <point x="133" y="423"/>
      <point x="182" y="396"/>
      <point x="260" y="378" type="curve"/>
      <point x="261" y="392" type="line"/>
      <point x="128" y="371"/>
      <point x="39" y="301"/>
      <point x="39" y="147" type="curve" smooth="yes"/>
      <point x="39" y="37"/>
      <point x="110" y="-16"/>
    </contour>
    <contour>
      <point x="247" y="16" type="curve" smooth="yes"/>
      <point x="131" y="16"/>
      <point x="73" y="55"/>
      <point x="73" y="151" type="curve" smooth="yes"/>
      <point x="73" y="297"/>
      <point x="171" y="370"/>
      <point x="316" y="370" type="curve" smooth="yes"/>
      <point x="436" y="370"/>
      <point x="493" y="313"/>
      <point x="493" y="221" type="curve" smooth="yes"/>
      <point x="493" y="83"/>
      <point x="391" y="16"/>
    </contour>
    <contour>
      <point x="323" y="400" type="curve" smooth="yes"/>
      <point x="207" y="400"/>
      <point x="167" y="439"/>
      <point x="167" y="516" type="curve" smooth="yes"/>
      <point x="167" y="624"/>
      <point x="251" y="694"/>
      <point x="385" y="694" type="curve" smooth="yes"/>
      <point x="492" y="694"/>
      <point x="529" y="649"/>
      <point x="529" y="578" type="curve" smooth="yes"/>
      <point x="529" y="465"/>
      <point x="438" y="400"/>
    </contour>
  </outline>
</glyph>
<glyph name="equal" format="2">
  <advance width="600"/>
  <unicode hex="003D"/>
  <outline>
    <contour>
      <point x="114" y="377" type="line"/>
      <point x="534" y="377" type="line"/>
      <point x="540" y="407" type="line"/>
      <point x="120" y="407" type="line"/>
    </contour>
    <contour>
      <point x="70" y="171" type="line"/>
      <point x="490" y="171" type="line"/>
      <point x="496" y="201" type="line"/>
      <point x="76" y="201" type="line"/>
    </contour>
  </outline>
</glyph>
<glyph name="greater" format="2">
  <advance width="600"/>
  <unicode hex="003E"/>
  <outline>
    <contour>
      <point x="34" y="55" type="line"/>
      <point x="523" y="275" type="line"/>
      <point x="531" y="309" type="line"/>
      <point x="134" y="529" type="line"/>
      <point x="128" y="501" type="line"/>
      <point x="516" y="288" type="line"/>
      <point x="518" y="300" type="line"/>
      <point x="40" y="87" type="line"/>
    </contour>
  </outline>
</glyph>
<glyph name="at" format="2">
  <advance width="600"/>
  <unicode hex="0040"/>
  <outline>
    <contour>
      <point x="362" y="-59" type="curve"/>
      <point x="354" y="-32" type="line"/>
      <point x="306" y="-58"/>
      <point x="254" y="-71"/>
      <point x="203" y="-71" type="curve" smooth="yes"/>
      <point x="100" y="-71"/>
      <point x="50" y="-6"/>
      <point x="50" y="124" type="curve" smooth="yes"/>
      <point x="50" y="412"/>
      <point x="218" y="680"/>
      <point x="410" y="680" type="curve" smooth="yes"/>
      <point x="518" y="680"/>
      <point x="567" y="614"/>
      <point x="567" y="478" type="curve" smooth="yes"/>
      <point x="567" y="294"/>
      <point x="494" y="111"/>
      <point x="429" y="111" type="curve" smooth="yes"/>
      <point x="406" y="111"/>
      <point x="394" y="129"/>
      <point x="394" y="163" type="curve" smooth="yes"/>
      <point x="394" y="211"/>
      <point x="400" y="233"/>
      <point x="479" y="490" type="curve"/>
      <point x="449" y="490" type="line"/>
      <point x="418" y="378" type="line"/>
      <point x="432" y="405" type="line"/>
      <point x="432" y="461"/>
      <point x="398" y="499"/>
      <point x="348" y="499" type="curve" smooth="yes"/>
      <point x="242" y="499"/>
      <point x="142" y="343"/>
      <point x="142" y="192" type="curve" smooth="yes"/>
      <point x="142" y="121"/>
      <point x="172" y="81"/>
      <point x="228" y="81" type="curve" smooth="yes"/>
      <point x="288" y="81"/>
      <point x="355" y="138"/>
      <point x="385" y="219" type="curve"/>
      <point x="376" y="220" type="line"/>
      <point x="372" y="206"/>
      <point x="368" y="176"/>
      <point x="368" y="157" type="curve" smooth="yes"/>
      <point x="369" y="107"/>
      <point x="388" y="81"/>
      <point x="422" y="81" type="curve" smooth="yes"/>
      <point x="518" y="81"/>
      <point x="599" y="280"/>
      <point x="599" y="484" type="curve" smooth="yes"/>
      <point x="599" y="628"/>
      <point x="539" y="710"/>
      <point x="417" y="710" type="curve" smooth="yes"/>
      <point x="183" y="710"/>
      <point x="18" y="423"/>
      <point x="18" y="118" type="curve" smooth="yes"/>
      <point x="18" y="-32"/>
      <point x="82" y="-103"/>
      <point x="198" y="-103" type="curve" smooth="yes"/>
      <point x="258" y="-103"/>
      <point x="312" y="-89"/>
    </contour>
    <contour>
      <point x="234" y="109" type="curve" smooth="yes"/>
      <point x="196" y="109"/>
      <point x="174" y="133"/>
      <point x="174" y="195" type="curve" smooth="yes"/>
      <point x="174" y="328"/>
      <point x="259" y="470"/>
      <point x="339" y="470" type="curve" smooth="yes"/>
      <point x="384" y="470"/>
      <point x="409" y="440"/>
      <point x="409" y="387" type="curve" smooth="yes"/>
      <point x="409" y="270"/>
      <point x="324" y="109"/>
    </contour>
  </outline>
</glyph>
<glyph name="A" format="2">
  <advance width="600"/>
  <unicode hex="0041"/>
  <anchor x="244" y="0" name="bottom"/>
  <anchor x="496" y="0" name="ogonek"/>
  <anchor x="395" y="710" name="top"/>
  <outline>
    <contour>
      <point x="-8" y="0" type="line"/>
      <point x="26" y="0" type="line"/>
      <point x="390" y="678" type="line"/>
      <point x="464" y="0" type="line"/>
      <point x="496" y="0" type="line"/>
      <point x="414" y="710" type="line"/>
      <point x="376" y="710" type="line"/>
    </contour>
    <contour>
      <point x="140" y="235" type="line"/>
      <point x="448" y="235" type="line"/>
      <point x="444" y="265" type="line"/>
      <point x="156" y="265" type="line"/>
    </contour>
  </outline>
</glyph>
<glyph name="B" format="2">
  <advance width="600"/>
  <unicode hex="0042"/>
  <anchor x="221" y="0" name="bottom"/>
  <anchor x="372" y="710" name="top"/>
  <outline>
    <contour>
      <point x="20" y="0" type="line"/>
      <point x="240" y="0" type="line" smooth="yes"/>
      <point x="400" y="0"/>
      <point x="508" y="84"/>
      <point x="508" y="212" type="curve" smooth="yes"/>
      <point x="508" y="304"/>
      <point x="446" y="360"/>
      <point x="336" y="360" type="curve"/>
      <point x="334" y="353" type="line"/>
      <point x="454" y="353"/>
      <point x="551" y="436"/>
      <point x="551" y="558" type="curve" smooth="yes"/>
      <point x="551" y="654"/>
      <point x="488" y="710"/>
      <point x="353" y="710" type="curve" smooth="yes"/>
      <point x="171" y="710" type="line"/>
    </contour>
    <contour>
      <point x="58" y="28" type="line"/>
      <point x="124" y="340" type="line"/>
      <point x="308" y="340" type="line" smooth="yes"/>
      <point x="418" y="340"/>
      <point x="474" y="297"/>
      <point x="474" y="209" type="curve" smooth="yes"/>
      <point x="474" y="97"/>
      <point x="377" y="28"/>
      <point x="243" y="28" type="curve" smooth="yes"/>
    </contour>
    <contour>
      <point x="130" y="368" type="line"/>
      <point x="197" y="682" type="line"/>
      <point x="347" y="682" type="line" smooth="yes"/>
      <point x="467" y="682"/>
      <point x="517" y="636"/>
      <point x="517" y="554" type="curve" smooth="yes"/>
      <point x="517" y="437"/>
      <point x="422" y="368"/>
      <point x="297" y="368" type="curve" smooth="yes"/>
    </contour>
  </outline>
</glyph>
<glyph name="C" format="2">
  <advance width="600"/>
  <unicode hex="0043"/>
  <anchor x="254" y="0" name="bottom"/>
  <anchor x="405" y="710" name="top"/>
  <outline>
    <contour>
      <point x="250" y="-16" type="curve" smooth="yes"/>
      <point x="380" y="-16"/>
      <point x="478" y="72"/>
      <point x="540" y="226" type="curve"/>
      <point x="506" y="230" type="line"/>
      <point x="454" y="94"/>
      <point x="368" y="16"/>
      <point x="256" y="16" type="curve" smooth="yes"/>
      <point x="154" y="16"/>
      <point x="94" y="81"/>
      <point x="94" y="235" type="curve" smooth="yes"/>
      <point x="94" y="470"/>
      <point x="238" y="694"/>
      <point x="402" y="694" type="curve" smooth="yes"/>
      <point x="510" y="694"/>
      <point x="558" y="630"/>
      <point x="558" y="494" type="curve"/>
      <point x="592" y="498" type="line"/>
      <point x="592" y="648"/>
      <point x="524" y="726"/>
      <point x="410" y="726" type="curve" smooth="yes"/>
      <point x="219" y="726"/>
      <point x="59" y="491"/>
      <point x="59" y="227" type="curve" smooth="yes"/>
      <point x="59" y="73"/>
      <point x="130" y="-16"/>
    </contour>
  </outline>
</glyph>
<glyph name="D" format="2">
  <advance width="600"/>
  <unicode hex="0044"/>
  <anchor x="218" y="0" name="bottom"/>
  <anchor x="183" y="355" name="center"/>
  <anchor x="320" y="710" name="top"/>
  <outline>
    <contour>
      <point x="18" y="0" type="line"/>
      <point x="158" y="0" type="line" smooth="yes"/>
      <point x="385" y="0"/>
      <point x="556" y="203"/>
      <point x="556" y="468" type="curve" smooth="yes"/>
      <point x="556" y="623"/>
      <point x="471" y="710"/>
      <point x="309" y="710" type="curve" smooth="yes"/>
      <point x="169" y="710" type="line"/>
    </contour>
    <contour>
      <point x="56" y="30" type="line"/>
      <point x="195" y="680" type="line"/>
      <point x="299" y="680" type="line" smooth="yes"/>
      <point x="445" y="680"/>
      <point x="522" y="610"/>
      <point x="522" y="462" type="curve" smooth="yes"/>
      <point x="522" y="216"/>
      <point x="368" y="30"/>
      <point x="160" y="30" type="curve" smooth="yes"/>
    </contour>
  </outline>
</glyph>
<glyph name="E" format="2">
  <advance width="600"/>
  <unicode hex="0045"/>
  <anchor x="240" y="0" name="bottom"/>
  <anchor x="454" y="0" name="ogonek"/>
  <anchor x="391" y="710" name="top"/>
  <outline>
    <contour>
      <point x="34" y="0" type="line"/>
      <point x="454" y="0" type="line"/>
      <point x="460" y="30" type="line"/>
      <point x="72" y="30" type="line"/>
      <point x="138" y="339" type="line"/>
      <point x="506" y="339" type="line"/>
      <point x="512" y="369" type="line"/>
      <point x="144" y="369" type="line"/>
      <point x="211" y="680" type="line"/>
      <point x="591" y="680" type="line"/>
      <point x="597" y="710" type="line"/>
      <point x="185" y="710" type="line"/>
    </contour>
  </outline>
</glyph>
<glyph name="F" format="2">
  <advance width="600"/>
  <unicode hex="0046"/>
  <anchor x="224" y="0" name="bottom"/>
  <anchor x="374" y="710" name="top"/>
  <outline>
    <contour>
      <point x="34" y="0" type="line"/>
      <point x="66" y="0" type="line"/>
      <point x="213" y="694" type="line"/>
      <point x="196" y="680" type="line"/>
      <point x="598" y="680" type="line"/>
      <point x="604" y="710" type="line"/>
      <point x="184" y="710" type="line"/>
    </contour>
    <contour>
      <point x="130" y="339" type="line"/>
      <point x="508" y="339" type="line"/>
      <point x="514" y="369" type="line"/>
      <point x="136" y="369" type="line"/>
    </contour>
  </outline>
</glyph>
<glyph name="G" format="2">
  <advance width="600"/>
  <unicode hex="0047"/>
  <anchor x="255" y="0" name="bottom"/>
  <anchor x="396" y="710" name="top"/>
  <outline>
    <contour>
      <point x="246" y="-16" type="curve" smooth="yes"/>
      <point x="361" y="-16"/>
      <point x="464" y="78"/>
      <point x="516" y="210" type="curve"/>
      <point x="506" y="212" type="line"/>
      <point x="461" y="0" type="line"/>
      <point x="489" y="0" type="line"/>
      <point x="560" y="330" type="line"/>
      <point x="324" y="330" type="line"/>
      <point x="318" y="302" type="line"/>
      <point x="524" y="302" type="line"/>
      <point x="484" y="134"/>
      <point x="371" y="16"/>
      <point x="250" y="16" type="curve" smooth="yes"/>
      <point x="146" y="16"/>
      <point x="94" y="90"/>
      <point x="94" y="224" type="curve" smooth="yes"/>
      <point x="94" y="472"/>
      <point x="234" y="694"/>
      <point x="396" y="694" type="curve" smooth="yes"/>
      <point x="510" y="694"/>
      <point x="557" y="626"/>
      <point x="557" y="496" type="curve"/>
      <point x="592" y="500" type="line"/>
      <point x="592" y="644"/>
      <point x="528" y="726"/>
      <point x="402" y="726" type="curve" smooth="yes"/>
      <point x="208" y="726"/>
      <point x="60" y="487"/>
      <point x="60" y="218" type="curve" smooth="yes"/>
      <point x="60" y="70"/>
      <point x="124" y="-16"/>
    </contour>
  </outline>
</glyph>
<glyph name="H" format="2">
  <advance width="600"/>
  <unicode hex="0048"/>
  <anchor x="244" y="0" name="bottom"/>
  <anchor x="363" y="560" name="center"/>
  <anchor x="395" y="710" name="top"/>
  <outline>
    <contour>
      <point x="24" y="0" type="line"/>
      <point x="56" y="0" type="line"/>
      <point x="132" y="359" type="line"/>
      <point x="121" y="349" type="line"/>
      <point x="514" y="349" type="line"/>
      <point x="508" y="359" type="line"/>
      <point x="432" y="0" type="line"/>
      <point x="464" y="0" type="line"/>
      <point x="615" y="710" type="line"/>
      <point x="583" y="710" type="line"/>
      <point x="511" y="370" type="line"/>
      <point x="521" y="379" type="line"/>
      <point x="128" y="379" type="line"/>
      <point x="135" y="370" type="line"/>
      <point x="207" y="710" type="line"/>
      <point x="175" y="710" type="line"/>
    </contour>
  </outline>
</glyph>
<glyph name="I" format="2">
  <advance width="600"/>
  <unicode hex="0049"/>
  <anchor x="244" y="0" name="bottom"/>
  <anchor x="454" y="0" name="ogonek"/>
  <anchor x="394" y="710" name="top"/>
  <outline>
    <contour>
      <point x="34" y="0" type="line"/>
      <point x="454" y="0" type="line"/>
      <point x="460" y="30" type="line"/>
      <point x="266" y="30" type="line"/>
      <point x="404" y="680" type="line"/>
      <point x="598" y="680" type="line"/>
      <point x="604" y="710" type="line"/>
      <point x="185" y="710" type="line"/>
      <point x="179" y="680" type="line"/>
      <point x="372" y="680" type="line"/>
      <point x="234" y="30" type="line"/>
      <point x="40" y="30" type="line"/>
    </contour>
  </outline>
</glyph>
<glyph name="J" format="2">
  <advance width="600"/>
  <unicode hex="004A"/>
  <anchor x="602" y="710" name="top"/>
  <outline>
    <contour>
      <point x="238" y="-16" type="curve" smooth="yes"/>
      <point x="386" y="-16"/>
      <point x="485" y="72"/>
      <point x="523" y="252" type="curve" smooth="yes"/>
      <point x="620" y="710" type="line"/>
      <point x="588" y="710" type="line"/>
      <point x="490" y="254" type="line" smooth="yes"/>
      <point x="456" y="98"/>
      <point x="372" y="16"/>
      <point x="244" y="16" type="curve" smooth="yes"/>
      <point x="144" y="16"/>
      <point x="95" y="68"/>
      <point x="95" y="168" type="curve" smooth="yes"/>
      <point x="95" y="188"/>
      <point x="98" y="212"/>
      <point x="102" y="236" type="curve"/>
      <point x="67" y="232" type="line"/>
      <point x="63" y="210"/>
      <point x="61" y="186"/>
      <point x="61" y="166" type="curve" smooth="yes"/>
      <point x="61" y="53"/>
      <point x="127" y="-16"/>
    </contour>
  </outline>
</glyph>
<glyph name="K" format="2">
  <advance width="600"/>
  <unicode hex="004B"/>
  <anchor x="222" y="0" name="bottom"/>
  <anchor x="373" y="710" name="top"/>
  <outline>
    <contour>
      <point x="80" y="226" type="line"/>
      <point x="616" y="710" type="line"/>
      <point x="574" y="710" type="line"/>
      <point x="86" y="268" type="line"/>
    </contour>
    <contour>
      <point x="12" y="0" type="line"/>
      <point x="44" y="0" type="line"/>
      <point x="195" y="710" type="line"/>
      <point x="163" y="710" type="line"/>
    </contour>
    <contour>
      <point x="439" y="0" type="line"/>
      <point x="476" y="0" type="line"/>
      <point x="267" y="410" type="line"/>
      <point x="243" y="388" type="line"/>
    </contour>
  </outline>
</glyph>
<glyph name="L" format="2">
  <advance width="600"/>
  <unicode hex="004C"/>
  <anchor x="241" y="0" name="bottom"/>
  <anchor x="155" y="382" name="center"/>
  <anchor x="201" y="710" name="top"/>
  <anchor x="367" y="530" name="topright"/>
  <outline>
    <contour>
      <point x="34" y="0" type="line"/>
      <point x="464" y="0" type="line"/>
      <point x="470" y="30" type="line"/>
      <point x="64" y="30" type="line"/>
      <point x="70" y="20" type="line"/>
      <point x="217" y="710" type="line"/>
      <point x="185" y="710" type="line"/>
    </contour>
  </outline>
</glyph>
<glyph name="M" format="2">
  <advance width="600"/>
  <unicode hex="004D"/>
  <anchor x="244" y="0" name="bottom"/>
  <anchor x="395" y="710" name="top"/>
  <outline>
    <contour>
      <point x="245" y="80" type="line"/>
      <point x="277" y="80" type="line"/>
      <point x="612" y="702" type="line"/>
      <point x="601" y="702" type="line"/>
      <point x="452" y="0" type="line"/>
      <point x="484" y="0" type="line"/>
      <point x="635" y="710" type="line"/>
      <point x="585" y="710" type="line"/>
      <point x="256" y="96" type="line"/>
      <point x="271" y="96" type="line"/>
      <point x="205" y="710" type="line"/>
      <point x="155" y="710" type="line"/>
      <point x="4" y="0" type="line"/>
      <point x="36" y="0" type="line"/>
      <point x="185" y="702" type="line"/>
      <point x="176" y="702" type="line"/>
    </contour>
  </outline>
</glyph>
<glyph name="N" format="2">
  <advance width="600"/>
  <unicode hex="004E"/>
  <anchor x="254" y="0" name="bottom"/>
  <anchor x="403" y="710" name="top"/>
  <outline>
    <contour>
      <point x="24" y="0" type="line"/>
      <point x="56" y="0" type="line"/>
      <point x="204" y="694" type="line"/>
      <point x="197" y="694" type="line"/>
      <point x="417" y="0" type="line"/>
      <point x="464" y="0" type="line"/>
      <point x="615" y="710" type="line"/>
      <point x="583" y="710" type="line"/>
      <point x="435" y="16" type="line"/>
      <point x="442" y="16" type="line"/>
      <point x="222" y="710" type="line"/>
      <point x="175" y="710" type="line"/>
    </contour>
  </outline>
</glyph>
<glyph name="O" format="2">
  <advance width="600"/>
  <unicode hex="004F"/>
  <anchor x="243" y="0" name="bottom"/>
  <anchor x="319" y="355" name="center"/>
  <anchor x="323" y="0" name="ogonek"/>
  <anchor x="394" y="710" name="top"/>
  <anchor x="462" y="710" name="topright"/>
  <outline>
    <contour>
      <point x="240" y="-16" type="curve" smooth="yes"/>
      <point x="438" y="-16"/>
      <point x="585" y="210"/>
      <point x="585" y="490" type="curve" smooth="yes"/>
      <point x="585" y="640"/>
      <point x="518" y="726"/>
      <point x="398" y="726" type="curve" smooth="yes"/>
      <point x="200" y="726"/>
      <point x="53" y="498"/>
      <point x="53" y="218" type="curve" smooth="yes"/>
      <point x="53" y="68"/>
      <point x="120" y="-16"/>
    </contour>
    <contour>
      <point x="247" y="16" type="curve" smooth="yes"/>
      <point x="135" y="16"/>
      <point x="87" y="84"/>
      <point x="87" y="220" type="curve" smooth="yes"/>
      <point x="87" y="494"/>
      <point x="225" y="694"/>
      <point x="391" y="694" type="curve" smooth="yes"/>
      <point x="503" y="694"/>
      <point x="550" y="624"/>
      <point x="550" y="488" type="curve" smooth="yes"/>
      <point x="550" y="214"/>
      <point x="413" y="16"/>
    </contour>
  </outline>
</glyph>
<glyph name="P" format="2">
  <advance width="600"/>
  <unicode hex="0050"/>
  <anchor x="219" y="0" name="bottom"/>
  <anchor x="370" y="710" name="top"/>
  <outline>
    <contour>
      <point x="30" y="0" type="line"/>
      <point x="62" y="0" type="line"/>
      <point x="127" y="305" type="line"/>
      <point x="288" y="305" type="line" smooth="yes"/>
      <point x="456" y="305"/>
      <point x="569" y="405"/>
      <point x="569" y="555" type="curve" smooth="yes"/>
      <point x="569" y="653"/>
      <point x="499" y="710"/>
      <point x="374" y="710" type="curve" smooth="yes"/>
      <point x="181" y="710" type="line"/>
    </contour>
    <contour>
      <point x="133" y="335" type="line"/>
      <point x="207" y="680" type="line"/>
      <point x="364" y="680" type="line" smooth="yes"/>
      <point x="480" y="680"/>
      <point x="535" y="635"/>
      <point x="535" y="552" type="curve" smooth="yes"/>
      <point x="535" y="418"/>
      <point x="438" y="335"/>
      <point x="290" y="335" type="curve" smooth="yes"/>
    </contour>
  </outline>
</glyph>
<glyph name="Q" format="2">
  <advance width="600"/>
  <unicode hex="0051"/>
  <anchor x="244" y="0" name="bottom"/>
  <anchor x="395" y="710" name="top"/>
  <outline>
    <contour>
      <point x="322" y="-119" type="line"/>
      <point x="352" y="-119" type="line"/>
      <point x="296" y="228" type="line"/>
      <point x="266" y="228" type="line"/>
    </contour>
    <contour>
      <point x="240" y="-16" type="curve" smooth="yes"/>
      <point x="438" y="-16"/>
      <point x="585" y="210"/>
      <point x="585" y="490" type="curve" smooth="yes"/>
      <point x="585" y="640"/>
      <point x="518" y="726"/>
      <point x="398" y="726" type="curve" smooth="yes"/>
      <point x="200" y="726"/>
      <point x="53" y="498"/>
      <point x="53" y="218" type="curve" smooth="yes"/>
      <point x="53" y="68"/>
      <point x="120" y="-16"/>
    </contour>
    <contour>
      <point x="247" y="16" type="curve" smooth="yes"/>
      <point x="135" y="16"/>
      <point x="87" y="84"/>
      <point x="87" y="220" type="curve" smooth="yes"/>
      <point x="87" y="494"/>
      <point x="225" y="694"/>
      <point x="391" y="694" type="curve" smooth="yes"/>
      <point x="503" y="694"/>
      <point x="550" y="624"/>
      <point x="550" y="488" type="curve" smooth="yes"/>
      <point x="550" y="214"/>
      <point x="413" y="16"/>
    </contour>
  </outline>
</glyph>
<glyph name="R" format="2">
  <advance width="600"/>
  <unicode hex="0052"/>
  <anchor x="241" y="0" name="bottom"/>
  <anchor x="388" y="710" name="top"/>
  <outline>
    <contour>
      <point x="29" y="0" type="line"/>
      <point x="61" y="0" type="line"/>
      <point x="127" y="311" type="line"/>
      <point x="325" y="311" type="line" smooth="yes"/>
      <point x="419" y="311"/>
      <point x="453" y="276"/>
      <point x="453" y="228" type="curve" smooth="yes"/>
      <point x="453" y="206"/>
      <point x="448" y="168"/>
      <point x="444" y="141" type="curve" smooth="yes"/>
      <point x="425" y="0" type="line"/>
      <point x="457" y="0" type="line"/>
      <point x="475" y="138" type="line" smooth="yes"/>
      <point x="478" y="163"/>
      <point x="485" y="206"/>
      <point x="485" y="228" type="curve" smooth="yes"/>
      <point x="485" y="300"/>
      <point x="430" y="332"/>
      <point x="354" y="332" type="curve"/>
      <point x="357" y="322" type="line"/>
      <point x="491" y="342"/>
      <point x="571" y="438"/>
      <point x="571" y="556" type="curve" smooth="yes"/>
      <point x="571" y="658"/>
      <point x="502" y="710"/>
      <point x="388" y="710" type="curve" smooth="yes"/>
      <point x="180" y="710" type="line"/>
    </contour>
    <contour>
      <point x="133" y="341" type="line"/>
      <point x="206" y="680" type="line"/>
      <point x="380" y="680" type="line" smooth="yes"/>
      <point x="484" y="680"/>
      <point x="537" y="641"/>
      <point x="537" y="553" type="curve" smooth="yes"/>
      <point x="537" y="443"/>
      <point x="461" y="341"/>
      <point x="307" y="341" type="curve" smooth="yes"/>
    </contour>
  </outline>
</glyph>
<glyph name="S" format="2">
  <advance width="600"/>
  <unicode hex="0053"/>
  <anchor x="252" y="0" name="bottom"/>
  <anchor x="383" y="710" name="top"/>
  <outline>
    <contour>
      <point x="246" y="-16" type="curve" smooth="yes"/>
      <point x="419" y="-16"/>
      <point x="522" y="70"/>
      <point x="522" y="206" type="curve" smooth="yes"/>
      <point x="522" y="292"/>
      <point x="484" y="334"/>
      <point x="310" y="382" type="curve" smooth="yes"/>
      <point x="190" y="415"/>
      <point x="162" y="442"/>
      <point x="162" y="504" type="curve" smooth="yes"/>
      <point x="162" y="616"/>
      <point x="236" y="694"/>
      <point x="374" y="694" type="curve" smooth="yes"/>
      <point x="492" y="694"/>
      <point x="539" y="638"/>
      <point x="539" y="554" type="curve" smooth="yes"/>
      <point x="539" y="536"/>
      <point x="537" y="520"/>
      <point x="534" y="505" type="curve"/>
      <point x="569" y="508" type="line"/>
      <point x="572" y="523"/>
      <point x="573" y="539"/>
      <point x="573" y="556" type="curve" smooth="yes"/>
      <point x="573" y="664"/>
      <point x="500" y="726"/>
      <point x="380" y="726" type="curve" smooth="yes"/>
      <point x="212" y="726"/>
      <point x="129" y="627"/>
      <point x="129" y="501" type="curve" smooth="yes"/>
      <point x="129" y="413"/>
      <point x="180" y="388"/>
      <point x="298" y="352" type="curve" smooth="yes"/>
      <point x="463" y="302"/>
      <point x="489" y="277"/>
      <point x="489" y="204" type="curve" smooth="yes"/>
      <point x="489" y="84"/>
      <point x="396" y="16"/>
      <point x="250" y="16" type="curve" smooth="yes"/>
      <point x="124" y="16"/>
      <point x="78" y="80"/>
      <point x="78" y="168" type="curve" smooth="yes"/>
      <point x="78" y="188"/>
      <point x="81" y="212"/>
      <point x="84" y="222" type="curve"/>
      <point x="50" y="219" type="line"/>
      <point x="46" y="205"/>
      <point x="44" y="183"/>
      <point x="44" y="164" type="curve" smooth="yes"/>
      <point x="44" y="56"/>
      <point x="113" y="-16"/>
    </contour>
  </outline>
</glyph>
<glyph name="T" format="2">
  <advance width="600"/>
  <unicode hex="0054"/>
  <anchor x="244" y="0" name="bottom"/>
  <anchor x="318" y="349" name="center"/>
  <anchor x="394" y="710" name="top"/>
  <outline>
    <contour>
      <point x="228" y="0" type="line"/>
      <point x="260" y="0" type="line"/>
      <point x="404" y="680" type="line"/>
      <point x="648" y="680" type="line"/>
      <point x="654" y="710" type="line"/>
      <point x="135" y="710" type="line"/>
      <point x="129" y="680" type="line"/>
      <point x="372" y="680" type="line"/>
    </contour>
  </outline>
</glyph>
<glyph name="U" format="2">
  <advance width="600"/>
  <unicode hex="0055"/>
  <anchor x="244" y="0" name="bottom"/>
  <anchor x="330" y="0" name="ogonek"/>
  <anchor x="395" y="710" name="top"/>
  <anchor x="582" y="710" name="topright"/>
  <outline>
    <contour>
      <point x="241" y="-16" type="curve" smooth="yes"/>
      <point x="382" y="-16"/>
      <point x="480" y="78"/>
      <point x="516" y="248" type="curve" smooth="yes"/>
      <point x="614" y="710" type="line"/>
      <point x="582" y="710" type="line"/>
      <point x="484" y="248" type="line" smooth="yes"/>
      <point x="453" y="104"/>
      <point x="368" y="16"/>
      <point x="246" y="16" type="curve" smooth="yes"/>
      <point x="146" y="16"/>
      <point x="99" y="62"/>
      <point x="99" y="164" type="curve" smooth="yes"/>
      <point x="99" y="190"/>
      <point x="105" y="230"/>
      <point x="114" y="272" type="curve" smooth="yes"/>
      <point x="207" y="710" type="line"/>
      <point x="175" y="710" type="line"/>
      <point x="82" y="271" type="line" smooth="yes"/>
      <point x="74" y="233"/>
      <point x="67" y="189"/>
      <point x="67" y="159" type="curve" smooth="yes"/>
      <point x="67" y="46"/>
      <point x="127" y="-16"/>
    </contour>
  </outline>
</glyph>
<glyph name="V" format="2">
  <advance width="600"/>
  <unicode hex="0056"/>
  <anchor x="244" y="0" name="bottom"/>
  <anchor x="395" y="710" name="top"/>
  <outline>
    <contour>
      <point x="226" y="0" type="line"/>
      <point x="262" y="0" type="line"/>
      <point x="655" y="710" type="line"/>
      <point x="622" y="710" type="line"/>
      <point x="242" y="20" type="line"/>
      <point x="250" y="20" type="line"/>
      <point x="166" y="710" type="line"/>
      <point x="135" y="710" type="line"/>
    </contour>
  </outline>
</glyph>
<glyph name="W" format="2">
  <advance width="600"/>
  <unicode hex="0057"/>
  <anchor x="244" y="0" name="bottom"/>
  <anchor x="395" y="710" name="top"/>
  <outline>
    <contour>
      <point x="78" y="0" type="line"/>
      <point x="124" y="0" type="line"/>
      <point x="383" y="618" type="line"/>
      <point x="367" y="618" type="line"/>
      <point x="364" y="0" type="line"/>
      <point x="410" y="0" type="line"/>
      <point x="655" y="710" type="line"/>
      <point x="623" y="710" type="line"/>
      <point x="385" y="16" type="line"/>
      <point x="391" y="16" type="line"/>
      <point x="396" y="630" type="line"/>
      <point x="360" y="630" type="line"/>
      <point x="103" y="16" type="line"/>
      <point x="109" y="16" type="line"/>
      <point x="167" y="710" type="line"/>
      <point x="135" y="710" type="line"/>
    </contour>
  </outline>
</glyph>
<glyph name="X" format="2">
  <advance width="600"/>
  <unicode hex="0058"/>
  <anchor x="244" y="0" name="bottom"/>
  <anchor x="395" y="710" name="top"/>
  <outline>
    <contour>
      <point x="4" y="0" type="line"/>
      <point x="43" y="0" type="line"/>
      <point x="315" y="336" type="line"/>
      <point x="450" y="0" type="line"/>
      <point x="484" y="0" type="line"/>
      <point x="342" y="353" type="line"/>
      <point x="627" y="710" type="line"/>
      <point x="588" y="710" type="line"/>
      <point x="326" y="382" type="line"/>
      <point x="197" y="710" type="line"/>
      <point x="163" y="710" type="line"/>
      <point x="300" y="363" type="line"/>
    </contour>
  </outline>
</glyph>
<glyph name="Y" format="2">
  <advance width="600"/>
  <unicode hex="0059"/>
  <anchor x="244" y="0" name="bottom"/>
  <anchor x="395" y="710" name="top"/>
  <outline>
    <contour>
      <point x="228" y="0" type="line"/>
      <point x="260" y="0" type="line"/>
      <point x="322" y="290" type="line"/>
      <point x="655" y="710" type="line"/>
      <point x="615" y="710" type="line"/>
      <point x="310" y="324" type="line"/>
      <point x="171" y="710" type="line"/>
      <point x="135" y="710" type="line"/>
      <point x="290" y="290" type="line"/>
    </contour>
  </outline>
</glyph>
<glyph name="Z" format="2">
  <advance width="600"/>
  <unicode hex="005A"/>
  <anchor x="244" y="0" name="bottom"/>
  <anchor x="395" y="710" name="top"/>
  <outline>
    <contour>
      <point x="6" y="0" type="line"/>
      <point x="482" y="0" type="line"/>
      <point x="488" y="30" type="line"/>
      <point x="48" y="30" type="line"/>
      <point x="619" y="680" type="line"/>
      <point x="625" y="710" type="line"/>
      <point x="173" y="710" type="line"/>
      <point x="167" y="680" type="line"/>
      <point x="582" y="680" type="line"/>
      <point x="12" y="30" type="line"/>
    </contour>
  </outline>
</glyph>
<glyph name="backslash" format="2">
  <advance width="600"/>
  <unicode hex="005C"/>
  <outline>
    <contour>
      <point x="384" y="-110" type="line"/>
      <point x="270" y="746" type="line"/>
      <point x="238" y="746" type="line"/>
      <point x="352" y="-110" type="line"/>
    </contour>
  </outline>
</glyph>
<glyph name="bracketright" format="2">
  <advance width="600"/>
  <unicode hex="005D"/>
  <outline>
    <contour>
      <point x="81" y="-110" type="line"/>
      <point x="360" y="-110" type="line"/>
      <point x="542" y="750" type="line"/>
      <point x="263" y="750" type="line"/>
      <point x="257" y="722" type="line"/>
      <point x="504" y="722" type="line"/>
      <point x="334" y="-82" type="line"/>
      <point x="87" y="-82" type="line"/>
    </contour>
  </outline>
</glyph>
<glyph name="asciicircum" format="2">
  <advance width="600"/>
  <unicode hex="005E"/>
  <outline>
    <contour>
      <point x="165" y="383" type="line"/>
      <point x="201" y="383" type="line"/>
      <point x="388" y="695" type="line"/>
      <point x="382" y="695" type="line"/>
      <point x="453" y="383" type="line"/>
      <point x="485" y="383" type="line"/>
      <point x="411" y="710" type="line"/>
      <point x="363" y="710" type="line"/>
    </contour>
  </outline>
</glyph>
<glyph name="underscore" format="2">
  <advance width="600"/>
  <unicode hex="005F"/>
  <outline>
    <contour>
      <point x="38" y="-30" type="line"/>
      <point x="438" y="-30" type="line"/>
      <point x="444" y="0" type="line"/>
      <point x="44" y="0" type="line"/>
    </contour>
  </outline>
</glyph>
<glyph name="a" format="2">
  <advance width="600"/>
  <unicode hex="0061"/>
  <anchor x="216" y="0" name="bottom"/>
  <anchor x="524" y="0" name="ogonek"/>
  <anchor x="328" y="530" name="top"/>
  <outline>
    <contour>
      <point x="194" y="-12" type="curve" smooth="yes"/>
      <point x="296" y="-12"/>
      <point x="364" y="60"/>
      <point x="415" y="191" type="curve"/>
      <point x="405" y="192" type="line"/>
      <point x="395" y="141"/>
      <point x="386" y="92"/>
      <point x="386" y="66" type="curve" smooth="yes"/>
      <point x="386" y="14"/>
      <point x="419" y="0"/>
      <point x="455" y="0" type="curve" smooth="yes"/>
      <point x="524" y="0" type="line"/>
      <point x="530" y="30" type="line"/>
      <point x="462" y="30" type="line" smooth="yes"/>
      <point x="427" y="30"/>
      <point x="414" y="43"/>
      <point x="414" y="72" type="curve" smooth="yes"/>
      <point x="414" y="97"/>
      <point x="419" y="136"/>
      <point x="426" y="168" type="curve" smooth="yes"/>
      <point x="503" y="530" type="line"/>
      <point x="325" y="530" type="line" smooth="yes"/>
      <point x="161" y="530"/>
      <point x="42" y="380"/>
      <point x="42" y="174" type="curve" smooth="yes"/>
      <point x="42" y="56"/>
      <point x="100" y="-12"/>
    </contour>
    <contour>
      <point x="198" y="18" type="curve" smooth="yes"/>
      <point x="122" y="18"/>
      <point x="74" y="70"/>
      <point x="74" y="182" type="curve" smooth="yes"/>
      <point x="74" y="364"/>
      <point x="183" y="502"/>
      <point x="319" y="502" type="curve" smooth="yes"/>
      <point x="467" y="502" type="line"/>
      <point x="429" y="316" type="line" smooth="yes"/>
      <point x="391" y="131"/>
      <point x="306" y="18"/>
    </contour>
  </outline>
</glyph>
<glyph name="b" format="2">
  <advance width="600"/>
  <unicode hex="0062"/>
  <anchor x="230" y="0" name="bottom"/>
  <anchor x="350" y="530" name="top"/>
  <outline>
    <contour>
      <point x="231" y="-12" type="curve" smooth="yes"/>
      <point x="404" y="-12"/>
      <point x="528" y="150"/>
      <point x="528" y="356" type="curve" smooth="yes"/>
      <point x="528" y="474"/>
      <point x="470" y="542"/>
      <point x="358" y="542" type="curve" smooth="yes"/>
      <point x="251" y="542"/>
      <point x="163" y="470"/>
      <point x="115" y="361" type="curve"/>
      <point x="129" y="356" type="line"/>
      <point x="205" y="710" type="line"/>
      <point x="175" y="710" type="line"/>
      <point x="24" y="0" type="line"/>
      <point x="48" y="0" type="line"/>
      <point x="80" y="144" type="line"/>
      <point x="75" y="140" type="line"/>
      <point x="87" y="55"/>
      <point x="137" y="-12"/>
    </contour>
    <contour>
      <point x="237" y="18" type="curve" smooth="yes"/>
      <point x="155" y="18"/>
      <point x="101" y="80"/>
      <point x="101" y="184" type="curve" smooth="yes"/>
      <point x="101" y="357"/>
      <point x="209" y="512"/>
      <point x="352" y="512" type="curve" smooth="yes"/>
      <point x="448" y="512"/>
      <point x="496" y="460"/>
      <point x="496" y="348" type="curve" smooth="yes"/>
      <point x="496" y="166"/>
      <point x="387" y="18"/>
    </contour>
  </outline>
</glyph>
<glyph name="c" format="2">
  <advance width="600"/>
  <unicode hex="0063"/>
  <anchor x="252" y="0" name="bottom"/>
  <anchor x="364" y="530" name="top"/>
  <outline>
    <contour>
      <point x="250" y="-12" type="curve" smooth="yes"/>
      <point x="368" y="-12"/>
      <point x="447" y="65"/>
      <point x="491" y="175" type="curve"/>
      <point x="460" y="178" type="line"/>
      <point x="420" y="78"/>
      <point x="344" y="18"/>
      <point x="256" y="18" type="curve" smooth="yes"/>
      <point x="160" y="18"/>
      <point x="114" y="80"/>
      <point x="114" y="185" type="curve" smooth="yes"/>
      <point x="114" y="362"/>
      <point x="226" y="512"/>
      <point x="364" y="512" type="curve" smooth="yes"/>
      <point x="450" y="512"/>
      <point x="497" y="459"/>
      <point x="497" y="363" type="curve"/>
      <point x="529" y="365" type="line"/>
      <point x="529" y="465"/>
      <point x="474" y="542"/>
      <point x="368" y="542" type="curve" smooth="yes"/>
      <point x="208" y="542"/>
      <point x="82" y="379"/>
      <point x="82" y="181" type="curve" smooth="yes"/>
      <point x="82" y="70"/>
      <point x="131" y="-12"/>
    </contour>
  </outline>
</glyph>
<glyph name="d" format="2">
  <advance width="600"/>
  <unicode hex="0064"/>
  <anchor x="264" y="0" name="bottom"/>
  <anchor x="545" y="618" name="center"/>
  <anchor x="384" y="530" name="top"/>
  <anchor x="602" y="530" name="topright"/>
  <outline>
    <contour>
      <point x="244" y="-12" type="curve" smooth="yes"/>
      <point x="339" y="-12"/>
      <point x="424" y="58"/>
      <point x="469" y="143" type="curve"/>
      <point x="467" y="148" type="line"/>
      <point x="437" y="0" type="line"/>
      <point x="460" y="0" type="line"/>
      <point x="611" y="710" type="line"/>
      <point x="581" y="710" type="line"/>
      <point x="512" y="386" type="line"/>
      <point x="516" y="390" type="line"/>
      <point x="510" y="477"/>
      <point x="454" y="542"/>
      <point x="362" y="542" type="curve" smooth="yes"/>
      <point x="202" y="542"/>
      <point x="76" y="378"/>
      <point x="76" y="176" type="curve" smooth="yes"/>
      <point x="76" y="57"/>
      <point x="135" y="-12"/>
    </contour>
    <contour>
      <point x="246" y="18" type="curve" smooth="yes"/>
      <point x="154" y="18"/>
      <point x="108" y="76"/>
      <point x="108" y="182" type="curve" smooth="yes"/>
      <point x="108" y="362"/>
      <point x="223" y="512"/>
      <point x="355" y="512" type="curve" smooth="yes"/>
      <point x="441" y="512"/>
      <point x="495" y="447"/>
      <point x="495" y="341" type="curve" smooth="yes"/>
      <point x="495" y="169"/>
      <point x="378" y="18"/>
    </contour>
  </outline>
</glyph>
<glyph name="e" format="2">
  <advance width="600"/>
  <unicode hex="0065"/>
  <anchor x="253" y="0" name="bottom"/>
  <anchor x="385" y="25" name="ogonek"/>
  <anchor x="361" y="530" name="top"/>
  <outline>
    <contour>
      <point x="245" y="-12" type="curve" smooth="yes"/>
      <point x="363" y="-12"/>
      <point x="445" y="49"/>
      <point x="489" y="143" type="curve"/>
      <point x="456" y="145" type="line"/>
      <point x="420" y="69"/>
      <point x="351" y="18"/>
      <point x="251" y="18" type="curve" smooth="yes"/>
      <point x="157" y="18"/>
      <point x="104" y="71"/>
      <point x="104" y="187" type="curve" smooth="yes"/>
      <point x="104" y="368"/>
      <point x="215" y="512"/>
      <point x="357" y="512" type="curve" smooth="yes"/>
      <point x="457" y="512"/>
      <point x="500" y="452"/>
      <point x="500" y="354" type="curve" smooth="yes"/>
      <point x="500" y="333"/>
      <point x="498" y="311"/>
      <point x="494" y="288" type="curve"/>
      <point x="108" y="288" type="line"/>
      <point x="102" y="260" type="line"/>
      <point x="521" y="260" type="line"/>
      <point x="527" y="289"/>
      <point x="532" y="324"/>
      <point x="532" y="354" type="curve" smooth="yes"/>
      <point x="532" y="461"/>
      <point x="483" y="542"/>
      <point x="363" y="542" type="curve" smooth="yes"/>
      <point x="185" y="542"/>
      <point x="72" y="379"/>
      <point x="72" y="183" type="curve" smooth="yes"/>
      <point x="72" y="68"/>
      <point x="126" y="-12"/>
    </contour>
  </outline>
</glyph>
<glyph name="f" format="2">
  <advance width="600"/>
  <unicode hex="0066"/>
  <anchor x="221" y="0" name="bottom"/>
  <anchor x="371" y="710" name="top"/>
  <outline>
    <contour>
      <point x="-16" y="-150" type="line"/>
      <point x="193" y="-150" type="line"/>
      <point x="351" y="597" type="line" smooth="yes"/>
      <point x="362" y="650"/>
      <point x="394" y="682"/>
      <point x="458" y="682" type="curve" smooth="yes"/>
      <point x="629" y="682" type="line"/>
      <point x="634" y="710" type="line"/>
      <point x="459" y="710" type="line" smooth="yes"/>
      <point x="379" y="710"/>
      <point x="337" y="669"/>
      <point x="322" y="600" type="curve" smooth="yes"/>
      <point x="166" y="-136" type="line"/>
      <point x="183" y="-122" type="line"/>
      <point x="-10" y="-122" type="line"/>
    </contour>
    <contour>
      <point x="110" y="502" type="line"/>
      <point x="590" y="502" type="line"/>
      <point x="596" y="530" type="line"/>
      <point x="116" y="530" type="line"/>
    </contour>
  </outline>
</glyph>
<glyph name="g" format="2">
  <advance width="600"/>
  <unicode hex="0067"/>
  <anchor x="212" y="-150" name="bottom"/>
  <anchor x="356" y="530" name="top"/>
  <outline>
    <contour>
      <point x="214" y="58" type="curve" smooth="yes"/>
      <point x="378" y="58"/>
      <point x="473" y="222"/>
      <point x="473" y="352" type="curve" smooth="yes"/>
      <point x="473" y="472"/>
      <point x="420" y="542"/>
      <point x="312" y="542" type="curve" smooth="yes"/>
      <point x="148" y="542"/>
      <point x="53" y="378"/>
      <point x="53" y="248" type="curve" smooth="yes"/>
      <point x="53" y="128"/>
      <point x="106" y="58"/>
    </contour>
    <contour>
      <point x="220" y="88" type="curve" smooth="yes"/>
      <point x="126" y="88"/>
      <point x="85" y="140"/>
      <point x="85" y="254" type="curve" smooth="yes"/>
      <point x="85" y="370"/>
      <point x="172" y="512"/>
      <point x="306" y="512" type="curve" smooth="yes"/>
      <point x="400" y="512"/>
      <point x="441" y="460"/>
      <point x="441" y="346" type="curve" smooth="yes"/>
      <point x="441" y="230"/>
      <point x="354" y="88"/>
    </contour>
    <contour>
      <point x="400" y="502" type="line"/>
      <point x="600" y="502" type="line"/>
      <point x="606" y="530" type="line"/>
      <point x="376" y="530" type="line"/>
    </contour>
    <contour>
      <point x="95" y="-150" type="curve" smooth="yes"/>
      <point x="462" y="-150" type="line"/>
      <point x="468" y="-122" type="line"/>
      <point x="101" y="-122" type="line" smooth="yes"/>
      <point x="37" y="-122"/>
      <point x="13" y="-95"/>
      <point x="13" y="-58" type="curve" smooth="yes"/>
      <point x="13" y="-3"/>
      <point x="54" y="60"/>
      <point x="116" y="112" type="curve"/>
      <point x="96" y="130" type="line"/>
      <point x="32" y="76"/>
      <point x="-17" y="2"/>
      <point x="-17" y="-64" type="curve" smooth="yes"/>
      <point x="-17" y="-120"/>
      <point x="23" y="-150"/>
    </contour>
  </outline>
</glyph>
<glyph name="h" format="2">
  <advance width="600"/>
  <unicode hex="0068"/>
  <anchor x="231" y="0" name="bottom"/>
  <anchor x="232" y="618" name="center"/>
  <anchor x="217" y="710" name="top"/>
  <outline>
    <contour>
      <point x="49" y="0" type="line"/>
      <point x="79" y="0" type="line"/>
      <point x="146" y="317" type="line" smooth="yes"/>
      <point x="170" y="431"/>
      <point x="252" y="512"/>
      <point x="358" y="512" type="curve" smooth="yes"/>
      <point x="455" y="512"/>
      <point x="489" y="464"/>
      <point x="489" y="406" type="curve" smooth="yes"/>
      <point x="489" y="366"/>
      <point x="483" y="340"/>
      <point x="475" y="302" type="curve" smooth="yes"/>
      <point x="410" y="0" type="line"/>
      <point x="440" y="0" type="line"/>
      <point x="503" y="298" type="line" smooth="yes"/>
      <point x="511" y="336"/>
      <point x="519" y="370"/>
      <point x="519" y="410" type="curve" smooth="yes"/>
      <point x="519" y="485"/>
      <point x="474" y="542"/>
      <point x="368" y="542" type="curve" smooth="yes"/>
      <point x="276" y="542"/>
      <point x="187" y="486"/>
      <point x="151" y="380" type="curve"/>
      <point x="159" y="380" type="line"/>
      <point x="229" y="710" type="line"/>
      <point x="199" y="710" type="line"/>
    </contour>
  </outline>
</glyph>
<glyph name="k" format="2">
  <advance width="600"/>
  <unicode hex="006B"/>
  <anchor x="248" y="0" name="bottom"/>
  <anchor x="200" y="710" name="top"/>
  <outline>
    <contour>
      <point x="34" y="0" type="line"/>
      <point x="64" y="0" type="line"/>
      <point x="215" y="710" type="line"/>
      <point x="185" y="710" type="line"/>
    </contour>
    <contour>
      <point x="438" y="0" type="line"/>
      <point x="474" y="0" type="line"/>
      <point x="278" y="311" type="line"/>
      <point x="254" y="293" type="line"/>
    </contour>
    <contour>
      <point x="86" y="150" type="line"/>
      <point x="568" y="530" type="line"/>
      <point x="526" y="530" type="line"/>
      <point x="94" y="190" type="line"/>
    </contour>
  </outline>
</glyph>
<glyph name="l" format="2">
  <advance width="600"/>
  <unicode hex="006C"/>
  <anchor x="248" y="0" name="bottom"/>
  <anchor x="318" y="356" name="center"/>
  <anchor x="375" y="710" name="top"/>
  <anchor x="447" y="530" name="topright"/>
  <outline>
    <contour>
      <point x="311" y="0" type="curve" smooth="yes"/>
      <point x="494" y="0" type="line"/>
      <point x="500" y="28" type="line"/>
      <point x="315" y="28" type="line" smooth="yes"/>
      <point x="278" y="28"/>
      <point x="265" y="42"/>
      <point x="265" y="62" type="curve" smooth="yes"/>
      <point x="265" y="85"/>
      <point x="271" y="114"/>
      <point x="279" y="150" type="curve" smooth="yes"/>
      <point x="399" y="710" type="line"/>
      <point x="145" y="710" type="line"/>
      <point x="140" y="682" type="line"/>
      <point x="377" y="682" type="line"/>
      <point x="366" y="696" type="line"/>
      <point x="249" y="148" type="line" smooth="yes"/>
      <point x="242" y="114"/>
      <point x="235" y="84"/>
      <point x="235" y="56" type="curve" smooth="yes"/>
      <point x="235" y="17"/>
      <point x="259" y="0"/>
    </contour>
  </outline>
</glyph>
<glyph name="m" format="2">
  <advance width="600"/>
  <unicode hex="006D"/>
  <anchor x="244" y="0" name="bottom"/>
  <anchor x="357" y="530" name="top"/>
  <outline>
    <contour>
      <point x="-6" y="0" type="line"/>
      <point x="24" y="0" type="line"/>
      <point x="96" y="340" type="line" smooth="yes"/>
      <point x="116" y="433"/>
      <point x="181" y="512"/>
      <point x="245" y="512" type="curve" smooth="yes"/>
      <point x="289" y="512"/>
      <point x="311" y="480"/>
      <point x="311" y="420" type="curve" smooth="yes"/>
      <point x="311" y="397"/>
      <point x="307" y="370"/>
      <point x="301" y="340" type="curve" smooth="yes"/>
      <point x="229" y="0" type="line"/>
      <point x="259" y="0" type="line"/>
      <point x="331" y="340" type="line" smooth="yes"/>
      <point x="351" y="434"/>
      <point x="420" y="512"/>
      <point x="486" y="512" type="curve" smooth="yes"/>
      <point x="527" y="512"/>
      <point x="549" y="487"/>
      <point x="549" y="434" type="curve" smooth="yes"/>
      <point x="549" y="412"/>
      <point x="546" y="384"/>
      <point x="539" y="352" type="curve" smooth="yes"/>
      <point x="464" y="0" type="line"/>
      <point x="494" y="0" type="line"/>
      <point x="568" y="348" type="line" smooth="yes"/>
      <point x="573" y="372"/>
      <point x="580" y="410"/>
      <point x="580" y="440" type="curve" smooth="yes"/>
      <point x="580" y="509"/>
      <point x="550" y="542"/>
      <point x="491" y="542" type="curve" smooth="yes"/>
      <point x="419" y="542"/>
      <point x="359" y="482"/>
      <point x="319" y="364" type="curve"/>
      <point x="330" y="364" type="line"/>
      <point x="334" y="389"/>
      <point x="336" y="413"/>
      <point x="336" y="432" type="curve" smooth="yes"/>
      <point x="336" y="504"/>
      <point x="310" y="542"/>
      <point x="253" y="542" type="curve" smooth="yes"/>
      <point x="185" y="542"/>
      <point x="135" y="487"/>
      <point x="97" y="382" type="curve"/>
      <point x="105" y="380" type="line"/>
      <point x="135" y="530" type="line"/>
      <point x="107" y="530" type="line"/>
    </contour>
  </outline>
</glyph>
<glyph name="o" format="2">
  <advance width="600"/>
  <unicode hex="006F"/>
  <anchor x="244" y="0" name="bottom"/>
  <anchor x="300" y="265" name="center"/>
  <anchor x="319" y="0" name="ogonek"/>
  <anchor x="356" y="530" name="top"/>
  <anchor x="420" y="530" name="topright"/>
  <outline>
    <contour>
      <point x="241" y="-12" type="curve" smooth="yes"/>
      <point x="425" y="-12"/>
      <point x="532" y="156"/>
      <point x="532" y="352" type="curve" smooth="yes"/>
      <point x="532" y="472"/>
      <point x="467" y="542"/>
      <point x="359" y="542" type="curve" smooth="yes"/>
      <point x="175" y="542"/>
      <point x="68" y="374"/>
      <point x="68" y="178" type="curve" smooth="yes"/>
      <point x="68" y="58"/>
      <point x="133" y="-12"/>
    </contour>
    <contour>
      <point x="247" y="18" type="curve" smooth="yes"/>
      <point x="153" y="18"/>
      <point x="100" y="70"/>
      <point x="100" y="184" type="curve" smooth="yes"/>
      <point x="100" y="370"/>
      <point x="203" y="512"/>
      <point x="353" y="512" type="curve" smooth="yes"/>
      <point x="447" y="512"/>
      <point x="500" y="460"/>
      <point x="500" y="346" type="curve" smooth="yes"/>
      <point x="500" y="160"/>
      <point x="397" y="18"/>
    </contour>
  </outline>
</glyph>
<glyph name="p" format="2">
  <advance width="600"/>
  <unicode hex="0070"/>
  <anchor x="236" y="0" name="bottom"/>
  <anchor x="349" y="530" name="top"/>
  <outline>
    <contour>
      <point x="-8" y="-150" type="line"/>
      <point x="22" y="-150" type="line"/>
      <point x="91" y="173" type="line"/>
      <point x="82" y="162" type="line"/>
      <point x="77" y="74"/>
      <point x="142" y="-12"/>
      <point x="234" y="-12" type="curve" smooth="yes"/>
      <point x="404" y="-12"/>
      <point x="528" y="149"/>
      <point x="528" y="356" type="curve" smooth="yes"/>
      <point x="528" y="472"/>
      <point x="464" y="542"/>
      <point x="360" y="542" type="curve" smooth="yes"/>
      <point x="256" y="542"/>
      <point x="170" y="474"/>
      <point x="120" y="360" type="curve"/>
      <point x="128" y="355" type="line"/>
      <point x="163" y="530" type="line"/>
      <point x="137" y="530" type="line"/>
    </contour>
    <contour>
      <point x="240" y="18" type="curve" smooth="yes"/>
      <point x="162" y="18"/>
      <point x="101" y="80"/>
      <point x="101" y="184" type="curve" smooth="yes"/>
      <point x="101" y="357"/>
      <point x="212" y="512"/>
      <point x="352" y="512" type="curve" smooth="yes"/>
      <point x="446" y="512"/>
      <point x="496" y="460"/>
      <point x="496" y="348" type="curve" smooth="yes"/>
      <point x="496" y="166"/>
      <point x="384" y="18"/>
    </contour>
  </outline>
</glyph>
<glyph name="q" format="2">
  <advance width="600"/>
  <unicode hex="0071"/>
  <anchor x="364" y="0" name="bottom"/>
  <anchor x="476" y="530" name="top"/>
  <outline>
    <contour>
      <point x="428" y="-150" type="line"/>
      <point x="572" y="530" type="line"/>
      <point x="546" y="530" type="line"/>
      <point x="507" y="355" type="line"/>
      <point x="518" y="360" type="line"/>
      <point x="518" y="472"/>
      <point x="456" y="542"/>
      <point x="358" y="542" type="curve" smooth="yes"/>
      <point x="198" y="542"/>
      <point x="76" y="380"/>
      <point x="76" y="174" type="curve" smooth="yes"/>
      <point x="76" y="58"/>
      <point x="131" y="-12"/>
      <point x="238" y="-12" type="curve" smooth="yes"/>
      <point x="338" y="-12"/>
      <point x="440" y="74"/>
      <point x="472" y="162" type="curve"/>
      <point x="467" y="173" type="line"/>
      <point x="398" y="-150" type="line"/>
    </contour>
    <contour>
      <point x="244" y="18" type="curve" smooth="yes"/>
      <point x="152" y="18"/>
      <point x="108" y="72"/>
      <point x="108" y="182" type="curve" smooth="yes"/>
      <point x="108" y="362"/>
      <point x="221" y="512"/>
      <point x="353" y="512" type="curve" smooth="yes"/>
      <point x="443" y="512"/>
      <point x="493" y="447"/>
      <point x="493" y="348" type="curve" smooth="yes"/>
      <point x="493" y="171"/>
      <point x="376" y="18"/>
    </contour>
  </outline>
</glyph>
<glyph name="r" format="2">
  <advance width="600"/>
  <unicode hex="0072"/>
  <anchor x="202" y="0" name="bottom"/>
  <anchor x="365" y="530" name="top"/>
  <outline>
    <contour>
      <point x="35" y="0" type="line"/>
      <point x="394" y="0" type="line"/>
      <point x="399" y="28" type="line"/>
      <point x="223" y="28" type="line"/>
      <point x="286" y="328" type="line" smooth="yes"/>
      <point x="305" y="418"/>
      <point x="380" y="500"/>
      <point x="460" y="500" type="curve" smooth="yes"/>
      <point x="560" y="500" type="line"/>
      <point x="566" y="530" type="line"/>
      <point x="472" y="530" type="line" smooth="yes"/>
      <point x="391" y="530"/>
      <point x="340" y="486"/>
      <point x="295" y="399" type="curve"/>
      <point x="298" y="396" type="line"/>
      <point x="323" y="530" type="line"/>
      <point x="146" y="530" type="line"/>
      <point x="140" y="502" type="line"/>
      <point x="293" y="502" type="line"/>
      <point x="193" y="28" type="line"/>
      <point x="40" y="28" type="line"/>
    </contour>
  </outline>
</glyph>
<glyph name="s" format="2">
  <advance width="600"/>
  <unicode hex="0073"/>
  <anchor x="304" y="0" name="bottom"/>
  <anchor x="406" y="530" name="top"/>
  <outline>
    <contour>
      <point x="278" y="-12" type="curve" smooth="yes"/>
      <point x="408" y="-12"/>
      <point x="491" y="46"/>
      <point x="491" y="148" type="curve" smooth="yes"/>
      <point x="491" y="228"/>
      <point x="458" y="264"/>
      <point x="310" y="312" type="curve" smooth="yes"/>
      <point x="224" y="340"/>
      <point x="214" y="366"/>
      <point x="214" y="410" type="curve" smooth="yes"/>
      <point x="214" y="458"/>
      <point x="250" y="502"/>
      <point x="322" y="502" type="curve" smooth="yes"/>
      <point x="528" y="502" type="line"/>
      <point x="534" y="530" type="line"/>
      <point x="326" y="530" type="line" smooth="yes"/>
      <point x="227" y="530"/>
      <point x="184" y="468"/>
      <point x="184" y="408" type="curve" smooth="yes"/>
      <point x="184" y="352"/>
      <point x="206" y="316"/>
      <point x="292" y="287" type="curve" smooth="yes"/>
      <point x="442" y="237"/>
      <point x="460" y="210"/>
      <point x="460" y="146" type="curve" smooth="yes"/>
      <point x="460" y="62"/>
      <point x="396" y="18"/>
      <point x="282" y="18" type="curve" smooth="yes"/>
      <point x="167" y="18"/>
      <point x="100" y="65"/>
      <point x="88" y="159" type="curve"/>
      <point x="57" y="155" type="line"/>
      <point x="71" y="45"/>
      <point x="158" y="-12"/>
    </contour>
  </outline>
</glyph>
<glyph name="t" format="2">
  <advance width="600"/>
  <unicode hex="0074"/>
  <anchor x="321" y="0" name="bottom"/>
  <anchor x="281" y="325" name="center"/>
  <anchor x="315" y="530" name="top"/>
  <anchor x="421" y="596" name="topright"/>
  <outline>
    <contour>
      <point x="281" y="0" type="curve" smooth="yes"/>
      <point x="474" y="0" type="line"/>
      <point x="480" y="28" type="line"/>
      <point x="285" y="28" type="line" smooth="yes"/>
      <point x="248" y="28"/>
      <point x="235" y="42"/>
      <point x="235" y="62" type="curve" smooth="yes"/>
      <point x="235" y="85"/>
      <point x="241" y="114"/>
      <point x="249" y="150" type="curve" smooth="yes"/>
      <point x="357" y="654" type="line"/>
      <point x="327" y="654" type="line"/>
      <point x="219" y="148" type="line" smooth="yes"/>
      <point x="212" y="114"/>
      <point x="205" y="84"/>
      <point x="205" y="56" type="curve" smooth="yes"/>
      <point x="205" y="17"/>
      <point x="229" y="0"/>
    </contour>
    <contour>
      <point x="90" y="502" type="line"/>
      <point x="580" y="502" type="line"/>
      <point x="586" y="530" type="line"/>
      <point x="96" y="530" type="line"/>
    </contour>
  </outline>
</glyph>
<glyph name="u" format="2">
  <advance width="600"/>
  <unicode hex="0075"/>
  <anchor x="243" y="0" name="bottom"/>
  <anchor x="443" y="0" name="ogonek"/>
  <anchor x="356" y="530" name="top"/>
  <anchor x="526" y="530" name="topright"/>
  <outline>
    <contour>
      <point x="219" y="-12" type="curve" smooth="yes"/>
      <point x="332" y="-12"/>
      <point x="418" y="46"/>
      <point x="450" y="145" type="curve"/>
      <point x="445" y="145" type="line"/>
      <point x="416" y="0" type="line"/>
      <point x="443" y="0" type="line"/>
      <point x="556" y="530" type="line"/>
      <point x="526" y="530" type="line"/>
      <point x="458" y="213" type="line" smooth="yes"/>
      <point x="433" y="94"/>
      <point x="346" y="18"/>
      <point x="226" y="18" type="curve" smooth="yes"/>
      <point x="142" y="18"/>
      <point x="108" y="51"/>
      <point x="108" y="108" type="curve" smooth="yes"/>
      <point x="108" y="152"/>
      <point x="118" y="208"/>
      <point x="126" y="244" type="curve" smooth="yes"/>
      <point x="187" y="530" type="line"/>
      <point x="157" y="530" type="line"/>
      <point x="100" y="263" type="line" smooth="yes"/>
      <point x="86" y="195"/>
      <point x="78" y="152"/>
      <point x="78" y="106" type="curve" smooth="yes"/>
      <point x="78" y="28"/>
      <point x="126" y="-12"/>
    </contour>
  </outline>
</glyph>
<glyph name="v" format="2">
  <advance width="600"/>
  <unicode hex="0076"/>
  <anchor x="244" y="0" name="bottom"/>
  <anchor x="356" y="530" name="top"/>
  <outline>
    <contour>
      <point x="225" y="0" type="line"/>
      <point x="263" y="0" type="line"/>
      <point x="596" y="530" type="line"/>
      <point x="562" y="530" type="line"/>
      <point x="248" y="28" type="line"/>
      <point x="146" y="530" type="line"/>
      <point x="116" y="530" type="line"/>
    </contour>
  </outline>
</glyph>
<glyph name="w" format="2">
  <advance width="600"/>
  <unicode hex="0077"/>
  <anchor x="243" y="0" name="bottom"/>
  <anchor x="356" y="530" name="top"/>
  <outline>
    <contour>
      <point x="83" y="0" type="line"/>
      <point x="119" y="0" type="line"/>
      <point x="331" y="414" type="line"/>
      <point x="367" y="0" type="line"/>
      <point x="403" y="0" type="line"/>
      <point x="626" y="530" type="line"/>
      <point x="593" y="530" type="line"/>
      <point x="391" y="30" type="line"/>
      <point x="356" y="460" type="line"/>
      <point x="326" y="460" type="line"/>
      <point x="107" y="30" type="line"/>
      <point x="117" y="530" type="line"/>
      <point x="86" y="530" type="line"/>
    </contour>
  </outline>
</glyph>
<glyph name="x" format="2">
  <advance width="600"/>
  <unicode hex="0078"/>
  <anchor x="244" y="0" name="bottom"/>
  <anchor x="356" y="530" name="top"/>
  <outline>
    <contour>
      <point x="4" y="0" type="line"/>
      <point x="42" y="0" type="line"/>
      <point x="299" y="247" type="line"/>
      <point x="452" y="0" type="line"/>
      <point x="484" y="0" type="line"/>
      <point x="319" y="264" type="line"/>
      <point x="589" y="530" type="line"/>
      <point x="551" y="530" type="line"/>
      <point x="303" y="285" type="line"/>
      <point x="155" y="530" type="line"/>
      <point x="123" y="530" type="line"/>
      <point x="281" y="270" type="line"/>
    </contour>
  </outline>
</glyph>
<glyph name="y" format="2">
  <advance width="600"/>
  <unicode hex="0079"/>
  <anchor x="400" y="0" name="bottom"/>
  <anchor x="356" y="530" name="top"/>
  <outline>
    <contour>
      <point x="2" y="-150" type="line"/>
      <point x="92" y="-150" type="line" smooth="yes"/>
      <point x="161" y="-150"/>
      <point x="195" y="-129"/>
      <point x="232" y="-66" type="curve" smooth="yes"/>
      <point x="586" y="530" type="line"/>
      <point x="552" y="530" type="line"/>
      <point x="249" y="18" type="line"/>
      <point x="259" y="16" type="line"/>
      <point x="157" y="530" type="line"/>
      <point x="126" y="530" type="line"/>
      <point x="232" y="10" type="line"/>
      <point x="247" y="10" type="line"/>
      <point x="211" y="-52" type="line" smooth="yes"/>
      <point x="179" y="-106"/>
      <point x="155" y="-122"/>
      <point x="98" y="-122" type="curve" smooth="yes"/>
      <point x="8" y="-122" type="line"/>
    </contour>
  </outline>
</glyph>
<glyph name="z" format="2">
  <advance width="600"/>
  <unicode hex="007A"/>
  <anchor x="245" y="0" name="bottom"/>
  <anchor x="357" y="530" name="top"/>
  <outline>
    <contour>
      <point x="37" y="0" type="line"/>
      <point x="549" y="500" type="line"/>
      <point x="555" y="530" type="line"/>
      <point x="136" y="530" type="line"/>
      <point x="130" y="502" type="line"/>
      <point x="513" y="502" type="line"/>
      <point x="17" y="18" type="line"/>
    </contour>
    <contour>
      <point x="458" y="-36" type="line"/>
      <point x="472" y="-10" type="line"/>
      <point x="185" y="170" type="line"/>
      <point x="171" y="144" type="line"/>
    </contour>
  </outline>
</glyph>
<glyph name="braceleft" format="2">
  <advance width="600"/>
  <unicode hex="007B"/>
  <outline>
    <contour>
      <point x="350" y="-114" type="curve" smooth="yes"/>
      <point x="399" y="-114" type="line"/>
      <point x="405" y="-84" type="line"/>
      <point x="356" y="-84" type="line" smooth="yes"/>
      <point x="283" y="-84"/>
      <point x="250" y="-46"/>
      <point x="250" y="8" type="curve" smooth="yes"/>
      <point x="250" y="62"/>
      <point x="281" y="160"/>
      <point x="281" y="209" type="curve" smooth="yes"/>
      <point x="281" y="275"/>
      <point x="250" y="311"/>
      <point x="198" y="316" type="curve"/>
      <point x="199" y="320" type="line"/>
      <point x="267" y="327"/>
      <point x="324" y="380"/>
      <point x="346" y="488" type="curve" smooth="yes"/>
      <point x="365" y="580" type="line" smooth="yes"/>
      <point x="382" y="661"/>
      <point x="439" y="720"/>
      <point x="527" y="720" type="curve" smooth="yes"/>
      <point x="577" y="720" type="line"/>
      <point x="583" y="750" type="line"/>
      <point x="533" y="750" type="line" smooth="yes"/>
      <point x="432" y="750"/>
      <point x="356" y="686"/>
      <point x="333" y="580" type="curve" smooth="yes"/>
      <point x="314" y="488" type="line" smooth="yes"/>
      <point x="291" y="383"/>
      <point x="245" y="334"/>
      <point x="135" y="334" type="curve"/>
      <point x="128" y="302" type="line"/>
      <point x="215" y="302"/>
      <point x="249" y="272"/>
      <point x="249" y="208" type="curve" smooth="yes"/>
      <point x="249" y="158"/>
      <point x="217" y="64"/>
      <point x="217" y="6" type="curve" smooth="yes"/>
      <point x="217" y="-69"/>
      <point x="264" y="-114"/>
    </contour>
  </outline>
</glyph>
<glyph name="bar" format="2">
  <advance width="600"/>
  <unicode hex="007C"/>
  <outline>
    <contour>
      <point x="204" y="-110" type="line"/>
      <point x="236" y="-110" type="line"/>
      <point x="419" y="750" type="line"/>
      <point x="387" y="750" type="line"/>
    </contour>
  </outline>
</glyph>
<glyph name="asciitilde" format="2">
  <advance width="600"/>
  <unicode hex="007E"/>
  <outline>
    <contour>
      <point x="399" y="263" type="curve" smooth="yes"/>
      <point x="456" y="263"/>
      <point x="504" y="304"/>
      <point x="528" y="398" type="curve"/>
      <point x="496" y="398" type="line"/>
      <point x="478" y="330"/>
      <point x="443" y="293"/>
      <point x="403" y="293" type="curve" smooth="yes"/>
      <point x="368" y="293"/>
      <point x="350" y="305"/>
      <point x="324" y="345" type="curve" smooth="yes"/>
      <point x="301" y="381"/>
      <point x="281" y="404"/>
      <point x="231" y="404" type="curve" smooth="yes"/>
      <point x="172" y="404"/>
      <point x="125" y="355"/>
      <point x="101" y="268" type="curve"/>
      <point x="133" y="268" type="line"/>
      <point x="149" y="331"/>
      <point x="185" y="374"/>
      <point x="229" y="374" type="curve" smooth="yes"/>
      <point x="261" y="374"/>
      <point x="276" y="365"/>
      <point x="302" y="323" type="curve" smooth="yes"/>
      <point x="328" y="281"/>
      <point x="353" y="263"/>
    </contour>
  </outline>
</glyph>
<glyph name="cent" format="2">
  <advance width="600"/>
  <unicode hex="00A2"/>
  <anchor x="271" y="86" name="bottom"/>
  <anchor x="383" y="616" name="top"/>
  <outline>
    <contour>
      <point x="197" y="-16" type="line"/>
      <point x="227" y="-16" type="line"/>
      <point x="447" y="726" type="line"/>
      <point x="417" y="726" type="line"/>
    </contour>
    <component base="c" xOffset="19" yOffset="86"/>
  </outline>
</glyph>
<glyph name="sterling" format="2">
  <advance width="600"/>
  <unicode hex="00A3"/>
  <outline>
    <contour>
      <point x="14" y="0" type="line"/>
      <point x="474" y="0" type="line"/>
      <point x="480" y="30" type="line"/>
      <point x="64" y="30" type="line"/>
      <point x="178" y="108"/>
      <point x="242" y="219"/>
      <point x="242" y="369" type="curve" smooth="yes"/>
      <point x="242" y="610"/>
      <point x="310" y="694"/>
      <point x="422" y="694" type="curve" smooth="yes"/>
      <point x="520" y="694"/>
      <point x="550" y="645"/>
      <point x="550" y="545" type="curve"/>
      <point x="584" y="549" type="line"/>
      <point x="584" y="659"/>
      <point x="544" y="726"/>
      <point x="428" y="726" type="curve" smooth="yes"/>
      <point x="282" y="726"/>
      <point x="210" y="630"/>
      <point x="210" y="369" type="curve" smooth="yes"/>
      <point x="210" y="203"/>
      <point x="138" y="109"/>
      <point x="20" y="29" type="curve"/>
    </contour>
    <contour>
      <point x="86" y="339" type="line"/>
      <point x="447" y="339" type="line"/>
      <point x="453" y="369" type="line"/>
      <point x="92" y="369" type="line"/>
    </contour>
  </outline>
</glyph>
<glyph name="currency" format="2">
  <advance width="600"/>
  <unicode hex="00A4"/>
  <outline>
    <contour>
      <point x="281" y="177" type="curve" smooth="yes"/>
      <point x="421" y="177"/>
      <point x="528" y="288"/>
      <point x="528" y="418" type="curve" smooth="yes"/>
      <point x="528" y="514"/>
      <point x="470" y="577"/>
      <point x="366" y="577" type="curve" smooth="yes"/>
      <point x="226" y="577"/>
      <point x="120" y="466"/>
      <point x="120" y="336" type="curve" smooth="yes"/>
      <point x="120" y="240"/>
      <point x="187" y="177"/>
    </contour>
    <contour>
      <point x="288" y="207" type="curve" smooth="yes"/>
      <point x="196" y="207"/>
      <point x="150" y="253"/>
      <point x="150" y="343" type="curve" smooth="yes"/>
      <point x="150" y="459"/>
      <point x="250" y="547"/>
      <point x="360" y="547" type="curve" smooth="yes"/>
      <point x="452" y="547"/>
      <point x="498" y="500"/>
      <point x="498" y="410" type="curve" smooth="yes"/>
      <point x="498" y="294"/>
      <point x="398" y="207"/>
    </contour>
    <contour>
      <point x="60" y="138" type="line"/>
      <point x="173" y="231" type="line"/>
      <point x="155" y="254" type="line"/>
      <point x="41" y="161" type="line"/>
    </contour>
    <contour>
      <point x="490" y="140" type="line"/>
      <point x="515" y="160" type="line"/>
      <point x="442" y="255" type="line"/>
      <point x="418" y="235" type="line"/>
    </contour>
    <contour>
      <point x="493" y="501" type="line"/>
      <point x="608" y="595" type="line"/>
      <point x="590" y="618" type="line"/>
      <point x="475" y="524" type="line"/>
    </contour>
    <contour>
      <point x="202" y="502" type="line"/>
      <point x="227" y="522" type="line"/>
      <point x="156" y="614" type="line"/>
      <point x="132" y="594" type="line"/>
    </contour>
  </outline>
</glyph>
<glyph name="yen" format="2">
  <advance width="600"/>
  <unicode hex="00A5"/>
  <anchor x="244" y="0" name="bottom"/>
  <anchor x="395" y="710" name="top"/>
  <outline>
    <contour>
      <point x="69" y="167" type="line"/>
      <point x="501" y="167" type="line"/>
      <point x="507" y="197" type="line"/>
      <point x="75" y="197" type="line"/>
    </contour>
    <contour>
      <point x="93" y="279" type="line"/>
      <point x="525" y="279" type="line"/>
      <point x="531" y="309" type="line"/>
      <point x="99" y="309" type="line"/>
    </contour>
    <component base="Y"/>
  </outline>
</glyph>
<glyph name="brokenbar" format="2">
  <advance width="600"/>
  <unicode hex="00A6"/>
  <outline>
    <contour>
      <point x="312" y="395" type="line"/>
      <point x="343" y="395" type="line"/>
      <point x="419" y="750" type="line"/>
      <point x="388" y="750" type="line"/>
    </contour>
    <contour>
      <point x="205" y="-110" type="line"/>
      <point x="236" y="-110" type="line"/>
      <point x="312" y="245" type="line"/>
      <point x="281" y="245" type="line"/>
    </contour>
  </outline>
</glyph>
<glyph name="section" format="2">
  <advance width="600"/>
  <unicode hex="00A7"/>
  <outline>
    <contour>
      <point x="240" y="-64" type="curve" smooth="yes"/>
      <point x="382" y="-64"/>
      <point x="470" y="-8"/>
      <point x="470" y="93" type="curve" smooth="yes"/>
      <point x="470" y="152"/>
      <point x="440" y="185"/>
      <point x="356" y="208" type="curve"/>
      <point x="449" y="214"/>
      <point x="524" y="265"/>
      <point x="524" y="348" type="curve" smooth="yes"/>
      <point x="524" y="407"/>
      <point x="488" y="449"/>
      <point x="349" y="473" type="curve" smooth="yes"/>
      <point x="236" y="493"/>
      <point x="206" y="518"/>
      <point x="206" y="568" type="curve" smooth="yes"/>
      <point x="206" y="642"/>
      <point x="271" y="694"/>
      <point x="384" y="694" type="curve" smooth="yes"/>
      <point x="489" y="694"/>
      <point x="516" y="645"/>
      <point x="516" y="553" type="curve"/>
      <point x="551" y="556" type="line"/>
      <point x="551" y="651"/>
      <point x="513" y="726"/>
      <point x="389" y="726" type="curve" smooth="yes"/>
      <point x="251" y="726"/>
      <point x="174" y="659"/>
      <point x="174" y="564" type="curve" smooth="yes"/>
      <point x="174" y="506"/>
      <point x="212" y="476"/>
      <point x="288" y="458" type="curve"/>
      <point x="175" y="444"/>
      <point x="120" y="390"/>
      <point x="120" y="308" type="curve" smooth="yes"/>
      <point x="120" y="244"/>
      <point x="174" y="217"/>
      <point x="274" y="199" type="curve" smooth="yes"/>
      <point x="405" y="176"/>
      <point x="438" y="145"/>
      <point x="438" y="89" type="curve" smooth="yes"/>
      <point x="438" y="5"/>
      <point x="349" y="-32"/>
      <point x="247" y="-32" type="curve" smooth="yes"/>
      <point x="138" y="-32"/>
      <point x="93" y="6"/>
      <point x="93" y="119" type="curve"/>
      <point x="58" y="115" type="line"/>
      <point x="58" y="-12"/>
      <point x="113" y="-64"/>
    </contour>
    <contour>
      <point x="314" y="228" type="curve" smooth="yes"/>
      <point x="205" y="228"/>
      <point x="150" y="257"/>
      <point x="150" y="314" type="curve" smooth="yes"/>
      <point x="150" y="387"/>
      <point x="223" y="438"/>
      <point x="330" y="438" type="curve" smooth="yes"/>
      <point x="434" y="438"/>
      <point x="494" y="403"/>
      <point x="494" y="344" type="curve" smooth="yes"/>
      <point x="494" y="272"/>
      <point x="427" y="228"/>
    </contour>
  </outline>
</glyph>
<glyph name="copyright" format="2">
  <advance width="600"/>
  <unicode hex="00A9"/>
  <outline>
    <contour>
      <point x="241" y="-12" type="curve" smooth="yes"/>
      <point x="449" y="-12"/>
      <point x="611" y="207"/>
      <point x="611" y="469" type="curve" smooth="yes"/>
      <point x="611" y="628"/>
      <point x="530" y="726"/>
      <point x="397" y="726" type="curve" smooth="yes"/>
      <point x="189" y="726"/>
      <point x="27" y="505"/>
      <point x="27" y="243" type="curve" smooth="yes"/>
      <point x="27" y="86"/>
      <point x="109" y="-12"/>
    </contour>
    <contour>
      <point x="247" y="18" type="curve" smooth="yes"/>
      <point x="130" y="18"/>
      <point x="59" y="102"/>
      <point x="59" y="250" type="curve" smooth="yes"/>
      <point x="59" y="483"/>
      <point x="203" y="696"/>
      <point x="391" y="696" type="curve" smooth="yes"/>
      <point x="509" y="696"/>
      <point x="579" y="614"/>
      <point x="579" y="464" type="curve" smooth="yes"/>
      <point x="579" y="230"/>
      <point x="435" y="18"/>
    </contour>
    <contour>
      <point x="280" y="144" type="curve" smooth="yes"/>
      <point x="368" y="144"/>
      <point x="444" y="205"/>
      <point x="477" y="303" type="curve"/>
      <point x="448" y="308" type="line"/>
      <point x="417" y="222"/>
      <point x="360" y="174"/>
      <point x="286" y="174" type="curve" smooth="yes"/>
      <point x="213" y="174"/>
      <point x="172" y="220"/>
      <point x="172" y="300" type="curve" smooth="yes"/>
      <point x="172" y="394"/>
      <point x="234" y="537"/>
      <point x="363" y="537" type="curve" smooth="yes"/>
      <point x="435" y="537"/>
      <point x="467" y="501"/>
      <point x="467" y="411" type="curve"/>
      <point x="499" y="416" type="line"/>
      <point x="499" y="514"/>
      <point x="457" y="567"/>
      <point x="370" y="567" type="curve" smooth="yes"/>
      <point x="230" y="567"/>
      <point x="142" y="423"/>
      <point x="142" y="293" type="curve" smooth="yes"/>
      <point x="142" y="203"/>
      <point x="191" y="144"/>
    </contour>
  </outline>
</glyph>
<glyph name="ordfeminine" format="2">
  <advance width="600"/>
  <unicode hex="00AA"/>
  <outline>
    <contour>
      <point x="272" y="376" type="curve" smooth="yes"/>
      <point x="344" y="376"/>
      <point x="394" y="421"/>
      <point x="426" y="503" type="curve"/>
      <point x="420" y="504" type="line"/>
      <point x="412" y="472"/>
      <point x="406" y="439"/>
      <point x="406" y="420" type="curve" smooth="yes"/>
      <point x="406" y="390"/>
      <point x="426" y="381"/>
      <point x="450" y="381" type="curve" smooth="yes"/>
      <point x="505" y="381" type="line"/>
      <point x="510" y="405" type="line"/>
      <point x="456" y="405" type="line" smooth="yes"/>
      <point x="434" y="405"/>
      <point x="428" y="410"/>
      <point x="428" y="428" type="curve" smooth="yes"/>
      <point x="428" y="444"/>
      <point x="433" y="469"/>
      <point x="437" y="489" type="curve" smooth="yes"/>
      <point x="488" y="723" type="line"/>
      <point x="369" y="723" type="line" smooth="yes"/>
      <point x="253" y="723"/>
      <point x="175" y="622"/>
      <point x="175" y="492" type="curve" smooth="yes"/>
      <point x="175" y="418"/>
      <point x="212" y="376"/>
    </contour>
    <contour>
      <point x="276" y="400" type="curve" smooth="yes"/>
      <point x="227" y="400"/>
      <point x="201" y="427"/>
      <point x="201" y="498" type="curve" smooth="yes"/>
      <point x="201" y="612"/>
      <point x="272" y="699"/>
      <point x="365" y="699" type="curve" smooth="yes"/>
      <point x="456" y="699" type="line"/>
      <point x="433" y="582" type="line" smooth="yes"/>
      <point x="410" y="465"/>
      <point x="352" y="400"/>
    </contour>
  </outline>
</glyph>
<glyph name="logicalnot" format="2">
  <advance width="600"/>
  <unicode hex="00AC"/>
  <outline>
    <contour>
      <point x="440" y="66" type="line"/>
      <point x="468" y="66" type="line"/>
      <point x="521" y="315" type="line"/>
      <point x="101" y="315" type="line"/>
      <point x="95" y="287" type="line"/>
      <point x="487" y="287" type="line"/>
    </contour>
  </outline>
</glyph>
<glyph name="registered" format="2">
  <advance width="600"/>
  <unicode hex="00AE"/>
  <outline>
    <contour>
      <point x="284" y="187" type="curve" smooth="yes"/>
      <point x="484" y="187"/>
      <point x="614" y="323"/>
      <point x="614" y="513" type="curve" smooth="yes"/>
      <point x="614" y="639"/>
      <point x="527" y="726"/>
      <point x="398" y="726" type="curve" smooth="yes"/>
      <point x="198" y="726"/>
      <point x="67" y="590"/>
      <point x="67" y="400" type="curve" smooth="yes"/>
      <point x="67" y="274"/>
      <point x="154" y="187"/>
    </contour>
    <contour>
      <point x="289" y="211" type="curve" smooth="yes"/>
      <point x="172" y="211"/>
      <point x="93" y="287"/>
      <point x="93" y="407" type="curve" smooth="yes"/>
      <point x="93" y="577"/>
      <point x="223" y="702"/>
      <point x="393" y="702" type="curve" smooth="yes"/>
      <point x="510" y="702"/>
      <point x="588" y="626"/>
      <point x="588" y="506" type="curve" smooth="yes"/>
      <point x="588" y="336"/>
      <point x="461" y="211"/>
    </contour>
    <contour>
      <point x="205" y="300" type="line"/>
      <point x="232" y="300" type="line"/>
      <point x="260" y="431" type="line"/>
      <point x="352" y="431" type="line"/>
      <point x="391" y="300" type="line"/>
      <point x="422" y="300" type="line"/>
      <point x="379" y="438" type="line"/>
      <point x="433" y="450"/>
      <point x="465" y="478"/>
      <point x="465" y="539" type="curve" smooth="yes"/>
      <point x="465" y="579"/>
      <point x="436" y="611"/>
      <point x="371" y="611" type="curve" smooth="yes"/>
      <point x="271" y="611" type="line"/>
    </contour>
    <contour>
      <point x="265" y="458" type="line"/>
      <point x="293" y="586" type="line"/>
      <point x="374" y="586" type="line" smooth="yes"/>
      <point x="417" y="586"/>
      <point x="439" y="567"/>
      <point x="439" y="536" type="curve" smooth="yes"/>
      <point x="439" y="480"/>
      <point x="403" y="458"/>
      <point x="346" y="458" type="curve" smooth="yes"/>
    </contour>
  </outline>
</glyph>
<glyph name="degree" format="2">
  <advance width="600"/>
  <unicode hex="00B0"/>
  <outline>
    <contour>
      <point x="342" y="464" type="curve" smooth="yes"/>
      <point x="436" y="464"/>
      <point x="506" y="526"/>
      <point x="506" y="624" type="curve" smooth="yes"/>
      <point x="506" y="686"/>
      <point x="466" y="726"/>
      <point x="398" y="726" type="curve" smooth="yes"/>
      <point x="304" y="726"/>
      <point x="234" y="664"/>
      <point x="234" y="566" type="curve" smooth="yes"/>
      <point x="234" y="504"/>
      <point x="274" y="464"/>
    </contour>
    <contour>
      <point x="348" y="494" type="curve" smooth="yes"/>
      <point x="288" y="494"/>
      <point x="264" y="522"/>
      <point x="264" y="572" type="curve" smooth="yes"/>
      <point x="264" y="646"/>
      <point x="321" y="696"/>
      <point x="391" y="696" type="curve" smooth="yes"/>
      <point x="451" y="696"/>
      <point x="476" y="666"/>
      <point x="476" y="616" type="curve" smooth="yes"/>
      <point x="476" y="542"/>
      <point x="419" y="494"/>
    </contour>
  </outline>
</glyph>
<glyph name="plusminus" format="2">
  <advance width="600"/>
  <unicode hex="00B1"/>
  <outline>
    <contour>
      <point x="14" y="0" type="line"/>
      <point x="474" y="0" type="line"/>
      <point x="480" y="30" type="line"/>
      <point x="20" y="30" type="line"/>
    </contour>
    <contour>
      <point x="248" y="86" type="line"/>
      <point x="276" y="86" type="line"/>
      <point x="374" y="544" type="line"/>
      <point x="346" y="544" type="line"/>
    </contour>
    <contour>
      <point x="78" y="301" type="line"/>
      <point x="538" y="301" type="line"/>
      <point x="544" y="329" type="line"/>
      <point x="84" y="329" type="line"/>
    </contour>
  </outline>
</glyph>
<glyph name="twosuperior" format="2">
  <advance width="600"/>
  <unicode hex="00B2"/>
  <outline>
    <contour>
      <point x="162" y="323" type="curve"/>
      <point x="442" y="323" type="line"/>
      <point x="448" y="351" type="line"/>
      <point x="202" y="351" type="line"/>
      <point x="212" y="397"/>
      <point x="243" y="427"/>
      <point x="340" y="474" type="curve" smooth="yes"/>
      <point x="373" y="490" type="line" smooth="yes"/>
      <point x="452" y="528"/>
      <point x="502" y="553"/>
      <point x="502" y="627" type="curve" smooth="yes"/>
      <point x="502" y="683"/>
      <point x="465" y="718"/>
      <point x="390" y="718" type="curve" smooth="yes"/>
      <point x="296" y="718"/>
      <point x="246" y="672"/>
      <point x="220" y="592" type="curve"/>
      <point x="250" y="589" type="line"/>
      <point x="274" y="657"/>
      <point x="312" y="690"/>
      <point x="384" y="690" type="curve" smooth="yes"/>
      <point x="444" y="690"/>
      <point x="472" y="668"/>
      <point x="472" y="626" type="curve" smooth="yes"/>
      <point x="472" y="568"/>
      <point x="439" y="550"/>
      <point x="361" y="512" type="curve" smooth="yes"/>
      <point x="324" y="494" type="line" smooth="yes"/>
      <point x="218" y="442"/>
      <point x="180" y="407"/>
    </contour>
  </outline>
</glyph>
<glyph name="threesuperior" format="2">
  <advance width="600"/>
  <unicode hex="00B3"/>
  <outline>
    <contour>
      <point x="310" y="315" type="curve" smooth="yes"/>
      <point x="424" y="315"/>
      <point x="486" y="370"/>
      <point x="486" y="452" type="curve" smooth="yes"/>
      <point x="486" y="489"/>
      <point x="468" y="518"/>
      <point x="406" y="530" type="curve"/>
      <point x="472" y="538"/>
      <point x="512" y="571"/>
      <point x="512" y="630" type="curve" smooth="yes"/>
      <point x="512" y="686"/>
      <point x="476" y="718"/>
      <point x="396" y="718" type="curve" smooth="yes"/>
      <point x="300" y="718"/>
      <point x="258" y="682"/>
      <point x="238" y="622" type="curve"/>
      <point x="270" y="618" type="line"/>
      <point x="282" y="662"/>
      <point x="312" y="690"/>
      <point x="390" y="690" type="curve" smooth="yes"/>
      <point x="458" y="690"/>
      <point x="482" y="669"/>
      <point x="482" y="628" type="curve" smooth="yes"/>
      <point x="482" y="581"/>
      <point x="446" y="543"/>
      <point x="376" y="543" type="curve" smooth="yes"/>
      <point x="336" y="543" type="line"/>
      <point x="330" y="517" type="line"/>
      <point x="370" y="517" type="line" smooth="yes"/>
      <point x="430" y="517"/>
      <point x="456" y="487"/>
      <point x="456" y="448" type="curve" smooth="yes"/>
      <point x="456" y="392"/>
      <point x="410" y="343"/>
      <point x="316" y="343" type="curve" smooth="yes"/>
      <point x="236" y="343"/>
      <point x="215" y="364"/>
      <point x="215" y="428" type="curve"/>
      <point x="184" y="425" type="line"/>
      <point x="184" y="344"/>
      <point x="218" y="315"/>
    </contour>
  </outline>
</glyph>
<glyph name="micro" format="2">
  <advance width="600"/>
  <unicode hex="00B5"/>
  <unicode hex="03BC"/>
  <outline>
    <contour>
      <point x="12" y="-150" type="line"/>
      <point x="42" y="-150" type="line"/>
      <point x="91" y="82" type="line"/>
      <point x="93" y="28"/>
      <point x="142" y="-12"/>
      <point x="216" y="-12" type="curve" smooth="yes"/>
      <point x="312" y="-12"/>
      <point x="399" y="27"/>
      <point x="438" y="114" type="curve"/>
      <point x="416" y="0" type="line"/>
      <point x="444" y="0" type="line"/>
      <point x="556" y="530" type="line"/>
      <point x="526" y="530" type="line"/>
      <point x="459" y="213" type="line" smooth="yes"/>
      <point x="435" y="99"/>
      <point x="352" y="18"/>
      <point x="230" y="18" type="curve" smooth="yes"/>
      <point x="148" y="18"/>
      <point x="108" y="46"/>
      <point x="108" y="124" type="curve" smooth="yes"/>
      <point x="108" y="149"/>
      <point x="112" y="178"/>
      <point x="119" y="213" type="curve" smooth="yes"/>
      <point x="186" y="530" type="line"/>
      <point x="156" y="530" type="line"/>
    </contour>
  </outline>
</glyph>
<glyph name="paragraph" format="2">
  <advance width="600"/>
  <unicode hex="00B6"/>
  <outline>
    <contour>
      <point x="280" y="0" type="line"/>
      <point x="312" y="0" type="line"/>
      <point x="456" y="680" type="line"/>
      <point x="576" y="680" type="line"/>
      <point x="432" y="0" type="line"/>
      <point x="464" y="0" type="line"/>
      <point x="614" y="710" type="line"/>
      <point x="444" y="710" type="line" smooth="yes"/>
      <point x="234" y="710"/>
      <point x="127" y="598"/>
      <point x="127" y="458" type="curve" smooth="yes"/>
      <point x="127" y="360"/>
      <point x="194" y="306"/>
      <point x="345" y="306" type="curve"/>
    </contour>
  </outline>
</glyph>
<glyph name="onesuperior" format="2">
  <advance width="600"/>
  <unicode hex="00B9"/>
  <outline>
    <contour>
      <point x="304" y="323" type="line"/>
      <point x="332" y="323" type="line"/>
      <point x="414" y="710" type="line"/>
      <point x="392" y="710" type="line"/>
      <point x="380" y="656"/>
      <point x="357" y="631"/>
      <point x="286" y="631" type="curve" smooth="yes"/>
      <point x="228" y="631" type="line"/>
      <point x="224" y="609" type="line"/>
      <point x="365" y="609" type="line"/>
    </contour>
  </outline>
</glyph>
<glyph name="ordmasculine" format="2">
  <advance width="600"/>
  <unicode hex="00BA"/>
  <outline>
    <contour>
      <point x="315" y="376" type="curve" smooth="yes"/>
      <point x="443" y="376"/>
      <point x="525" y="465"/>
      <point x="525" y="605" type="curve" smooth="yes"/>
      <point x="525" y="682"/>
      <point x="481" y="726"/>
      <point x="409" y="726" type="curve" smooth="yes"/>
      <point x="281" y="726"/>
      <point x="196" y="636"/>
      <point x="196" y="496" type="curve" smooth="yes"/>
      <point x="196" y="420"/>
      <point x="242" y="376"/>
    </contour>
    <contour>
      <point x="320" y="401" type="curve" smooth="yes"/>
      <point x="261" y="401"/>
      <point x="224" y="437"/>
      <point x="224" y="501" type="curve" smooth="yes"/>
      <point x="224" y="621"/>
      <point x="296" y="701"/>
      <point x="404" y="701" type="curve" smooth="yes"/>
      <point x="462" y="701"/>
      <point x="497" y="665"/>
      <point x="497" y="601" type="curve" smooth="yes"/>
      <point x="497" y="481"/>
      <point x="428" y="401"/>
    </contour>
  </outline>
</glyph>
<glyph name="threequarters" format="2">
  <advance width="600"/>
  <unicode hex="00BE"/>
  <outline>
    <contour>
      <point x="407" y="0" type="line"/>
      <point x="435" y="0" type="line"/>
      <point x="455" y="95" type="line"/>
      <point x="533" y="95" type="line"/>
      <point x="539" y="121" type="line"/>
      <point x="461" y="121" type="line"/>
      <point x="517" y="387" type="line"/>
      <point x="489" y="387" type="line"/>
      <point x="227" y="117" type="line"/>
      <point x="222" y="95" type="line"/>
      <point x="427" y="95" type="line"/>
    </contour>
    <contour>
      <point x="261" y="121" type="line"/>
      <point x="481" y="345" type="line"/>
      <point x="433" y="121" type="line"/>
    </contour>
    <component base="three.numr" xOffset="-120"/>
    <component base="fraction" xOffset="21"/>
  </outline>
</glyph>
<glyph name="questiondown" format="2">
  <advance width="600"/>
  <unicode hex="00BF"/>
  <outline>
    <contour>
      <point x="205" y="-162" type="curve" smooth="yes"/>
      <point x="349" y="-162"/>
      <point x="433" y="-83"/>
      <point x="461" y="65" type="curve"/>
      <point x="429" y="67" type="line"/>
      <point x="407" y="-63"/>
      <point x="329" y="-130"/>
      <point x="211" y="-130" type="curve" smooth="yes"/>
      <point x="111" y="-130"/>
      <point x="75" y="-84"/>
      <point x="75" y="-10" type="curve" smooth="yes"/>
      <point x="75" y="78"/>
      <point x="117" y="120"/>
      <point x="227" y="184" type="curve" smooth="yes"/>
      <point x="294" y="223"/>
      <point x="328" y="268"/>
      <point x="344" y="343" type="curve"/>
      <point x="312" y="343" type="line"/>
      <point x="298" y="274"/>
      <point x="266" y="239"/>
      <point x="213" y="208" type="curve" smooth="yes"/>
      <point x="101" y="142"/>
      <point x="43" y="100"/>
      <point x="43" y="-12" type="curve" smooth="yes"/>
      <point x="43" y="-94"/>
      <point x="91" y="-162"/>
    </contour>
    <component base="period" xScale="-1.0" yScale="-1.0" xOffset="608" yOffset="544"/>
  </outline>
</glyph>
<glyph name="AE" format="2">
  <advance width="600"/>
  <unicode hex="00C6"/>
  <anchor x="245" y="0" name="bottom"/>
  <anchor x="410" y="710" name="top"/>
  <outline>
    <contour>
      <point x="-34" y="0" type="line"/>
      <point x="0" y="0" type="line"/>
      <point x="378" y="680" type="line"/>
      <point x="402" y="680" type="line"/>
      <point x="258" y="0" type="line"/>
      <point x="522" y="0" type="line"/>
      <point x="528" y="30" type="line"/>
      <point x="296" y="30" type="line"/>
      <point x="362" y="341" type="line"/>
      <point x="572" y="341" type="line"/>
      <point x="578" y="371" type="line"/>
      <point x="368" y="371" type="line"/>
      <point x="434" y="680" type="line"/>
      <point x="656" y="680" type="line"/>
      <point x="662" y="710" type="line"/>
      <point x="362" y="710" type="line"/>
    </contour>
    <contour>
      <point x="112" y="235" type="line"/>
      <point x="315" y="235" type="line"/>
      <point x="322" y="265" type="line"/>
      <point x="130" y="265" type="line"/>
    </contour>
  </outline>
</glyph>
<glyph name="multiply" format="2">
  <advance width="600"/>
  <unicode hex="00D7"/>
  <outline>
    <contour>
      <point x="96" y="98" type="line"/>
      <point x="529" y="450" type="line"/>
      <point x="512" y="472" type="line"/>
      <point x="79" y="120" type="line"/>
    </contour>
    <contour>
      <point x="435" y="100" type="line"/>
      <point x="457" y="118" type="line"/>
      <point x="173" y="470" type="line"/>
      <point x="151" y="452" type="line"/>
    </contour>
  </outline>
</glyph>
<glyph name="Thorn" format="2">
  <advance width="600"/>
  <unicode hex="00DE"/>
  <outline>
    <contour>
      <point x="73" y="164" type="line"/>
      <point x="261" y="164" type="line" smooth="yes"/>
      <point x="443" y="164"/>
      <point x="545" y="263"/>
      <point x="545" y="413" type="curve" smooth="yes"/>
      <point x="545" y="511"/>
      <point x="475" y="569"/>
      <point x="347" y="569" type="curve" smooth="yes"/>
      <point x="159" y="569" type="line"/>
      <point x="153" y="539" type="line"/>
      <point x="341" y="539" type="line" smooth="yes"/>
      <point x="454" y="539"/>
      <point x="511" y="491"/>
      <point x="511" y="409" type="curve" smooth="yes"/>
      <point x="511" y="279"/>
      <point x="425" y="194"/>
      <point x="268" y="194" type="curve" smooth="yes"/>
      <point x="80" y="194" type="line"/>
    </contour>
    <contour>
      <point x="25" y="0" type="line"/>
      <point x="57" y="0" type="line"/>
      <point x="207" y="710" type="line"/>
      <point x="175" y="710" type="line"/>
    </contour>
  </outline>
</glyph>
<glyph name="germandbls" format="2">
  <advance width="600"/>
  <unicode hex="00DF"/>
  <outline>
    <contour>
      <point x="24" y="0" type="line"/>
      <point x="54" y="0" type="line"/>
      <point x="161" y="502" type="line" smooth="yes"/>
      <point x="185" y="616"/>
      <point x="272" y="690"/>
      <point x="372" y="690" type="curve" smooth="yes"/>
      <point x="466" y="690"/>
      <point x="508" y="648"/>
      <point x="508" y="578" type="curve" smooth="yes"/>
      <point x="508" y="464"/>
      <point x="413" y="388"/>
      <point x="295" y="388" type="curve" smooth="yes"/>
      <point x="246" y="388" type="line"/>
      <point x="240" y="360" type="line"/>
      <point x="290" y="360" type="line" smooth="yes"/>
      <point x="410" y="360"/>
      <point x="475" y="310"/>
      <point x="475" y="222" type="curve" smooth="yes"/>
      <point x="475" y="104"/>
      <point x="379" y="28"/>
      <point x="243" y="28" type="curve" smooth="yes"/>
      <point x="159" y="28" type="line"/>
      <point x="153" y="0" type="line"/>
      <point x="237" y="0" type="line" smooth="yes"/>
      <point x="411" y="0"/>
      <point x="507" y="98"/>
      <point x="507" y="228" type="curve" smooth="yes"/>
      <point x="507" y="318"/>
      <point x="438" y="374"/>
      <point x="320" y="382" type="curve"/>
      <point x="317" y="368" type="line"/>
      <point x="445" y="375"/>
      <point x="540" y="458"/>
      <point x="540" y="584" type="curve" smooth="yes"/>
      <point x="540" y="662"/>
      <point x="484" y="720"/>
      <point x="378" y="720" type="curve" smooth="yes"/>
      <point x="250" y="720"/>
      <point x="160" y="640"/>
      <point x="131" y="502" type="curve" smooth="yes"/>
    </contour>
  </outline>
</glyph>
<glyph name="ae" format="2">
  <advance width="600"/>
  <unicode hex="00E6"/>
  <anchor x="244" y="0" name="bottom"/>
  <anchor x="356" y="530" name="top"/>
  <outline>
    <contour>
      <point x="367" y="-12" type="curve" smooth="yes"/>
      <point x="436" y="-12"/>
      <point x="497" y="39"/>
      <point x="543" y="143" type="curve"/>
      <point x="511" y="145" type="line"/>
      <point x="469" y="57"/>
      <point x="424" y="18"/>
      <point x="373" y="18" type="curve" smooth="yes"/>
      <point x="325" y="18"/>
      <point x="295" y="55"/>
      <point x="295" y="136" type="curve" smooth="yes"/>
      <point x="295" y="170"/>
      <point x="300" y="211"/>
      <point x="310" y="260" type="curve"/>
      <point x="569" y="260" type="line"/>
      <point x="581" y="316"/>
      <point x="586" y="358"/>
      <point x="586" y="393" type="curve" smooth="yes"/>
      <point x="586" y="490"/>
      <point x="548" y="542"/>
      <point x="485" y="542" type="curve" smooth="yes"/>
      <point x="349" y="542"/>
      <point x="266" y="303"/>
      <point x="266" y="134" type="curve" smooth="yes"/>
      <point x="266" y="37"/>
      <point x="304" y="-12"/>
    </contour>
    <contour>
      <point x="90" y="-12" type="curve" smooth="yes"/>
      <point x="176" y="-12"/>
      <point x="251" y="55"/>
      <point x="280" y="182" type="curve"/>
      <point x="316" y="320" type="line"/>
      <point x="324" y="358"/>
      <point x="328" y="391"/>
      <point x="328" y="419" type="curve" smooth="yes"/>
      <point x="328" y="501"/>
      <point x="298" y="542"/>
      <point x="233" y="542" type="curve" smooth="yes"/>
      <point x="154" y="542"/>
      <point x="98" y="486"/>
      <point x="60" y="373" type="curve"/>
      <point x="91" y="370" type="line"/>
      <point x="120" y="461"/>
      <point x="168" y="512"/>
      <point x="228" y="512" type="curve" smooth="yes"/>
      <point x="274" y="512"/>
      <point x="296" y="483"/>
      <point x="296" y="413" type="curve" smooth="yes"/>
      <point x="296" y="379"/>
      <point x="291" y="336"/>
      <point x="282" y="295" type="curve"/>
      <point x="166" y="274" type="line" smooth="yes"/>
      <point x="64" y="255"/>
      <point x="-3" y="188"/>
      <point x="-3" y="84" type="curve" smooth="yes"/>
      <point x="-3" y="24"/>
      <point x="30" y="-12"/>
    </contour>
    <contour>
      <point x="95" y="18" type="curve" smooth="yes"/>
      <point x="54" y="18"/>
      <point x="29" y="41"/>
      <point x="29" y="88" type="curve" smooth="yes"/>
      <point x="29" y="174"/>
      <point x="81" y="231"/>
      <point x="172" y="246" type="curve" smooth="yes"/>
      <point x="276" y="264" type="line"/>
      <point x="266" y="217" type="line" smooth="yes"/>
      <point x="241" y="98"/>
      <point x="185" y="18"/>
    </contour>
    <contour>
      <point x="316" y="288" type="line"/>
      <point x="350" y="432"/>
      <point x="419" y="512"/>
      <point x="479" y="512" type="curve" smooth="yes"/>
      <point x="529" y="512"/>
      <point x="554" y="471"/>
      <point x="554" y="391" type="curve" smooth="yes"/>
      <point x="554" y="363"/>
      <point x="550" y="329"/>
      <point x="543" y="288" type="curve"/>
    </contour>
  </outline>
</glyph>
<glyph name="eth" format="2">
  <advance width="600"/>
  <unicode hex="00F0"/>
  <outline>
    <contour>
      <point x="234" y="562" type="line"/>
      <point x="564" y="669" type="line"/>
      <point x="560" y="697" type="line"/>
      <point x="230" y="590" type="line"/>
    </contour>
    <contour>
      <point x="230" y="-11" type="curve" smooth="yes"/>
      <point x="402" y="-11"/>
      <point x="525" y="141"/>
      <point x="525" y="399" type="curve" smooth="yes"/>
      <point x="525" y="561"/>
      <point x="456" y="679"/>
      <point x="248" y="726" type="curve"/>
      <point x="234" y="698" type="line"/>
      <point x="433" y="649"/>
      <point x="499" y="554"/>
      <point x="499" y="360" type="curve"/>
      <point x="503" y="364" type="line"/>
      <point x="484" y="420"/>
      <point x="432" y="471"/>
      <point x="342" y="471" type="curve" smooth="yes"/>
      <point x="192" y="471"/>
      <point x="74" y="333"/>
      <point x="74" y="157" type="curve" smooth="yes"/>
      <point x="74" y="52"/>
      <point x="132" y="-11"/>
    </contour>
    <contour>
      <point x="236" y="17" type="curve" smooth="yes"/>
      <point x="150" y="17"/>
      <point x="104" y="71"/>
      <point x="104" y="163" type="curve" smooth="yes"/>
      <point x="104" y="316"/>
      <point x="208" y="443"/>
      <point x="336" y="443" type="curve" smooth="yes"/>
      <point x="425" y="443"/>
      <point x="484" y="384"/>
      <point x="484" y="306" type="curve" smooth="yes"/>
      <point x="484" y="169"/>
      <point x="384" y="17"/>
    </contour>
  </outline>
</glyph>
<glyph name="divide" format="2">
  <advance width="600"/>
  <unicode hex="00F7"/>
  <outline>
    <contour>
      <point x="258" y="68" type="curve" smooth="yes"/>
      <point x="282" y="68"/>
      <point x="301" y="86"/>
      <point x="301" y="110" type="curve" smooth="yes"/>
      <point x="301" y="126"/>
      <point x="290" y="136"/>
      <point x="273" y="136" type="curve" smooth="yes"/>
      <point x="249" y="136"/>
      <point x="230" y="118"/>
      <point x="230" y="94" type="curve" smooth="yes"/>
      <point x="230" y="79"/>
      <point x="241" y="68"/>
    </contour>
    <contour>
      <point x="79" y="260" type="line"/>
      <point x="518" y="260" type="line"/>
      <point x="525" y="290" type="line"/>
      <point x="86" y="290" type="line"/>
    </contour>
    <contour>
      <point x="331" y="410" type="curve" smooth="yes"/>
      <point x="355" y="410"/>
      <point x="374" y="428"/>
      <point x="374" y="452" type="curve" smooth="yes"/>
      <point x="374" y="468"/>
      <point x="363" y="478"/>
      <point x="346" y="478" type="curve" smooth="yes"/>
      <point x="322" y="478"/>
      <point x="303" y="460"/>
      <point x="303" y="436" type="curve" smooth="yes"/>
      <point x="303" y="421"/>
      <point x="314" y="410"/>
    </contour>
  </outline>
</glyph>
<glyph name="thorn" format="2">
  <advance width="600"/>
  <unicode hex="00FE"/>
  <anchor x="244" y="0" name="bottom"/>
  <anchor x="357" y="530" name="top"/>
  <outline>
    <contour>
      <point x="2" y="-150" type="line"/>
      <point x="32" y="-150" type="line"/>
      <point x="95" y="142" type="line"/>
      <point x="91" y="138" type="line"/>
      <point x="98" y="55"/>
      <point x="145" y="-12"/>
      <point x="236" y="-12" type="curve" smooth="yes"/>
      <point x="395" y="-12"/>
      <point x="518" y="150"/>
      <point x="518" y="356" type="curve" smooth="yes"/>
      <point x="518" y="474"/>
      <point x="464" y="542"/>
      <point x="357" y="542" type="curve" smooth="yes"/>
      <point x="274" y="542"/>
      <point x="202" y="494"/>
      <point x="146" y="400" type="curve"/>
      <point x="149" y="396" type="line"/>
      <point x="216" y="710" type="line"/>
      <point x="186" y="710" type="line"/>
    </contour>
    <contour>
      <point x="242" y="18" type="curve" smooth="yes"/>
      <point x="163" y="18"/>
      <point x="112" y="80"/>
      <point x="112" y="184" type="curve" smooth="yes"/>
      <point x="112" y="357"/>
      <point x="218" y="512"/>
      <point x="351" y="512" type="curve" smooth="yes"/>
      <point x="439" y="512"/>
      <point x="486" y="460"/>
      <point x="486" y="348" type="curve" smooth="yes"/>
      <point x="486" y="166"/>
      <point x="378" y="18"/>
    </contour>
  </outline>
</glyph>
<glyph name="dcaron" format="2">
  <advance width="600"/>
  <unicode hex="010F"/>
  <outline>
    <contour>
      <point x="203" y="-12" type="curve" smooth="yes"/>
      <point x="293" y="-12"/>
      <point x="372" y="58"/>
      <point x="419" y="143" type="curve"/>
      <point x="417" y="148" type="line"/>
      <point x="388" y="0" type="line"/>
      <point x="410" y="0" type="line"/>
      <point x="561" y="710" type="line"/>
      <point x="531" y="710" type="line"/>
      <point x="462" y="386" type="line"/>
      <point x="466" y="389" type="line"/>
      <point x="459" y="477"/>
      <point x="407" y="542"/>
      <point x="320" y="542" type="curve" smooth="yes"/>
      <point x="124" y="542"/>
      <point x="51" y="315"/>
      <point x="51" y="169" type="curve" smooth="yes"/>
      <point x="51" y="56"/>
      <point x="95" y="-12"/>
    </contour>
    <contour>
      <point x="208" y="18" type="curve" smooth="yes"/>
      <point x="117" y="18"/>
      <point x="84" y="77"/>
      <point x="84" y="176" type="curve" smooth="yes"/>
      <point x="84" y="304"/>
      <point x="146" y="512"/>
      <point x="314" y="512" type="curve" smooth="yes"/>
      <point x="399" y="512"/>
      <point x="449" y="444"/>
      <point x="449" y="343" type="curve" smooth="yes"/>
      <point x="449" y="220"/>
      <point x="362" y="18"/>
    </contour>
    <contour>
      <point x="559" y="502" type="line"/>
      <point x="585" y="502" type="line"/>
      <point x="675" y="710" type="line"/>
      <point x="637" y="710" type="line"/>
    </contour>
  </outline>
</glyph>
<glyph name="idotless" format="2">
  <advance width="600"/>
  <unicode hex="0131"/>
  <anchor x="254" y="0" name="bottom"/>
  <anchor x="524" y="0" name="ogonek"/>
  <anchor x="362" y="530" name="top"/>
  <outline>
    <contour>
      <point x="331" y="0" type="curve" smooth="yes"/>
      <point x="524" y="0" type="line"/>
      <point x="530" y="28" type="line"/>
      <point x="335" y="28" type="line" smooth="yes"/>
      <point x="298" y="28"/>
      <point x="285" y="42"/>
      <point x="285" y="62" type="curve" smooth="yes"/>
      <point x="285" y="85"/>
      <point x="291" y="114"/>
      <point x="299" y="150" type="curve" smooth="yes"/>
      <point x="380" y="530" type="line"/>
      <point x="96" y="530" type="line"/>
      <point x="90" y="502" type="line"/>
      <point x="358" y="502" type="line"/>
      <point x="347" y="516" type="line"/>
      <point x="269" y="148" type="line" smooth="yes"/>
      <point x="262" y="114"/>
      <point x="255" y="84"/>
      <point x="255" y="56" type="curve" smooth="yes"/>
      <point x="255" y="17"/>
      <point x="279" y="0"/>
    </contour>
  </outline>
</glyph>
<glyph name="Eng" format="2">
  <advance width="600"/>
  <unicode hex="014A"/>
  <anchor x="212" y="-150" name="bottom"/>
  <anchor x="395" y="710" name="top"/>
  <outline>
    <contour>
      <point x="171" y="-150" type="line"/>
      <point x="308" y="-150" type="line" smooth="yes"/>
      <point x="386" y="-150"/>
      <point x="440" y="-113"/>
      <point x="458" y="-29" type="curve" smooth="yes"/>
      <point x="615" y="710" type="line"/>
      <point x="583" y="710" type="line"/>
      <point x="435" y="16" type="line"/>
      <point x="442" y="16" type="line"/>
      <point x="222" y="710" type="line"/>
      <point x="175" y="710" type="line"/>
      <point x="24" y="0" type="line"/>
      <point x="56" y="0" type="line"/>
      <point x="204" y="694" type="line"/>
      <point x="197" y="694" type="line"/>
      <point x="417" y="0" type="line"/>
      <point x="432" y="0" type="line"/>
      <point x="426" y="-29" type="line" smooth="yes"/>
      <point x="412" y="-99"/>
      <point x="368" y="-120"/>
      <point x="314" y="-120" type="curve" smooth="yes"/>
      <point x="177" y="-120" type="line"/>
    </contour>
  </outline>
</glyph>
<glyph name="eng" format="2">
  <advance width="600"/>
  <unicode hex="014B"/>
  <anchor x="246" y="0" name="bottom"/>
  <anchor x="361" y="530" name="top"/>
  <outline>
    <contour>
      <point x="213" y="-150" type="line"/>
      <point x="289" y="-150" type="line" smooth="yes"/>
      <point x="362" y="-150"/>
      <point x="422" y="-100"/>
      <point x="437" y="-30" type="curve" smooth="yes"/>
      <point x="507" y="298" type="line" smooth="yes"/>
      <point x="515" y="336"/>
      <point x="523" y="370"/>
      <point x="523" y="412" type="curve" smooth="yes"/>
      <point x="523" y="485"/>
      <point x="472" y="542"/>
      <point x="370" y="542" type="curve" smooth="yes"/>
      <point x="282" y="542"/>
      <point x="200" y="497"/>
      <point x="162" y="412" type="curve"/>
      <point x="185" y="530" type="line"/>
      <point x="157" y="530" type="line"/>
      <point x="44" y="0" type="line"/>
      <point x="74" y="0" type="line"/>
      <point x="142" y="317" type="line" smooth="yes"/>
      <point x="166" y="431"/>
      <point x="252" y="512"/>
      <point x="360" y="512" type="curve" smooth="yes"/>
      <point x="456" y="512"/>
      <point x="493" y="466"/>
      <point x="493" y="408" type="curve" smooth="yes"/>
      <point x="493" y="368"/>
      <point x="487" y="340"/>
      <point x="479" y="302" type="curve" smooth="yes"/>
      <point x="407" y="-30" type="line" smooth="yes"/>
      <point x="396" y="-83"/>
      <point x="351" y="-120"/>
      <point x="297" y="-120" type="curve" smooth="yes"/>
      <point x="219" y="-120" type="line"/>
    </contour>
  </outline>
</glyph>
<glyph name="OE" format="2">
  <advance width="600"/>
  <unicode hex="0152"/>
  <anchor x="244" y="0" name="bottom"/>
  <anchor x="395" y="710" name="top"/>
  <outline>
    <contour>
      <point x="117" y="-16" type="curve" smooth="yes"/>
      <point x="248" y="-16"/>
      <point x="382" y="284"/>
      <point x="382" y="561" type="curve" smooth="yes"/>
      <point x="382" y="671"/>
      <point x="348" y="726"/>
      <point x="286" y="726" type="curve" smooth="yes"/>
      <point x="142" y="726"/>
      <point x="14" y="433"/>
      <point x="14" y="153" type="curve" smooth="yes"/>
      <point x="14" y="41"/>
      <point x="46" y="-16"/>
    </contour>
    <contour>
      <point x="122" y="16" type="curve" smooth="yes"/>
      <point x="70" y="16"/>
      <point x="48" y="62"/>
      <point x="48" y="155" type="curve" smooth="yes"/>
      <point x="48" y="406"/>
      <point x="165" y="694"/>
      <point x="279" y="694" type="curve" smooth="yes"/>
      <point x="328" y="694"/>
      <point x="354" y="650"/>
      <point x="354" y="556" type="curve" smooth="yes"/>
      <point x="354" y="330"/>
      <point x="234" y="16"/>
    </contour>
    <contour>
      <point x="255" y="0" type="line"/>
      <point x="527" y="0" type="line"/>
      <point x="534" y="30" type="line"/>
      <point x="293" y="30" type="line"/>
      <point x="358" y="339" type="line"/>
      <point x="579" y="339" type="line"/>
      <point x="586" y="369" type="line"/>
      <point x="365" y="369" type="line"/>
      <point x="431" y="680" type="line"/>
      <point x="664" y="680" type="line"/>
      <point x="670" y="710" type="line"/>
      <point x="406" y="710" type="line"/>
    </contour>
  </outline>
</glyph>
<glyph name="oe" format="2">
  <advance width="600"/>
  <unicode hex="0153"/>
  <outline>
    <contour>
      <point x="379" y="-12" type="curve" smooth="yes"/>
      <point x="448" y="-12"/>
      <point x="509" y="39"/>
      <point x="555" y="143" type="curve"/>
      <point x="523" y="145" type="line"/>
      <point x="481" y="57"/>
      <point x="436" y="18"/>
      <point x="385" y="18" type="curve" smooth="yes"/>
      <point x="337" y="18"/>
      <point x="307" y="55"/>
      <point x="307" y="136" type="curve" smooth="yes"/>
      <point x="307" y="170"/>
      <point x="312" y="211"/>
      <point x="322" y="260" type="curve"/>
      <point x="581" y="260" type="line"/>
      <point x="593" y="316"/>
      <point x="598" y="358"/>
      <point x="598" y="393" type="curve" smooth="yes"/>
      <point x="598" y="490"/>
      <point x="560" y="542"/>
      <point x="497" y="542" type="curve" smooth="yes"/>
      <point x="361" y="542"/>
      <point x="278" y="303"/>
      <point x="278" y="134" type="curve" smooth="yes"/>
      <point x="278" y="37"/>
      <point x="316" y="-12"/>
    </contour>
    <contour>
      <point x="111" y="-12" type="curve" smooth="yes"/>
      <point x="273" y="-12"/>
      <point x="336" y="278"/>
      <point x="336" y="400" type="curve" smooth="yes"/>
      <point x="336" y="494"/>
      <point x="304" y="542"/>
      <point x="229" y="542" type="curve" smooth="yes"/>
      <point x="103" y="542"/>
      <point x="6" y="353"/>
      <point x="6" y="127" type="curve" smooth="yes"/>
      <point x="6" y="39"/>
      <point x="38" y="-12"/>
    </contour>
    <contour>
      <point x="117" y="18" type="curve" smooth="yes"/>
      <point x="61" y="18"/>
      <point x="38" y="47"/>
      <point x="38" y="130" type="curve" smooth="yes"/>
      <point x="38" y="328"/>
      <point x="121" y="512"/>
      <point x="223" y="512" type="curve" smooth="yes"/>
      <point x="282" y="512"/>
      <point x="306" y="474"/>
      <point x="306" y="398" type="curve" smooth="yes"/>
      <point x="306" y="208"/>
      <point x="219" y="18"/>
    </contour>
    <contour>
      <point x="328" y="288" type="line"/>
      <point x="362" y="432"/>
      <point x="431" y="512"/>
      <point x="491" y="512" type="curve" smooth="yes"/>
      <point x="541" y="512"/>
      <point x="566" y="471"/>
      <point x="566" y="391" type="curve" smooth="yes"/>
      <point x="566" y="363"/>
      <point x="562" y="329"/>
      <point x="555" y="288" type="curve"/>
    </contour>
  </outline>
</glyph>
<glyph name="tcaron" format="2">
  <advance width="600"/>
  <unicode hex="0165"/>
  <anchor x="321" y="0" name="bottom"/>
  <anchor x="281" y="325" name="center"/>
  <anchor x="315" y="530" name="top"/>
  <anchor x="421" y="596" name="topright"/>
  <outline>
    <contour>
      <point x="474" y="578" type="line"/>
      <point x="500" y="578" type="line"/>
      <point x="546" y="786" type="line"/>
      <point x="508" y="786" type="line"/>
    </contour>
    <component base="t"/>
  </outline>
</glyph>
<glyph name="Schwa" format="2">
  <advance width="600"/>
  <unicode hex="018F"/>
  <outline>
    <contour>
      <point x="552" y="335" type="line"/>
      <point x="558" y="365" type="line"/>
      <point x="67" y="365" type="line"/>
      <point x="59" y="319"/>
      <point x="55" y="276"/>
      <point x="55" y="238" type="curve" smooth="yes"/>
      <point x="55" y="48"/>
      <point x="122" y="-15"/>
      <point x="230" y="-15" type="curve" smooth="yes"/>
      <point x="429" y="-15"/>
      <point x="582" y="195"/>
      <point x="582" y="468" type="curve" smooth="yes"/>
      <point x="582" y="629"/>
      <point x="520" y="726"/>
      <point x="387" y="726" type="curve" smooth="yes"/>
      <point x="263" y="726"/>
      <point x="165" y="641"/>
      <point x="107" y="519" type="curve"/>
      <point x="140" y="516" type="line"/>
      <point x="194" y="624"/>
      <point x="283" y="694"/>
      <point x="381" y="694" type="curve" smooth="yes"/>
      <point x="505" y="694"/>
      <point x="548" y="602"/>
      <point x="548" y="460" type="curve" smooth="yes"/>
      <point x="548" y="208"/>
      <point x="408" y="17"/>
      <point x="236" y="17" type="curve" smooth="yes"/>
      <point x="136" y="17"/>
      <point x="89" y="70"/>
      <point x="89" y="248" type="curve" smooth="yes"/>
      <point x="89" y="276"/>
      <point x="92" y="307"/>
      <point x="96" y="335" type="curve"/>
    </contour>
  </outline>
</glyph>
<glyph name="florin" format="2">
  <advance width="600"/>
  <unicode hex="0192"/>
  <outline>
    <contour>
      <point x="27" y="0" type="line"/>
      <point x="134" y="0" type="line" smooth="yes"/>
      <point x="203" y="0"/>
      <point x="248" y="32"/>
      <point x="271" y="136" type="curve" smooth="yes"/>
      <point x="368" y="580" type="line" smooth="yes"/>
      <point x="384" y="651"/>
      <point x="410" y="680"/>
      <point x="475" y="680" type="curve" smooth="yes"/>
      <point x="607" y="680" type="line"/>
      <point x="610" y="710" type="line"/>
      <point x="482" y="710" type="line" smooth="yes"/>
      <point x="396" y="710"/>
      <point x="355" y="665"/>
      <point x="336" y="576" type="curve" smooth="yes"/>
      <point x="241" y="132" type="line" smooth="yes"/>
      <point x="224" y="52"/>
      <point x="189" y="30"/>
      <point x="143" y="30" type="curve" smooth="yes"/>
      <point x="30" y="30" type="line"/>
    </contour>
    <contour>
      <point x="142" y="500" type="line"/>
      <point x="570" y="500" type="line"/>
      <point x="576" y="530" type="line"/>
      <point x="148" y="530" type="line"/>
    </contour>
  </outline>
</glyph>
<glyph name="Uhorn" format="2">
  <advance width="600"/>
  <unicode hex="01AF"/>
  <anchor x="195" y="0" name="bottom"/>
  <anchor x="340" y="710" name="top"/>
  <outline>
    <contour>
      <point x="192" y="-16" type="curve" smooth="yes"/>
      <point x="333" y="-16"/>
      <point x="430" y="78"/>
      <point x="466" y="248" type="curve" smooth="yes"/>
      <point x="564" y="710" type="line"/>
      <point x="532" y="710" type="line"/>
      <point x="434" y="248" type="line" smooth="yes"/>
      <point x="403" y="104"/>
      <point x="319" y="16"/>
      <point x="197" y="16" type="curve" smooth="yes"/>
      <point x="97" y="16"/>
      <point x="51" y="62"/>
      <point x="51" y="164" type="curve" smooth="yes"/>
      <point x="51" y="190"/>
      <point x="57" y="230"/>
      <point x="66" y="272" type="curve" smooth="yes"/>
      <point x="159" y="710" type="line"/>
      <point x="127" y="710" type="line"/>
      <point x="34" y="271" type="line" smooth="yes"/>
      <point x="26" y="233"/>
      <point x="19" y="189"/>
      <point x="19" y="159" type="curve" smooth="yes"/>
      <point x="19" y="46"/>
      <point x="78" y="-16"/>
    </contour>
    <contour>
      <point x="532" y="690" type="line"/>
      <point x="574" y="690" type="line" smooth="yes"/>
      <point x="653" y="690"/>
      <point x="677" y="740"/>
      <point x="677" y="795" type="curve" smooth="yes"/>
      <point x="677" y="809"/>
      <point x="676" y="826"/>
      <point x="674" y="834" type="curve"/>
      <point x="644" y="834" type="line"/>
      <point x="645" y="824"/>
      <point x="647" y="809"/>
      <point x="647" y="794" type="curve" smooth="yes"/>
      <point x="647" y="739"/>
      <point x="626" y="710"/>
      <point x="570" y="710" type="curve" smooth="yes"/>
      <point x="532" y="710" type="line"/>
    </contour>
  </outline>
</glyph>
<glyph name="uhorn" format="2">
  <advance width="600"/>
  <unicode hex="01B0"/>
  <anchor x="197" y="0" name="bottom"/>
  <anchor x="304" y="530" name="top"/>
  <outline>
    <contour>
      <point x="173" y="-12" type="curve" smooth="yes"/>
      <point x="286" y="-12"/>
      <point x="372" y="46"/>
      <point x="404" y="145" type="curve"/>
      <point x="399" y="145" type="line"/>
      <point x="370" y="0" type="line"/>
      <point x="397" y="0" type="line"/>
      <point x="510" y="530" type="line"/>
      <point x="480" y="530" type="line"/>
      <point x="412" y="213" type="line" smooth="yes"/>
      <point x="387" y="94"/>
      <point x="300" y="18"/>
      <point x="180" y="18" type="curve" smooth="yes"/>
      <point x="96" y="18"/>
      <point x="62" y="51"/>
      <point x="62" y="108" type="curve" smooth="yes"/>
      <point x="62" y="152"/>
      <point x="72" y="208"/>
      <point x="80" y="244" type="curve" smooth="yes"/>
      <point x="141" y="530" type="line"/>
      <point x="111" y="530" type="line"/>
      <point x="54" y="263" type="line" smooth="yes"/>
      <point x="40" y="195"/>
      <point x="32" y="152"/>
      <point x="32" y="106" type="curve" smooth="yes"/>
      <point x="32" y="28"/>
      <point x="80" y="-12"/>
    </contour>
    <contour>
      <point x="473" y="510" type="line"/>
      <point x="515" y="510" type="line" smooth="yes"/>
      <point x="594" y="510"/>
      <point x="617" y="560"/>
      <point x="617" y="615" type="curve" smooth="yes"/>
      <point x="617" y="629"/>
      <point x="616" y="646"/>
      <point x="614" y="654" type="curve"/>
      <point x="584" y="654" type="line"/>
      <point x="585" y="644"/>
      <point x="587" y="629"/>
      <point x="587" y="614" type="curve" smooth="yes"/>
      <point x="587" y="559"/>
      <point x="567" y="530"/>
      <point x="511" y="530" type="curve" smooth="yes"/>
      <point x="473" y="530" type="line"/>
    </contour>
  </outline>
</glyph>
<glyph name="Ezh" format="2">
  <advance width="600"/>
  <unicode hex="01B7"/>
  <anchor x="294" y="710" name="top"/>
  <outline>
    <contour>
      <point x="298" y="-16" type="curve" smooth="yes"/>
      <point x="427" y="-16"/>
      <point x="520" y="79"/>
      <point x="520" y="199" type="curve" smooth="yes"/>
      <point x="520" y="334"/>
      <point x="416" y="423"/>
      <point x="269" y="415" type="curve"/>
      <point x="509" y="670" type="line"/>
      <point x="509" y="710" type="line"/>
      <point x="80" y="710" type="line"/>
      <point x="80" y="680" type="line"/>
      <point x="477" y="680" type="line"/>
      <point x="234" y="421" type="line"/>
      <point x="234" y="384" type="line"/>
      <point x="288" y="385" type="line" smooth="yes"/>
      <point x="404" y="387"/>
      <point x="486" y="310"/>
      <point x="486" y="199" type="curve" smooth="yes"/>
      <point x="486" y="97"/>
      <point x="408" y="16"/>
      <point x="298" y="16" type="curve" smooth="yes"/>
      <point x="216" y="16"/>
      <point x="137" y="63"/>
      <point x="76" y="146" type="curve"/>
      <point x="76" y="95" type="line"/>
      <point x="134" y="24"/>
      <point x="214" y="-16"/>
    </contour>
  </outline>
</glyph>
<glyph name="Gstroke" format="2">
  <advance width="600"/>
  <unicode hex="01E4"/>
  <anchor x="247" y="0" name="bottom"/>
  <anchor x="398" y="710" name="top"/>
  <outline>
    <contour>
      <point x="283" y="170" type="line"/>
      <point x="559" y="170" type="line"/>
      <point x="565" y="196" type="line"/>
      <point x="289" y="196" type="line"/>
    </contour>
    <contour>
      <point x="238" y="-16" type="curve" smooth="yes"/>
      <point x="392" y="-16"/>
      <point x="498" y="93"/>
      <point x="545" y="303" type="curve" smooth="yes"/>
      <point x="551" y="330" type="line"/>
      <point x="315" y="330" type="line"/>
      <point x="309" y="302" type="line"/>
      <point x="513" y="302" type="line"/>
      <point x="469" y="106"/>
      <point x="365" y="16"/>
      <point x="242" y="16" type="curve" smooth="yes"/>
      <point x="137" y="16"/>
      <point x="84" y="92"/>
      <point x="84" y="242" type="curve" smooth="yes"/>
      <point x="84" y="482"/>
      <point x="216" y="694"/>
      <point x="394" y="694" type="curve" smooth="yes"/>
      <point x="497" y="694"/>
      <point x="546" y="625"/>
      <point x="552" y="477" type="curve"/>
      <point x="586" y="481" type="line"/>
      <point x="580" y="643"/>
      <point x="514" y="726"/>
      <point x="401" y="726" type="curve" smooth="yes"/>
      <point x="199" y="726"/>
      <point x="51" y="510"/>
      <point x="50" y="236" type="curve" smooth="yes"/>
      <point x="50" y="79"/>
      <point x="117" y="-16"/>
    </contour>
  </outline>
</glyph>
<glyph name="gstroke" format="2">
  <advance width="600"/>
  <unicode hex="01E5"/>
  <anchor x="212" y="-150" name="bottom"/>
  <anchor x="356" y="530" name="top"/>
  <outline>
    <contour>
      <point x="275" y="266" type="line"/>
      <point x="580" y="266" type="line"/>
      <point x="586" y="294" type="line"/>
      <point x="281" y="294" type="line"/>
    </contour>
    <component base="g"/>
  </outline>
</glyph>
<glyph name="jdotless" format="2">
  <advance width="600"/>
  <unicode hex="0237"/>
  <anchor x="252" y="-150" name="bottom"/>
  <anchor x="516" y="530" name="top"/>
  <outline>
    <contour>
      <point x="32" y="-150" type="line"/>
      <point x="248" y="-150" type="line" smooth="yes"/>
      <point x="348" y="-150"/>
      <point x="401" y="-110"/>
      <point x="424" y="0" type="curve" smooth="yes"/>
      <point x="536" y="530" type="line"/>
      <point x="206" y="530" type="line"/>
      <point x="200" y="502" type="line"/>
      <point x="514" y="502" type="line"/>
      <point x="503" y="516" type="line"/>
      <point x="394" y="0" type="line" smooth="yes"/>
      <point x="374" y="-94"/>
      <point x="330" y="-122"/>
      <point x="254" y="-122" type="curve" smooth="yes"/>
      <point x="38" y="-122" type="line"/>
    </contour>
  </outline>
</glyph>
<glyph name="verticallinemod" format="2">
  <advance width="600"/>
  <unicode hex="02C8"/>
  <outline>
    <contour>
      <point x="321" y="427" type="line"/>
      <point x="349" y="427" type="line"/>
      <point x="400" y="640" type="line"/>
      <point x="415" y="710" type="line"/>
      <point x="375" y="710" type="line"/>
      <point x="360" y="640" type="line"/>
    </contour>
  </outline>
</glyph>
<glyph name="gravecomb" format="2">
  <advance width="600"/>
  <unicode hex="0300"/>
  <anchor x="402" y="530" name="_top"/>
  <anchor x="438" y="734" name="top"/>
  <outline>
    <contour>
      <point x="399" y="610" type="line"/>
      <point x="425" y="610" type="line"/>
      <point x="380" y="726" type="line"/>
      <point x="346" y="726" type="line"/>
    </contour>
  </outline>
</glyph>
<glyph name="acutecomb" format="2">
  <advance width="600"/>
  <unicode hex="0301"/>
  <anchor x="319" y="530" name="_top"/>
  <anchor x="363" y="734" name="top"/>
  <outline>
    <contour>
      <point x="319" y="610" type="line"/>
      <point x="345" y="610" type="line"/>
      <point x="452" y="726" type="line"/>
      <point x="418" y="726" type="line"/>
    </contour>
  </outline>
</glyph>
<glyph name="circumflexcomb" format="2">
  <advance width="600"/>
  <unicode hex="0302"/>
  <anchor x="356" y="530" name="_top"/>
  <anchor x="399" y="734" name="top"/>
  <outline>
    <contour>
      <point x="273" y="610" type="line"/>
      <point x="303" y="610" type="line"/>
      <point x="403" y="716" type="line"/>
      <point x="391" y="716" type="line"/>
      <point x="447" y="610" type="line"/>
      <point x="473" y="610" type="line"/>
      <point x="410" y="734" type="line"/>
      <point x="388" y="734" type="line"/>
    </contour>
  </outline>
</glyph>
<glyph name="tildecomb" format="2">
  <advance width="600"/>
  <unicode hex="0303"/>
  <anchor x="356" y="530" name="_top"/>
  <anchor x="397" y="723" name="top"/>
  <outline>
    <contour>
      <point x="442" y="630" type="curve" smooth="yes"/>
      <point x="488" y="630"/>
      <point x="513" y="667"/>
      <point x="529" y="723" type="curve"/>
      <point x="503" y="723" type="line"/>
      <point x="491" y="677"/>
      <point x="468" y="654"/>
      <point x="444" y="654" type="curve" smooth="yes"/>
      <point x="426" y="654"/>
      <point x="417" y="662"/>
      <point x="402" y="680" type="curve" smooth="yes"/>
      <point x="382" y="704"/>
      <point x="366" y="714"/>
      <point x="336" y="714" type="curve" smooth="yes"/>
      <point x="290" y="714"/>
      <point x="261" y="681"/>
      <point x="245" y="625" type="curve"/>
      <point x="271" y="625" type="line"/>
      <point x="283" y="671"/>
      <point x="304" y="690"/>
      <point x="334" y="690" type="curve" smooth="yes"/>
      <point x="354" y="690"/>
      <point x="367" y="682"/>
      <point x="382" y="662" type="curve" smooth="yes"/>
      <point x="399" y="639"/>
      <point x="414" y="630"/>
    </contour>
  </outline>
</glyph>
<glyph name="macroncomb" format="2">
  <advance width="600"/>
  <unicode hex="0304"/>
  <anchor x="357" y="530" name="_top"/>
  <anchor x="387" y="672" name="top"/>
  <outline>
    <contour>
      <point x="257" y="644" type="line"/>
      <point x="505" y="644" type="line"/>
      <point x="511" y="672" type="line"/>
      <point x="263" y="672" type="line"/>
    </contour>
  </outline>
</glyph>
<glyph name="brevecomb" format="2">
  <advance width="600"/>
  <unicode hex="0306"/>
  <anchor x="357" y="530" name="_top"/>
  <anchor x="400" y="734" name="top"/>
  <outline>
    <contour>
      <point x="378" y="618" type="curve" smooth="yes"/>
      <point x="452" y="618"/>
      <point x="499" y="664"/>
      <point x="524" y="734" type="curve"/>
      <point x="498" y="734" type="line"/>
      <point x="478" y="676"/>
      <point x="436" y="646"/>
      <point x="382" y="646" type="curve" smooth="yes"/>
      <point x="326" y="646"/>
      <point x="302" y="666"/>
      <point x="302" y="734" type="curve"/>
      <point x="276" y="734" type="line"/>
      <point x="276" y="650"/>
      <point x="312" y="618"/>
    </contour>
  </outline>
</glyph>
<glyph name="dotaccentcomb" format="2">
  <advance width="600"/>
  <unicode hex="0307"/>
  <anchor x="356" y="530" name="_top"/>
  <anchor x="392" y="698" name="top"/>
  <outline>
    <contour>
      <point x="360" y="628" type="line"/>
      <point x="394" y="628" type="line"/>
      <point x="409" y="698" type="line"/>
      <point x="375" y="698" type="line"/>
    </contour>
  </outline>
</glyph>
<glyph name="hookabovecomb" format="2">
  <advance width="600"/>
  <unicode hex="0309"/>
  <anchor x="352" y="530" name="_top"/>
  <anchor x="395" y="730" name="top"/>
  <outline>
    <contour>
      <point x="377" y="592" type="line"/>
      <point x="413" y="616"/>
      <point x="444" y="645"/>
      <point x="444" y="686" type="curve" smooth="yes"/>
      <point x="444" y="711"/>
      <point x="429" y="730"/>
      <point x="393" y="730" type="curve" smooth="yes"/>
      <point x="371" y="730"/>
      <point x="354" y="726"/>
      <point x="341" y="720" type="curve"/>
      <point x="336" y="698" type="line"/>
      <point x="351" y="704"/>
      <point x="368" y="708"/>
      <point x="386" y="708" type="curve" smooth="yes"/>
      <point x="409" y="708"/>
      <point x="419" y="698"/>
      <point x="419" y="682" type="curve" smooth="yes"/>
      <point x="419" y="645"/>
      <point x="387" y="618"/>
      <point x="351" y="592" type="curve"/>
    </contour>
  </outline>
</glyph>
<glyph name="ringcomb" format="2">
  <advance width="600"/>
  <unicode hex="030A"/>
  <anchor x="356" y="530" name="_top"/>
  <anchor x="400" y="734" name="top"/>
  <outline>
    <contour>
      <point x="370" y="592" type="curve" smooth="yes"/>
      <point x="424" y="592"/>
      <point x="458" y="627"/>
      <point x="458" y="677" type="curve" smooth="yes"/>
      <point x="458" y="709"/>
      <point x="438" y="734"/>
      <point x="400" y="734" type="curve" smooth="yes"/>
      <point x="346" y="734"/>
      <point x="311" y="699"/>
      <point x="311" y="649" type="curve" smooth="yes"/>
      <point x="311" y="616"/>
      <point x="332" y="592"/>
    </contour>
    <contour>
      <point x="374" y="617" type="curve" smooth="yes"/>
      <point x="349" y="617"/>
      <point x="338" y="629"/>
      <point x="338" y="652" type="curve" smooth="yes"/>
      <point x="338" y="688"/>
      <point x="363" y="708"/>
      <point x="396" y="708" type="curve" smooth="yes"/>
      <point x="421" y="708"/>
      <point x="431" y="697"/>
      <point x="431" y="675" type="curve" smooth="yes"/>
      <point x="431" y="639"/>
      <point x="407" y="617"/>
    </contour>
  </outline>
</glyph>
<glyph name="horncomb" format="2">
  <advance width="600"/>
  <unicode hex="031B"/>
  <anchor x="291" y="530" name="_topright"/>
  <outline>
    <contour>
      <point x="291" y="510" type="line"/>
      <point x="333" y="510" type="line" smooth="yes"/>
      <point x="412" y="510"/>
      <point x="436" y="560"/>
      <point x="436" y="615" type="curve" smooth="yes"/>
      <point x="436" y="629"/>
      <point x="435" y="646"/>
      <point x="433" y="654" type="curve"/>
      <point x="403" y="654" type="line"/>
      <point x="404" y="644"/>
      <point x="406" y="629"/>
      <point x="406" y="614" type="curve" smooth="yes"/>
      <point x="406" y="559"/>
      <point x="385" y="530"/>
      <point x="329" y="530" type="curve" smooth="yes"/>
      <point x="291" y="530" type="line"/>
    </contour>
  </outline>
</glyph>
<glyph name="dotbelowcomb" format="2">
  <advance width="600"/>
  <unicode hex="0323"/>
  <anchor x="245" y="0" name="_bottom"/>
  <anchor x="213" y="-150" name="bottom"/>
  <outline>
    <contour>
      <point x="196" y="-150" type="line"/>
      <point x="230" y="-150" type="line"/>
      <point x="242" y="-90" type="line"/>
      <point x="208" y="-90" type="line"/>
    </contour>
  </outline>
</glyph>
<glyph name="commaaccentcomb" format="2">
  <advance width="600"/>
  <unicode hex="0326"/>
  <anchor x="249" y="0" name="_bottom"/>
  <anchor x="208" y="-169" name="bottom"/>
  <outline>
    <contour>
      <point x="176" y="-169" type="line"/>
      <point x="198" y="-169" type="line"/>
      <point x="257" y="-89" type="line"/>
      <point x="266" y="-46" type="line"/>
      <point x="216" y="-46" type="line"/>
      <point x="206" y="-94" type="line"/>
      <point x="230" y="-94" type="line"/>
    </contour>
  </outline>
</glyph>
<glyph name="cedillacomb" format="2">
  <advance width="600"/>
  <unicode hex="0327"/>
  <anchor x="253" y="0" name="_bottom"/>
  <outline>
    <contour>
      <point x="201" y="-204" type="curve" smooth="yes"/>
      <point x="265" y="-204"/>
      <point x="312" y="-176"/>
      <point x="312" y="-116" type="curve" smooth="yes"/>
      <point x="312" y="-76"/>
      <point x="284" y="-50"/>
      <point x="230" y="-48" type="curve"/>
      <point x="269" y="4" type="line"/>
      <point x="241" y="4" type="line"/>
      <point x="199" y="-54" type="line"/>
      <point x="209" y="-72" type="line"/>
      <point x="269" y="-72"/>
      <point x="284" y="-92"/>
      <point x="284" y="-121" type="curve" smooth="yes"/>
      <point x="284" y="-161"/>
      <point x="251" y="-178"/>
      <point x="205" y="-178" type="curve" smooth="yes"/>
      <point x="161" y="-178"/>
      <point x="146" y="-160"/>
      <point x="144" y="-134" type="curve"/>
      <point x="118" y="-144" type="line"/>
      <point x="122" y="-182"/>
      <point x="149" y="-204"/>
    </contour>
  </outline>
</glyph>
<glyph name="ogonekcomb" format="2">
  <advance width="600"/>
  <unicode hex="0328"/>
  <anchor x="268" y="0" name="_ogonek"/>
  <outline>
    <contour>
      <point x="205" y="-192" type="curve" smooth="yes"/>
      <point x="234" y="-192"/>
      <point x="254" y="-185"/>
      <point x="275" y="-173" type="curve"/>
      <point x="265" y="-151" type="line"/>
      <point x="251" y="-160"/>
      <point x="230" y="-166"/>
      <point x="208" y="-166" type="curve" smooth="yes"/>
      <point x="190" y="-166"/>
      <point x="177" y="-160"/>
      <point x="177" y="-140" type="curve" smooth="yes"/>
      <point x="177" y="-114"/>
      <point x="195" y="-86"/>
      <point x="234" y="-40" type="curve" smooth="yes"/>
      <point x="268" y="0" type="line"/>
      <point x="251" y="10" type="line"/>
      <point x="216" y="-28" type="line" smooth="yes"/>
      <point x="174" y="-73"/>
      <point x="147" y="-107"/>
      <point x="147" y="-144" type="curve" smooth="yes"/>
      <point x="147" y="-180"/>
      <point x="175" y="-192"/>
    </contour>
  </outline>
</glyph>
<glyph name="strokeshortcomb" format="2">
  <advance width="600"/>
  <unicode hex="0335"/>
  <anchor x="318" y="349" name="_center"/>
  <outline>
    <contour>
      <point x="185" y="336" type="line"/>
      <point x="445" y="336" type="line"/>
      <point x="451" y="362" type="line"/>
      <point x="191" y="362" type="line"/>
    </contour>
  </outline>
</glyph>
<glyph name="strokelongcomb" format="2">
  <advance width="600"/>
  <unicode hex="0336"/>
  <anchor x="365" y="571" name="_center"/>
  <outline>
    <contour>
      <point x="92" y="557" type="line"/>
      <point x="632" y="557" type="line"/>
      <point x="638" y="585" type="line"/>
      <point x="98" y="585" type="line"/>
    </contour>
  </outline>
</glyph>
<glyph name="slashshortcomb" format="2">
  <advance width="600"/>
  <unicode hex="0337"/>
  <anchor x="328" y="394" name="_center"/>
  <outline>
    <contour>
      <point x="153" y="320" type="line"/>
      <point x="497" y="440" type="line"/>
      <point x="503" y="468" type="line"/>
      <point x="158" y="348" type="line"/>
    </contour>
  </outline>
</glyph>
<glyph name="slashlongcomb" format="2">
  <advance width="600"/>
  <unicode hex="0338"/>
  <anchor x="300" y="263" name="_center"/>
  <outline>
    <contour>
      <point x="40" y="-16" type="line"/>
      <point x="72" y="-16" type="line"/>
      <point x="559" y="542" type="line"/>
      <point x="527" y="542" type="line"/>
    </contour>
  </outline>
</glyph>
<glyph name="Lambda" format="2">
  <advance width="600"/>
  <unicode hex="039B"/>
  <outline>
    <contour>
      <point x="-16" y="0" type="line"/>
      <point x="17" y="0" type="line"/>
      <point x="390" y="678" type="line"/>
      <point x="471" y="0" type="line"/>
      <point x="504" y="0" type="line"/>
      <point x="413" y="710" type="line"/>
      <point x="375" y="710" type="line"/>
    </contour>
  </outline>
</glyph>
<glyph name="Omega" format="2">
  <advance width="600"/>
  <unicode hex="03A9"/>
  <outline>
    <contour>
      <point x="-30" y="0" type="line"/>
      <point x="192" y="0" type="line"/>
      <point x="199" y="33" type="line"/>
      <point x="129" y="45"/>
      <point x="69" y="140"/>
      <point x="69" y="271" type="curve" smooth="yes"/>
      <point x="69" y="502"/>
      <point x="214" y="694"/>
      <point x="379" y="694" type="curve" smooth="yes"/>
      <point x="506" y="694"/>
      <point x="578" y="612"/>
      <point x="578" y="469" type="curve" smooth="yes"/>
      <point x="578" y="261"/>
      <point x="432" y="51"/>
      <point x="289" y="33" type="curve"/>
      <point x="282" y="0" type="line"/>
      <point x="521" y="0" type="line"/>
      <point x="527" y="30" type="line"/>
      <point x="356" y="30" type="line"/>
      <point x="486" y="74"/>
      <point x="613" y="266"/>
      <point x="613" y="476" type="curve" smooth="yes"/>
      <point x="613" y="634"/>
      <point x="526" y="726"/>
      <point x="386" y="726" type="curve" smooth="yes"/>
      <point x="194" y="726"/>
      <point x="35" y="531"/>
      <point x="35" y="271" type="curve" smooth="yes"/>
      <point x="35" y="152"/>
      <point x="84" y="56"/>
      <point x="144" y="30" type="curve"/>
      <point x="-24" y="30" type="line"/>
    </contour>
  </outline>
</glyph>
<glyph name="lambda" format="2">
  <advance width="600"/>
  <unicode hex="03BB"/>
  <outline>
    <contour>
      <point x="470" y="0" type="curve" smooth="yes"/>
      <point x="490" y="0" type="line"/>
      <point x="496" y="30" type="line"/>
      <point x="472" y="30" type="line" smooth="yes"/>
      <point x="442" y="30"/>
      <point x="436" y="35"/>
      <point x="426" y="88" type="curve" smooth="yes"/>
      <point x="332" y="612" type="line" smooth="yes"/>
      <point x="319" y="684"/>
      <point x="299" y="710"/>
      <point x="236" y="710" type="curve" smooth="yes"/>
      <point x="204" y="710" type="line"/>
      <point x="198" y="680" type="line"/>
      <point x="230" y="680" type="line" smooth="yes"/>
      <point x="282" y="680"/>
      <point x="290" y="664"/>
      <point x="300" y="612" type="curve" smooth="yes"/>
      <point x="398" y="79" type="line" smooth="yes"/>
      <point x="411" y="11"/>
      <point x="419" y="0"/>
    </contour>
    <contour>
      <point x="-2" y="0" type="line"/>
      <point x="30" y="0" type="line"/>
      <point x="332" y="502" type="line"/>
      <point x="318" y="530" type="line"/>
    </contour>
  </outline>
</glyph>
<glyph name="pi" format="2">
  <advance width="600"/>
  <unicode hex="03C0"/>
  <outline>
    <contour>
      <point x="462" y="0" type="curve" smooth="yes"/>
      <point x="494" y="0" type="line"/>
      <point x="499" y="27" type="line"/>
      <point x="465" y="27" type="line" smooth="yes"/>
      <point x="430" y="27"/>
      <point x="410" y="46"/>
      <point x="410" y="78" type="curve" smooth="yes"/>
      <point x="410" y="98"/>
      <point x="417" y="129"/>
      <point x="423" y="157" type="curve" smooth="yes"/>
      <point x="499" y="516" type="line"/>
      <point x="469" y="516" type="line"/>
      <point x="393" y="160" type="line" smooth="yes"/>
      <point x="388" y="138"/>
      <point x="380" y="98"/>
      <point x="380" y="74" type="curve" smooth="yes"/>
      <point x="380" y="27"/>
      <point x="413" y="0"/>
    </contour>
    <contour>
      <point x="103" y="0" type="line"/>
      <point x="133" y="0" type="line"/>
      <point x="242" y="516" type="line"/>
      <point x="212" y="516" type="line"/>
    </contour>
    <contour>
      <point x="100" y="500" type="line"/>
      <point x="600" y="500" type="line"/>
      <point x="606" y="530" type="line"/>
      <point x="106" y="530" type="line"/>
    </contour>
  </outline>
</glyph>
<glyph name="Dje-cy" format="2">
  <advance width="600"/>
  <unicode hex="0402"/>
  <outline>
    <contour>
      <point x="318" y="-16" type="curve" smooth="yes"/>
      <point x="476" y="-16"/>
      <point x="588" y="121"/>
      <point x="588" y="300" type="curve" smooth="yes"/>
      <point x="588" y="404"/>
      <point x="532" y="470"/>
      <point x="424" y="470" type="curve" smooth="yes"/>
      <point x="328" y="470"/>
      <point x="247" y="410"/>
      <point x="213" y="370" type="curve"/>
      <point x="226" y="362" type="line"/>
      <point x="298" y="700" type="line"/>
      <point x="266" y="700" type="line"/>
      <point x="117" y="0" type="line"/>
      <point x="149" y="0" type="line"/>
      <point x="222" y="342" type="line"/>
      <point x="262" y="388"/>
      <point x="337" y="438"/>
      <point x="417" y="438" type="curve" smooth="yes"/>
      <point x="508" y="438"/>
      <point x="554" y="387"/>
      <point x="554" y="297" type="curve" smooth="yes"/>
      <point x="554" y="137"/>
      <point x="459" y="16"/>
      <point x="325" y="16" type="curve" smooth="yes"/>
      <point x="303" y="16"/>
      <point x="271" y="18"/>
      <point x="250" y="22" type="curve"/>
      <point x="243" y="-10" type="line"/>
      <point x="264" y="-14"/>
      <point x="289" y="-16"/>
    </contour>
    <contour>
      <point x="99" y="680" type="line"/>
      <point x="615" y="680" type="line"/>
      <point x="621" y="710" type="line"/>
      <point x="105" y="710" type="line"/>
    </contour>
  </outline>
</glyph>
<glyph name="E-cy" format="2">
  <advance width="600"/>
  <unicode hex="0404"/>
  <anchor x="254" y="0" name="bottom"/>
  <anchor x="395" y="710" name="top"/>
  <outline>
    <contour>
      <point x="87" y="345" type="line"/>
      <point x="435" y="345" type="line"/>
      <point x="441" y="375" type="line"/>
      <point x="93" y="375" type="line"/>
    </contour>
    <component base="C"/>
  </outline>
</glyph>
<glyph name="Lje-cy" format="2">
  <advance width="600"/>
  <unicode hex="0409"/>
  <outline>
    <contour>
      <point x="-46" y="0" type="line"/>
      <point x="-35" y="0" type="line" smooth="yes"/>
      <point x="31" y="0"/>
      <point x="70" y="34"/>
      <point x="100" y="138" type="curve" smooth="yes"/>
      <point x="255" y="680" type="line"/>
      <point x="414" y="680" type="line"/>
      <point x="434" y="710" type="line"/>
      <point x="233" y="710" type="line"/>
      <point x="71" y="144" type="line" smooth="yes"/>
      <point x="44" y="48"/>
      <point x="17" y="30"/>
      <point x="-31" y="30" type="curve" smooth="yes"/>
      <point x="-40" y="30" type="line"/>
    </contour>
    <contour>
      <point x="252" y="0" type="line"/>
      <point x="324" y="0" type="line" smooth="yes"/>
      <point x="484" y="0"/>
      <point x="584" y="118"/>
      <point x="584" y="274" type="curve" smooth="yes"/>
      <point x="584" y="368"/>
      <point x="523" y="425"/>
      <point x="414" y="425" type="curve" smooth="yes"/>
      <point x="374" y="425" type="line"/>
      <point x="434" y="710" type="line"/>
      <point x="400" y="700" type="line"/>
    </contour>
    <contour>
      <point x="290" y="30" type="line"/>
      <point x="368" y="395" type="line"/>
      <point x="408" y="395" type="line" smooth="yes"/>
      <point x="508" y="395"/>
      <point x="550" y="352"/>
      <point x="550" y="271" type="curve" smooth="yes"/>
      <point x="550" y="127"/>
      <point x="464" y="30"/>
      <point x="330" y="30" type="curve" smooth="yes"/>
    </contour>
  </outline>
</glyph>
<glyph name="Nje-cy" format="2">
  <advance width="600"/>
  <unicode hex="040A"/>
  <outline>
    <contour>
      <point x="-15" y="0" type="line"/>
      <point x="17" y="0" type="line"/>
      <point x="93" y="359" type="line"/>
      <point x="82" y="349" type="line"/>
      <point x="315" y="349" type="line"/>
      <point x="321" y="379" type="line"/>
      <point x="88" y="379" type="line"/>
      <point x="95" y="370" type="line"/>
      <point x="167" y="710" type="line"/>
      <point x="135" y="710" type="line"/>
    </contour>
    <contour>
      <point x="233" y="0" type="line"/>
      <point x="315" y="0" type="line" smooth="yes"/>
      <point x="477" y="0"/>
      <point x="572" y="117"/>
      <point x="572" y="257" type="curve" smooth="yes"/>
      <point x="572" y="347"/>
      <point x="516" y="399"/>
      <point x="400" y="399" type="curve" smooth="yes"/>
      <point x="349" y="399" type="line"/>
      <point x="415" y="710" type="line"/>
      <point x="383" y="710" type="line"/>
    </contour>
    <contour>
      <point x="271" y="30" type="line"/>
      <point x="343" y="369" type="line"/>
      <point x="394" y="369" type="line" smooth="yes"/>
      <point x="498" y="369"/>
      <point x="538" y="333"/>
      <point x="538" y="254" type="curve" smooth="yes"/>
      <point x="538" y="132"/>
      <point x="465" y="30"/>
      <point x="321" y="30" type="curve" smooth="yes"/>
    </contour>
  </outline>
</glyph>
<glyph name="Tshe-cy" format="2">
  <advance width="600"/>
  <unicode hex="040B"/>
  <outline>
    <contour>
      <point x="89" y="680" type="line"/>
      <point x="549" y="680" type="line"/>
      <point x="555" y="710" type="line"/>
      <point x="95" y="710" type="line"/>
    </contour>
    <contour>
      <point x="115" y="0" type="line"/>
      <point x="147" y="0" type="line"/>
      <point x="220" y="346" type="line"/>
      <point x="266" y="390"/>
      <point x="350" y="438"/>
      <point x="424" y="438" type="curve" smooth="yes"/>
      <point x="507" y="438"/>
      <point x="553" y="400"/>
      <point x="553" y="318" type="curve" smooth="yes"/>
      <point x="553" y="301"/>
      <point x="550" y="276"/>
      <point x="543" y="244" type="curve" smooth="yes"/>
      <point x="492" y="0" type="line"/>
      <point x="524" y="0" type="line"/>
      <point x="575" y="241" type="line" smooth="yes"/>
      <point x="581" y="269"/>
      <point x="586" y="293"/>
      <point x="586" y="320" type="curve" smooth="yes"/>
      <point x="586" y="414"/>
      <point x="526" y="469"/>
      <point x="428" y="469" type="curve" smooth="yes"/>
      <point x="338" y="469"/>
      <point x="246" y="404"/>
      <point x="213" y="374" type="curve"/>
      <point x="223" y="362" type="line"/>
      <point x="295" y="696" type="line"/>
      <point x="263" y="696" type="line"/>
    </contour>
  </outline>
</glyph>
<glyph name="Dzhe-cy" format="2">
  <advance width="600"/>
  <unicode hex="040F"/>
  <outline>
    <contour>
      <point x="24" y="0" type="line"/>
      <point x="464" y="0" type="line"/>
      <point x="615" y="710" type="line"/>
      <point x="583" y="710" type="line"/>
      <point x="439" y="30" type="line"/>
      <point x="63" y="30" type="line"/>
      <point x="207" y="710" type="line"/>
      <point x="175" y="710" type="line"/>
    </contour>
    <contour>
      <point x="198" y="-150" type="line"/>
      <point x="228" y="-150" type="line"/>
      <point x="263" y="15" type="line"/>
      <point x="233" y="15" type="line"/>
    </contour>
  </outline>
</glyph>
<glyph name="Be-cy" format="2">
  <advance width="600"/>
  <unicode hex="0411"/>
  <outline>
    <contour>
      <point x="24" y="0" type="line"/>
      <point x="258" y="0" type="line" smooth="yes"/>
      <point x="438" y="0"/>
      <point x="539" y="112"/>
      <point x="539" y="238" type="curve" smooth="yes"/>
      <point x="539" y="340"/>
      <point x="476" y="405"/>
      <point x="342" y="405" type="curve" smooth="yes"/>
      <point x="142" y="405" type="line"/>
      <point x="204" y="694" type="line"/>
      <point x="187" y="680" type="line"/>
      <point x="546" y="680" type="line"/>
      <point x="552" y="710" type="line"/>
      <point x="175" y="710" type="line"/>
    </contour>
    <contour>
      <point x="62" y="30" type="line"/>
      <point x="136" y="375" type="line"/>
      <point x="338" y="375" type="line" smooth="yes"/>
      <point x="456" y="375"/>
      <point x="505" y="329"/>
      <point x="505" y="236" type="curve" smooth="yes"/>
      <point x="505" y="110"/>
      <point x="406" y="30"/>
      <point x="262" y="30" type="curve" smooth="yes"/>
    </contour>
  </outline>
</glyph>
<glyph name="Ge-cy" format="2">
  <advance width="600"/>
  <unicode hex="0413"/>
  <anchor x="395" y="710" name="top"/>
  <outline>
    <contour>
      <point x="45" y="0" type="line"/>
      <point x="77" y="0" type="line"/>
      <point x="221" y="680" type="line"/>
      <point x="628" y="680" type="line"/>
      <point x="634" y="710" type="line"/>
      <point x="195" y="710" type="line"/>
    </contour>
  </outline>
</glyph>
<glyph name="De-cy" format="2">
  <advance width="600"/>
  <unicode hex="0414"/>
  <outline>
    <contour>
      <point x="-68" y="-150" type="line"/>
      <point x="-38" y="-150" type="line"/>
      <point x="-7" y="0" type="line"/>
      <point x="491" y="0" type="line"/>
      <point x="460" y="-150" type="line"/>
      <point x="492" y="-150" type="line"/>
      <point x="530" y="30" type="line"/>
      <point x="462" y="30" type="line"/>
      <point x="606" y="710" type="line"/>
      <point x="294" y="710" type="line"/>
      <point x="134" y="190" type="line" smooth="yes"/>
      <point x="108" y="104"/>
      <point x="75" y="56"/>
      <point x="34" y="30" type="curve"/>
      <point x="-30" y="30" type="line"/>
    </contour>
    <contour>
      <point x="68" y="30" type="line"/>
      <point x="97" y="46"/>
      <point x="134" y="94"/>
      <point x="162" y="180" type="curve" smooth="yes"/>
      <point x="318" y="680" type="line"/>
      <point x="568" y="680" type="line"/>
      <point x="430" y="30" type="line"/>
    </contour>
  </outline>
</glyph>
<glyph name="Zhe-cy" format="2">
  <advance width="600"/>
  <unicode hex="0416"/>
  <outline>
    <contour>
      <point x="496" y="0" type="line"/>
      <point x="534" y="0" type="line"/>
      <point x="363" y="355" type="line"/>
      <point x="676" y="710" type="line"/>
      <point x="638" y="710" type="line"/>
      <point x="329" y="355" type="line"/>
    </contour>
    <contour>
      <point x="228" y="0" type="line"/>
      <point x="260" y="0" type="line"/>
      <point x="410" y="710" type="line"/>
      <point x="378" y="710" type="line"/>
    </contour>
    <contour>
      <point x="-8" y="0" type="line"/>
      <point x="309" y="355" type="line"/>
      <point x="150" y="710" type="line"/>
      <point x="112" y="710" type="line"/>
      <point x="275" y="355" type="line"/>
      <point x="-46" y="0" type="line"/>
    </contour>
  </outline>
</glyph>
<glyph name="Ze-cy" format="2">
  <advance width="600"/>
  <unicode hex="0417"/>
  <outline>
    <contour>
      <point x="245" y="-16" type="curve" smooth="yes"/>
      <point x="419" y="-16"/>
      <point x="517" y="94"/>
      <point x="517" y="236" type="curve" smooth="yes"/>
      <point x="517" y="316"/>
      <point x="466" y="362"/>
      <point x="377" y="372" type="curve"/>
      <point x="373" y="354" type="line"/>
      <point x="502" y="366"/>
      <point x="588" y="448"/>
      <point x="588" y="562" type="curve" smooth="yes"/>
      <point x="588" y="660"/>
      <point x="519" y="726"/>
      <point x="396" y="726" type="curve" smooth="yes"/>
      <point x="257" y="726"/>
      <point x="170" y="657"/>
      <point x="130" y="547" type="curve"/>
      <point x="162" y="544" type="line"/>
      <point x="198" y="640"/>
      <point x="278" y="694"/>
      <point x="390" y="694" type="curve" smooth="yes"/>
      <point x="503" y="694"/>
      <point x="554" y="644"/>
      <point x="554" y="558" type="curve" smooth="yes"/>
      <point x="554" y="462"/>
      <point x="482" y="378"/>
      <point x="360" y="378" type="curve" smooth="yes"/>
      <point x="218" y="378" type="line"/>
      <point x="212" y="348" type="line"/>
      <point x="354" y="348" type="line" smooth="yes"/>
      <point x="438" y="348"/>
      <point x="483" y="306"/>
      <point x="483" y="234" type="curve" smooth="yes"/>
      <point x="483" y="102"/>
      <point x="394" y="16"/>
      <point x="250" y="16" type="curve" smooth="yes"/>
      <point x="134" y="16"/>
      <point x="84" y="61"/>
      <point x="84" y="177" type="curve"/>
      <point x="52" y="174" type="line"/>
      <point x="52" y="43"/>
      <point x="123" y="-16"/>
    </contour>
  </outline>
</glyph>
<glyph name="Ii-cy" format="2">
  <advance width="600"/>
  <unicode hex="0418"/>
  <anchor x="395" y="710" name="top"/>
  <outline>
    <contour>
      <point x="25" y="0" type="line"/>
      <point x="72" y="0" type="line"/>
      <point x="586" y="692" type="line"/>
      <point x="579" y="694" type="line"/>
      <point x="432" y="0" type="line"/>
      <point x="464" y="0" type="line"/>
      <point x="614" y="710" type="line"/>
      <point x="567" y="710" type="line"/>
      <point x="52" y="18" type="line"/>
      <point x="60" y="16" type="line"/>
      <point x="207" y="710" type="line"/>
      <point x="175" y="710" type="line"/>
    </contour>
  </outline>
</glyph>
<glyph name="Ka-cy" format="2">
  <advance width="600"/>
  <unicode hex="041A"/>
  <anchor x="376" y="710" name="top"/>
  <outline>
    <contour>
      <point x="426" y="0" type="line"/>
      <point x="464" y="0" type="line"/>
      <point x="181" y="353" type="line"/>
      <point x="604" y="710" type="line"/>
      <point x="564" y="710" type="line"/>
      <point x="144" y="355" type="line"/>
    </contour>
    <contour>
      <point x="45" y="0" type="line"/>
      <point x="77" y="0" type="line"/>
      <point x="227" y="710" type="line"/>
      <point x="195" y="710" type="line"/>
    </contour>
  </outline>
</glyph>
<glyph name="El-cy" format="2">
  <advance width="600"/>
  <unicode hex="041B"/>
  <outline>
    <contour>
      <point x="-26" y="0" type="line"/>
      <point x="-15" y="0" type="line" smooth="yes"/>
      <point x="51" y="0"/>
      <point x="88" y="34"/>
      <point x="120" y="138" type="curve" smooth="yes"/>
      <point x="289" y="680" type="line"/>
      <point x="596" y="680" type="line"/>
      <point x="452" y="0" type="line"/>
      <point x="484" y="0" type="line"/>
      <point x="634" y="710" type="line"/>
      <point x="267" y="710" type="line"/>
      <point x="91" y="144" type="line" smooth="yes"/>
      <point x="62" y="48"/>
      <point x="37" y="30"/>
      <point x="-11" y="30" type="curve" smooth="yes"/>
      <point x="-20" y="30" type="line"/>
    </contour>
  </outline>
</glyph>
<glyph name="Pe-cy" format="2">
  <advance width="600"/>
  <unicode hex="041F"/>
  <outline>
    <contour>
      <point x="24" y="0" type="line"/>
      <point x="56" y="0" type="line"/>
      <point x="201" y="680" type="line"/>
      <point x="577" y="680" type="line"/>
      <point x="432" y="0" type="line"/>
      <point x="464" y="0" type="line"/>
      <point x="615" y="710" type="line"/>
      <point x="175" y="710" type="line"/>
    </contour>
  </outline>
</glyph>
<glyph name="U-cy" format="2">
  <advance width="600"/>
  <unicode hex="0423"/>
  <anchor x="394" y="710" name="top"/>
  <outline>
    <contour>
      <point x="59" y="0" type="line"/>
      <point x="120" y="0" type="line" smooth="yes"/>
      <point x="179" y="0"/>
      <point x="220" y="27"/>
      <point x="251" y="78" type="curve" smooth="yes"/>
      <point x="631" y="710" type="line"/>
      <point x="596" y="710" type="line"/>
      <point x="229" y="94" type="line" smooth="yes"/>
      <point x="200" y="45"/>
      <point x="172" y="30"/>
      <point x="125" y="30" type="curve" smooth="yes"/>
      <point x="65" y="30" type="line"/>
    </contour>
    <contour>
      <point x="270" y="190" type="line"/>
      <point x="293" y="190" type="line"/>
      <point x="298" y="198" type="line"/>
      <point x="192" y="710" type="line"/>
      <point x="159" y="710" type="line"/>
    </contour>
  </outline>
</glyph>
<glyph name="Ef-cy" format="2">
  <advance width="600"/>
  <unicode hex="0424"/>
  <outline>
    <contour>
      <point x="242" y="73" type="curve" smooth="yes"/>
      <point x="274" y="73" type="line" smooth="yes"/>
      <point x="464" y="73"/>
      <point x="605" y="231"/>
      <point x="605" y="435" type="curve" smooth="yes"/>
      <point x="605" y="563"/>
      <point x="528" y="637"/>
      <point x="394" y="637" type="curve" smooth="yes"/>
      <point x="362" y="637" type="line" smooth="yes"/>
      <point x="172" y="637"/>
      <point x="34" y="480"/>
      <point x="34" y="274" type="curve" smooth="yes"/>
      <point x="34" y="146"/>
      <point x="109" y="73"/>
    </contour>
    <contour>
      <point x="280" y="103" type="curve" smooth="yes"/>
      <point x="248" y="103" type="line" smooth="yes"/>
      <point x="128" y="103"/>
      <point x="66" y="167"/>
      <point x="66" y="280" type="curve" smooth="yes"/>
      <point x="66" y="465"/>
      <point x="196" y="607"/>
      <point x="356" y="607" type="curve" smooth="yes"/>
      <point x="388" y="607" type="line" smooth="yes"/>
      <point x="508" y="607"/>
      <point x="573" y="542"/>
      <point x="573" y="429" type="curve" smooth="yes"/>
      <point x="573" y="244"/>
      <point x="440" y="103"/>
    </contour>
    <contour>
      <point x="223" y="-16" type="line"/>
      <point x="255" y="-16" type="line"/>
      <point x="413" y="726" type="line"/>
      <point x="381" y="726" type="line"/>
    </contour>
  </outline>
</glyph>
<glyph name="Tse-cy" format="2">
  <advance width="600"/>
  <unicode hex="0426"/>
  <outline>
    <contour>
      <point x="6" y="0" type="line"/>
      <point x="445" y="0" type="line"/>
      <point x="596" y="710" type="line"/>
      <point x="564" y="710" type="line"/>
      <point x="420" y="30" type="line"/>
      <point x="45" y="30" type="line"/>
      <point x="189" y="710" type="line"/>
      <point x="157" y="710" type="line"/>
    </contour>
    <contour>
      <point x="450" y="-150" type="line"/>
      <point x="482" y="-150" type="line"/>
      <point x="520" y="30" type="line"/>
      <point x="432" y="30" type="line"/>
      <point x="425" y="0" type="line"/>
      <point x="481" y="0" type="line"/>
    </contour>
  </outline>
</glyph>
<glyph name="Che-cy" format="2">
  <advance width="600"/>
  <unicode hex="0427"/>
  <outline>
    <contour>
      <point x="432" y="0" type="line"/>
      <point x="464" y="0" type="line"/>
      <point x="614" y="710" type="line"/>
      <point x="582" y="710" type="line"/>
      <point x="510" y="368" type="line"/>
      <point x="464" y="322"/>
      <point x="374" y="272"/>
      <point x="274" y="272" type="curve" smooth="yes"/>
      <point x="177" y="272"/>
      <point x="126" y="310"/>
      <point x="126" y="392" type="curve" smooth="yes"/>
      <point x="126" y="409"/>
      <point x="129" y="434"/>
      <point x="136" y="466" type="curve" smooth="yes"/>
      <point x="187" y="710" type="line"/>
      <point x="155" y="710" type="line"/>
      <point x="104" y="469" type="line" smooth="yes"/>
      <point x="98" y="441"/>
      <point x="93" y="417"/>
      <point x="93" y="390" type="curve" smooth="yes"/>
      <point x="93" y="296"/>
      <point x="158" y="241"/>
      <point x="270" y="241" type="curve" smooth="yes"/>
      <point x="386" y="241"/>
      <point x="483" y="306"/>
      <point x="516" y="340" type="curve"/>
      <point x="506" y="348" type="line"/>
    </contour>
  </outline>
</glyph>
<glyph name="Sha-cy" format="2">
  <advance width="600"/>
  <unicode hex="0428"/>
  <outline>
    <contour>
      <point x="14" y="0" type="line"/>
      <point x="474" y="0" type="line"/>
      <point x="625" y="710" type="line"/>
      <point x="593" y="710" type="line"/>
      <point x="448" y="30" type="line"/>
      <point x="266" y="30" type="line"/>
      <point x="411" y="710" type="line"/>
      <point x="379" y="710" type="line"/>
      <point x="234" y="30" type="line"/>
      <point x="52" y="30" type="line"/>
      <point x="197" y="710" type="line"/>
      <point x="165" y="710" type="line"/>
    </contour>
  </outline>
</glyph>
<glyph name="Shcha-cy" format="2">
  <advance width="600"/>
  <unicode hex="0429"/>
  <outline>
    <contour>
      <point x="4" y="0" type="line"/>
      <point x="444" y="0" type="line"/>
      <point x="595" y="710" type="line"/>
      <point x="563" y="710" type="line"/>
      <point x="419" y="30" type="line"/>
      <point x="247" y="30" type="line"/>
      <point x="391" y="710" type="line"/>
      <point x="359" y="710" type="line"/>
      <point x="215" y="30" type="line"/>
      <point x="43" y="30" type="line"/>
      <point x="187" y="710" type="line"/>
      <point x="155" y="710" type="line"/>
    </contour>
    <contour>
      <point x="448" y="-150" type="line"/>
      <point x="480" y="-150" type="line"/>
      <point x="518" y="30" type="line"/>
      <point x="437" y="30" type="line"/>
      <point x="410" y="0" type="line"/>
      <point x="479" y="0" type="line"/>
    </contour>
  </outline>
</glyph>
<glyph name="Hardsign-cy" format="2">
  <advance width="600"/>
  <unicode hex="042A"/>
  <outline>
    <contour>
      <point x="109" y="680" type="line"/>
      <point x="226" y="680" type="line"/>
      <point x="215" y="694" type="line"/>
      <point x="67" y="0" type="line"/>
      <point x="278" y="0" type="line" smooth="yes"/>
      <point x="464" y="0"/>
      <point x="563" y="116"/>
      <point x="563" y="264" type="curve" smooth="yes"/>
      <point x="563" y="360"/>
      <point x="493" y="425"/>
      <point x="364" y="425" type="curve" smooth="yes"/>
      <point x="188" y="425" type="line"/>
      <point x="250" y="710" type="line"/>
      <point x="115" y="710" type="line"/>
    </contour>
    <contour>
      <point x="105" y="30" type="line"/>
      <point x="182" y="395" type="line"/>
      <point x="360" y="395" type="line" smooth="yes"/>
      <point x="478" y="395"/>
      <point x="529" y="349"/>
      <point x="529" y="262" type="curve" smooth="yes"/>
      <point x="529" y="118"/>
      <point x="430" y="30"/>
      <point x="282" y="30" type="curve" smooth="yes"/>
    </contour>
  </outline>
</glyph>
<glyph name="Yeru-cy" format="2">
  <advance width="600"/>
  <unicode hex="042B"/>
  <outline>
    <contour>
      <point x="474" y="0" type="line"/>
      <point x="504" y="0" type="line"/>
      <point x="655" y="710" type="line"/>
      <point x="625" y="710" type="line"/>
    </contour>
    <contour>
      <point x="-16" y="0" type="line"/>
      <point x="175" y="0" type="line" smooth="yes"/>
      <point x="361" y="0"/>
      <point x="460" y="116"/>
      <point x="460" y="264" type="curve" smooth="yes"/>
      <point x="460" y="360"/>
      <point x="390" y="425"/>
      <point x="261" y="425" type="curve" smooth="yes"/>
      <point x="106" y="425" type="line"/>
      <point x="167" y="710" type="line"/>
      <point x="135" y="710" type="line"/>
    </contour>
    <contour>
      <point x="22" y="30" type="line"/>
      <point x="100" y="395" type="line"/>
      <point x="257" y="395" type="line" smooth="yes"/>
      <point x="375" y="395"/>
      <point x="426" y="349"/>
      <point x="426" y="262" type="curve" smooth="yes"/>
      <point x="426" y="118"/>
      <point x="327" y="30"/>
      <point x="179" y="30" type="curve" smooth="yes"/>
    </contour>
  </outline>
</glyph>
<glyph name="Softsign-cy" format="2">
  <advance width="600"/>
  <unicode hex="042C"/>
  <outline>
    <contour>
      <point x="24" y="0" type="line"/>
      <point x="258" y="0" type="line" smooth="yes"/>
      <point x="444" y="0"/>
      <point x="543" y="116"/>
      <point x="543" y="264" type="curve" smooth="yes"/>
      <point x="543" y="360"/>
      <point x="473" y="425"/>
      <point x="344" y="425" type="curve" smooth="yes"/>
      <point x="146" y="425" type="line"/>
      <point x="207" y="710" type="line"/>
      <point x="175" y="710" type="line"/>
    </contour>
    <contour>
      <point x="62" y="30" type="line"/>
      <point x="140" y="395" type="line"/>
      <point x="340" y="395" type="line" smooth="yes"/>
      <point x="458" y="395"/>
      <point x="509" y="349"/>
      <point x="509" y="262" type="curve" smooth="yes"/>
      <point x="509" y="118"/>
      <point x="410" y="30"/>
      <point x="262" y="30" type="curve" smooth="yes"/>
    </contour>
  </outline>
</glyph>
<glyph name="Yu-cy" format="2">
  <advance width="600"/>
  <unicode hex="042E"/>
  <outline>
    <contour>
      <point x="309" y="-16" type="curve" smooth="yes"/>
      <point x="475" y="-16"/>
      <point x="607" y="250"/>
      <point x="607" y="538" type="curve" smooth="yes"/>
      <point x="607" y="664"/>
      <point x="566" y="726"/>
      <point x="478" y="726" type="curve" smooth="yes"/>
      <point x="312" y="726"/>
      <point x="179" y="456"/>
      <point x="179" y="172" type="curve" smooth="yes"/>
      <point x="179" y="47"/>
      <point x="220" y="-16"/>
    </contour>
    <contour>
      <point x="-26" y="0" type="line"/>
      <point x="6" y="0" type="line"/>
      <point x="157" y="710" type="line"/>
      <point x="125" y="710" type="line"/>
    </contour>
    <contour>
      <point x="64" y="349" type="line"/>
      <point x="216" y="349" type="line"/>
      <point x="223" y="379" type="line"/>
      <point x="71" y="379" type="line"/>
    </contour>
    <contour>
      <point x="315" y="16" type="curve" smooth="yes"/>
      <point x="244" y="16"/>
      <point x="213" y="67"/>
      <point x="213" y="173" type="curve" smooth="yes"/>
      <point x="213" y="437"/>
      <point x="335" y="694"/>
      <point x="472" y="694" type="curve" smooth="yes"/>
      <point x="543" y="694"/>
      <point x="573" y="643"/>
      <point x="573" y="537" type="curve" smooth="yes"/>
      <point x="573" y="272"/>
      <point x="452" y="16"/>
    </contour>
  </outline>
</glyph>
<glyph name="Ya-cy" format="2">
  <advance width="600"/>
  <unicode hex="042F"/>
  <outline>
    <contour>
      <point x="447" y="0" type="line"/>
      <point x="479" y="0" type="line"/>
      <point x="629" y="710" type="line"/>
      <point x="376" y="710" type="line" smooth="yes"/>
      <point x="196" y="710"/>
      <point x="112" y="586"/>
      <point x="112" y="458" type="curve" smooth="yes"/>
      <point x="112" y="353"/>
      <point x="178" y="298"/>
      <point x="288" y="298" type="curve" smooth="yes"/>
      <point x="510" y="298" type="line"/>
    </contour>
    <contour>
      <point x="9" y="0" type="line"/>
      <point x="43" y="0" type="line"/>
      <point x="303" y="307" type="line"/>
      <point x="271" y="310" type="line"/>
    </contour>
    <contour>
      <point x="294" y="328" type="line" smooth="yes"/>
      <point x="196" y="328"/>
      <point x="146" y="366"/>
      <point x="146" y="460" type="curve" smooth="yes"/>
      <point x="146" y="576"/>
      <point x="226" y="680"/>
      <point x="370" y="680" type="curve" smooth="yes"/>
      <point x="591" y="680" type="line"/>
      <point x="516" y="328" type="line"/>
    </contour>
  </outline>
</glyph>
<glyph name="be-cy" format="2">
  <advance width="600"/>
  <unicode hex="0431"/>
  <outline>
    <contour>
      <point x="246" y="-12" type="curve" smooth="yes"/>
      <point x="404" y="-12"/>
      <point x="529" y="130"/>
      <point x="529" y="306" type="curve" smooth="yes"/>
      <point x="529" y="415"/>
      <point x="466" y="484"/>
      <point x="364" y="484" type="curve" smooth="yes"/>
      <point x="236" y="484"/>
      <point x="147" y="402"/>
      <point x="103" y="286" type="curve"/>
      <point x="108" y="286" type="line"/>
      <point x="124" y="448"/>
      <point x="206" y="572"/>
      <point x="382" y="594" type="curve" smooth="yes"/>
      <point x="500" y="608"/>
      <point x="537" y="642"/>
      <point x="552" y="710" type="curve"/>
      <point x="522" y="710" type="line"/>
      <point x="511" y="658"/>
      <point x="486" y="635"/>
      <point x="376" y="620" type="curve" smooth="yes"/>
      <point x="172" y="591"/>
      <point x="74" y="448"/>
      <point x="74" y="188" type="curve" smooth="yes"/>
      <point x="74" y="57"/>
      <point x="134" y="-12"/>
    </contour>
    <contour>
      <point x="250" y="18" type="curve" smooth="yes"/>
      <point x="158" y="18"/>
      <point x="106" y="76"/>
      <point x="106" y="172" type="curve" smooth="yes"/>
      <point x="106" y="328"/>
      <point x="218" y="454"/>
      <point x="355" y="454" type="curve" smooth="yes"/>
      <point x="451" y="454"/>
      <point x="497" y="397"/>
      <point x="497" y="302" type="curve" smooth="yes"/>
      <point x="497" y="146"/>
      <point x="384" y="18"/>
    </contour>
  </outline>
</glyph>
<glyph name="ve-cy" format="2">
  <advance width="600"/>
  <unicode hex="0432"/>
  <outline>
    <contour>
      <point x="50" y="0" type="line"/>
      <point x="293" y="0" type="line" smooth="yes"/>
      <point x="409" y="0"/>
      <point x="488" y="60"/>
      <point x="488" y="162" type="curve" smooth="yes"/>
      <point x="488" y="226"/>
      <point x="439" y="276"/>
      <point x="347" y="276" type="curve"/>
      <point x="347" y="268" type="line"/>
      <point x="445" y="268"/>
      <point x="523" y="330"/>
      <point x="523" y="420" type="curve" smooth="yes"/>
      <point x="523" y="484"/>
      <point x="478" y="530"/>
      <point x="381" y="530" type="curve" smooth="yes"/>
      <point x="162" y="530" type="line"/>
    </contour>
    <contour>
      <point x="86" y="28" type="line"/>
      <point x="135" y="258" type="line"/>
      <point x="336" y="258" type="line" smooth="yes"/>
      <point x="416" y="258"/>
      <point x="456" y="222"/>
      <point x="456" y="160" type="curve" smooth="yes"/>
      <point x="456" y="70"/>
      <point x="391" y="28"/>
      <point x="299" y="28" type="curve" smooth="yes"/>
    </contour>
    <contour>
      <point x="140" y="286" type="line"/>
      <point x="186" y="502" type="line"/>
      <point x="377" y="502" type="line" smooth="yes"/>
      <point x="460" y="502"/>
      <point x="491" y="474"/>
      <point x="491" y="418" type="curve" smooth="yes"/>
      <point x="491" y="346"/>
      <point x="436" y="286"/>
      <point x="333" y="286" type="curve" smooth="yes"/>
    </contour>
  </outline>
</glyph>
<glyph name="ge-cy" format="2">
  <advance width="600"/>
  <unicode hex="0433"/>
  <anchor x="356" y="530" name="top"/>
  <outline>
    <contour>
      <point x="74" y="0" type="line"/>
      <point x="104" y="0" type="line"/>
      <point x="214" y="520" type="line"/>
      <point x="203" y="502" type="line"/>
      <point x="540" y="502" type="line"/>
      <point x="546" y="530" type="line"/>
      <point x="186" y="530" type="line"/>
    </contour>
  </outline>
</glyph>
<glyph name="de-cy" format="2">
  <advance width="600"/>
  <unicode hex="0434"/>
  <outline>
    <contour>
      <point x="28" y="18" type="curve"/>
      <point x="54" y="8" type="line"/>
      <point x="92" y="30"/>
      <point x="147" y="60"/>
      <point x="188" y="180" type="curve" smooth="yes"/>
      <point x="299" y="502" type="line"/>
      <point x="511" y="502" type="line"/>
      <point x="406" y="10" type="line"/>
      <point x="436" y="10" type="line"/>
      <point x="547" y="530" type="line"/>
      <point x="277" y="530" type="line"/>
      <point x="162" y="190" type="line" smooth="yes"/>
      <point x="127" y="84"/>
      <point x="80" y="48"/>
    </contour>
    <contour>
      <point x="-32" y="-120" type="line"/>
      <point x="-2" y="-120" type="line"/>
      <point x="24" y="0" type="line"/>
      <point x="464" y="0" type="line"/>
      <point x="438" y="-120" type="line"/>
      <point x="468" y="-120" type="line"/>
      <point x="500" y="28" type="line"/>
      <point x="0" y="28" type="line"/>
    </contour>
  </outline>
</glyph>
<glyph name="zhe-cy" format="2">
  <advance width="600"/>
  <unicode hex="0436"/>
  <outline>
    <contour>
      <point x="229" y="0" type="line"/>
      <point x="259" y="0" type="line"/>
      <point x="371" y="530" type="line"/>
      <point x="341" y="530" type="line"/>
    </contour>
    <contour>
      <point x="482" y="0" type="line"/>
      <point x="514" y="0" type="line"/>
      <point x="340" y="264" type="line"/>
      <point x="615" y="530" type="line"/>
      <point x="579" y="530" type="line"/>
      <point x="308" y="266" type="line"/>
    </contour>
    <contour>
      <point x="10" y="0" type="line"/>
      <point x="292" y="264" type="line"/>
      <point x="129" y="530" type="line"/>
      <point x="97" y="530" type="line"/>
      <point x="260" y="266" type="line"/>
      <point x="-26" y="0" type="line"/>
    </contour>
  </outline>
</glyph>
<glyph name="ze-cy" format="2">
  <advance width="600"/>
  <unicode hex="0437"/>
  <outline>
    <contour>
      <point x="248" y="-12" type="curve" smooth="yes"/>
      <point x="380" y="-12"/>
      <point x="464" y="67"/>
      <point x="464" y="174" type="curve" smooth="yes"/>
      <point x="464" y="238"/>
      <point x="426" y="280"/>
      <point x="342" y="290" type="curve"/>
      <point x="340" y="276" type="line"/>
      <point x="438" y="284"/>
      <point x="501" y="338"/>
      <point x="501" y="424" type="curve" smooth="yes"/>
      <point x="501" y="495"/>
      <point x="456" y="542"/>
      <point x="356" y="542" type="curve" smooth="yes"/>
      <point x="236" y="542"/>
      <point x="169" y="488"/>
      <point x="141" y="402" type="curve"/>
      <point x="171" y="400" type="line"/>
      <point x="193" y="469"/>
      <point x="252" y="514"/>
      <point x="350" y="514" type="curve" smooth="yes"/>
      <point x="440" y="514"/>
      <point x="469" y="479"/>
      <point x="469" y="422" type="curve" smooth="yes"/>
      <point x="469" y="342"/>
      <point x="413" y="298"/>
      <point x="319" y="298" type="curve" smooth="yes"/>
      <point x="239" y="298" type="line"/>
      <point x="233" y="270" type="line"/>
      <point x="314" y="270" type="line" smooth="yes"/>
      <point x="394" y="270"/>
      <point x="432" y="235"/>
      <point x="432" y="172" type="curve" smooth="yes"/>
      <point x="432" y="80"/>
      <point x="362" y="16"/>
      <point x="252" y="16" type="curve" smooth="yes"/>
      <point x="158" y="16"/>
      <point x="124" y="56"/>
      <point x="118" y="154" type="curve"/>
      <point x="88" y="152" type="line"/>
      <point x="94" y="42"/>
      <point x="140" y="-12"/>
    </contour>
  </outline>
</glyph>
<glyph name="ii-cy" format="2">
  <advance width="600"/>
  <unicode hex="0438"/>
  <anchor x="356" y="530" name="top"/>
  <outline>
    <contour>
      <point x="44" y="0" type="line"/>
      <point x="84" y="0" type="line"/>
      <point x="532" y="508" type="line"/>
      <point x="522" y="510" type="line"/>
      <point x="414" y="0" type="line"/>
      <point x="444" y="0" type="line"/>
      <point x="556" y="530" type="line"/>
      <point x="516" y="530" type="line"/>
      <point x="68" y="22" type="line"/>
      <point x="78" y="20" type="line"/>
      <point x="186" y="530" type="line"/>
      <point x="156" y="530" type="line"/>
    </contour>
  </outline>
</glyph>
<glyph name="ka-cy" format="2">
  <advance width="600"/>
  <unicode hex="043A"/>
  <anchor x="335" y="530" name="top"/>
  <outline>
    <contour>
      <point x="404" y="0" type="line"/>
      <point x="444" y="0" type="line"/>
      <point x="160" y="264" type="line"/>
      <point x="545" y="530" type="line"/>
      <point x="501" y="530" type="line"/>
      <point x="122" y="265" type="line"/>
    </contour>
    <contour>
      <point x="44" y="0" type="line"/>
      <point x="74" y="0" type="line"/>
      <point x="186" y="530" type="line"/>
      <point x="156" y="530" type="line"/>
    </contour>
  </outline>
</glyph>
<glyph name="el-cy" format="2">
  <advance width="600"/>
  <unicode hex="043B"/>
  <outline>
    <contour>
      <point x="23" y="-4" type="line"/>
      <point x="38" y="-4" type="line" smooth="yes"/>
      <point x="95" y="-4"/>
      <point x="125" y="19"/>
      <point x="148" y="92" type="curve" smooth="yes"/>
      <point x="274" y="502" type="line"/>
      <point x="540" y="502" type="line"/>
      <point x="433" y="0" type="line"/>
      <point x="463" y="0" type="line"/>
      <point x="576" y="530" type="line"/>
      <point x="252" y="530" type="line"/>
      <point x="116" y="94" type="line" smooth="yes"/>
      <point x="98" y="36"/>
      <point x="81" y="24"/>
      <point x="44" y="24" type="curve" smooth="yes"/>
      <point x="29" y="24" type="line"/>
    </contour>
  </outline>
</glyph>
<glyph name="em-cy" format="2">
  <advance width="600"/>
  <unicode hex="043C"/>
  <outline>
    <contour>
      <point x="-6" y="0" type="line"/>
      <point x="24" y="0" type="line"/>
      <point x="127" y="488" type="line"/>
      <point x="121" y="487" type="line"/>
      <point x="230" y="0" type="line"/>
      <point x="258" y="0" type="line"/>
      <point x="573" y="487" type="line"/>
      <point x="567" y="488" type="line"/>
      <point x="464" y="0" type="line"/>
      <point x="494" y="0" type="line"/>
      <point x="606" y="530" type="line"/>
      <point x="570" y="530" type="line"/>
      <point x="241" y="17" type="line"/>
      <point x="253" y="17" type="line"/>
      <point x="142" y="530" type="line"/>
      <point x="106" y="530" type="line"/>
    </contour>
  </outline>
</glyph>
